<svg width="746" height="719" viewBox="0 0 746 719" fill="none" xmlns="http://www.w3.org/2000/svg">
<path d="M577.868 434.255C574.29 430.47 580.613 425.382 575.306 423.759C573.654 423.251 572.178 424.737 570.836 424.557C565.233 423.759 563.002 421.517 556.49 424.33C541.449 430.833 531.834 441.595 521.959 454.368C517.559 460.061 513.879 471.029 506.403 472.841C499.453 471.036 490.771 473.975 484.342 473.082C480.213 472.506 476.678 470.218 472.704 469.221C467.162 467.836 439.514 466.686 434.106 467.681C417.319 470.792 393.958 489.858 378.731 491.168C368.649 492.032 358.372 489.995 352.987 480.433C352.379 479.348 349.689 467.535 349.413 465.64C348.693 460.682 350.135 444.763 346.098 442.789C344.913 442.206 334.089 444.423 331.099 444.544C322.766 444.908 313.634 443.085 305.496 445.142C297.207 447.239 281.604 457.38 274.654 455.239C263.15 451.676 259.141 438.546 250.136 432.348C246.713 429.987 242.954 430.699 240.04 429.105C228.433 422.769 216.882 397.511 219.202 384.401C220.059 379.603 223.625 375.807 225.386 371.07C230.365 357.676 223.933 336.484 222.126 322.28C221.472 317.144 222.338 309.5 221.43 305.021C219.413 294.971 211.024 284.04 212.761 272.551C213.242 269.366 218.582 259.114 220.502 256.073C227.355 245.223 230.682 242.483 235.91 229.904C236.721 227.955 238.86 226.678 239.582 224.318C240.942 219.896 236.439 218.316 234.683 215.671C231.338 210.64 245.741 188.136 239.379 179.828C235.159 174.324 228.491 173.396 232.724 164.154C225.564 164.421 225.214 177.723 222.224 182.761C215.318 194.407 206.618 198.12 197.367 206.151C192.245 210.595 188.17 216.142 183.469 220.505C176.405 227.063 160.167 226.494 150.028 235.653C135.931 248.377 136.484 251.095 115.992 252.715C112.931 252.96 94.1633 253.118 92.5888 252.44C83.5982 248.604 74.2892 227.579 73.2953 218.125C72.2751 208.465 73.0325 209.157 70.3008 199.139C69.3201 195.538 67.4201 181.96 68.7662 178.903C72.3671 170.705 81.9717 162.117 86.5558 154.046C90.8389 146.509 91.4607 137.903 98.2257 130.369C101.886 126.284 118.735 120.976 125.018 116.173C133.242 109.89 129.098 99.1801 132.183 89.1518C138.335 69.1966 155.087 29.2079 179.601 28.6271C183.42 28.5372 186.783 31.0487 191.074 30.5016C195.212 29.9762 206.913 24.5232 209.944 21.6171C217.093 14.7603 215.191 10.2457 218.923 3.51801C220.812 0.0977513 223.759 -2.17416 225.47 -5.32514C229.284 -12.3868 231.808 -24.5685 238.136 -29.7028C240.614 -31.7175 244.592 -31.6569 248.249 -35.124C270.751 -56.5457 275.798 -85.9813 296.042 -104.598C299.023 -107.345 304.22 -109.458 307.477 -112.156C329.71 -130.464 343.55 -153.849 365.995 -170.484C375.619 -177.628 393.071 -180.714 404.606 -177.88C409.004 -176.809 410.798 -174.468 414.031 -173.409C416.834 -172.496 422.499 -173.457 426.956 -172.118C457.213 -163.086 449.989 -136.769 467.887 -116.647C482.335 -110.474 496.032 -113.348 511.092 -112.717C526.307 -112.089 556.598 -111.304 565.243 -97.6227C566.759 -95.2305 573.401 -79.5011 574.315 -76.4953C575.62 -72.2675 573.569 -67.1884 575.381 -63.7572C576.083 -62.4246 582.452 -52.7177 583.4 -51.5964C593.319 -39.9752 609.18 -41.4193 622.882 -38.3118C632.704 -36.0729 649.584 -31.2656 657.851 -25.9614C664.4 -21.7599 668.745 -14.5392 674.181 -10.809C685.171 -3.26737 714.536 -7.27805 729.032 -4.57277C738.617 -2.78683 770.938 15.6649 778.128 22.7766C788.515 33.0317 789.209 50.9095 792.254 64.6013C793.139 68.5732 795.238 72.835 796.138 77.1055C797.038 81.376 797.641 95.3161 799.044 97.9813C801.853 103.348 811.258 108.339 815.634 113.203C827.03 125.856 816.456 155.951 811.705 170.108C808.987 178.215 804.932 180.506 808.718 189.973C816.36 209.101 840.644 224.475 853.704 242.062C866.629 259.452 872.549 275.577 873.338 297.011C874.141 318.943 857.456 333.455 849.84 351.768C839.278 377.171 833.829 426.73 813.092 444.223C803.093 452.662 789.607 451.064 783.961 467.368C782.934 470.326 784.061 474.05 782.295 477.306C773.818 492.909 749.746 490.49 738.001 503.628C734.024 508.067 734.138 513.048 732.034 516.941C726.132 527.857 709.186 534.964 701.527 545.081C693.473 555.704 693.274 575.865 685.156 584.184C674.166 595.459 656.019 588.421 644.189 599.657C637.836 605.693 634.375 612.953 633.977 621.631C633.633 628.978 637.87 633.153 630.059 638.592C621.216 644.753 618.183 636.142 612.295 633.54C610.03 632.546 594.444 635.767 591.461 636.951C583.056 640.276 576.84 648.628 567.452 647.999C563.864 646.17 563.646 636.97 558.829 633.916C555.038 631.512 549.075 636.434 544.446 634.01C536.237 629.728 539.81 624.041 538.872 622.928C537.915 621.798 529.776 620.665 526.838 617.691C521.915 612.7 523.397 606.25 521.975 600.732C520.033 593.212 515.548 590.657 518.354 581.416C520.591 574.094 525.705 571.306 529.568 565.394C532.271 561.27 534.154 555.596 537.495 551.155C543.792 542.805 559.179 531.274 561.888 521.968C564.598 512.68 555.155 503.828 554.103 496.961C553.379 492.185 556.159 485.373 556.418 480.17C556.816 472.482 554.916 464.595 556.332 456.796C557.252 451.684 564.2 440.107 568.861 437.775C571.252 436.577 577.346 436.952 577.796 434.261L577.868 434.255ZM421.854 -165.677C416.746 -165.235 417.223 -161.793 409.393 -165.77C402.607 -169.215 403.524 -170.655 394.627 -170.952C360.963 -172.075 337.554 -129.061 313.7 -109.909C303.866 -102.002 297.159 -99.5724 289.041 -88.299C281.152 -77.3355 276.4 -61.0964 268.165 -50.3586C264.811 -45.9803 253.362 -33.4304 249.435 -30.0409C246.916 -27.8591 242.95 -27.6753 240.7 -25.8704C236.012 -22.1177 232.7 -9.34337 229.385 -3.38668C227.613 -0.203367 224.755 2.04296 222.874 5.45346C219.05 12.3888 220.455 17.3719 213.218 24.3724C208.674 28.7676 194.04 35.4641 187.678 34.7106C184.612 34.347 182.386 32.3956 179.201 32.5691C156.803 33.7833 138.926 74.3473 134.418 93.5115C131.964 103.924 137.662 110.359 127.487 118.313C121.657 122.879 106.823 127.928 102.941 131.541C93.1338 140.646 95.1937 145.529 90.1676 154.519C81.3086 170.335 66.0628 177.219 74.159 198.091C75.0048 200.284 77.2611 202.279 77.8962 204.562C79.1196 209.006 77.0087 215.881 78.956 222.582C80.3313 227.322 89.2522 245.317 92.8666 247.135C106.558 249.343 120.012 247.154 133.441 244.557C145.011 236.642 150.82 227.779 164.829 222.752C169.639 221.016 176.046 221.321 179.55 218.412C183.895 214.806 188.339 208.983 192.766 205.042C202.24 196.629 212.308 193.184 219.384 181.516C220.815 179.151 220.878 175.746 222.121 172.989C224.469 167.758 231.132 154.514 236.677 162.835C229.512 171.021 237.57 173.697 241.576 178.918C248.081 187.414 234.731 209.685 237.559 213.959C238.723 215.717 240.958 216.804 242.283 218.849C245.694 224.138 241.575 226.525 240.065 230.35C234.137 245.342 224.055 255.187 218.105 269.135C212.975 281.142 222.749 292.775 225.091 304.008C226.632 311.407 226.188 320.952 227.161 328.725C228.688 340.88 232.634 353.033 230.714 365.392C228.636 378.791 220.566 381.007 223.777 396.903C225.299 404.403 233.874 421.736 240.501 425.349C244.119 427.321 249.564 426.66 253.766 429.865C261.258 435.57 266.859 449.377 277.339 451.116C280.371 451.619 298.118 442.673 304.455 441.474C313.029 439.853 322.514 441.875 330.873 441.599C335.279 441.451 345.199 438.637 348.149 440.446C353.845 443.91 351.43 458.282 352.434 464.689C354.717 479.263 359.499 489.456 376.247 488.393C390.273 487.51 415.811 467.181 432.255 463.344C437.855 462.042 464.856 462.609 470.771 463.891C476.093 465.04 481.122 468.022 486.249 468.569C492.119 469.191 499.544 466.547 505.804 467.818C518.007 456.26 524.805 438.833 538.795 429.19C542.011 426.978 556.74 418.364 559.74 418.033C563.569 417.616 573.908 421.702 578.919 421.295C583.225 423.883 580.369 426.82 580.437 429.178C580.507 431.772 582.398 433.306 580.828 435.972C577.412 441.792 571.569 437.55 566.975 442.322C555.116 454.643 559.416 465.703 558.812 479.998C558.636 484.113 557.087 487.905 556.884 491.476C556.248 502.101 569.791 513.685 564.901 524.754C563.86 527.113 556.851 536.74 554.791 539.192C543.596 552.494 540.075 557.604 530.851 572.087C526.638 578.71 520.712 580.592 522.82 590.099C523.894 594.937 525.912 600.841 527.24 606.331C530.445 619.637 536.193 613.878 541.871 620.952C544.489 624.225 541.05 627.81 545.706 630.896C550.688 634.192 554.369 624.214 561.624 630.575C566.114 634.511 566.463 639.591 569.354 644.305C579.392 640.599 589.417 631.494 599.898 628.97C601.439 628.596 610.752 627.768 611.885 628.056C618.679 629.746 619.722 638.25 628.299 634.702C635.208 631.856 631.085 624.571 631.588 618.802C632.671 606.559 641.665 594.885 653.308 590.81C661.4 587.974 674.217 589.946 681.363 583.608C690.346 575.635 690.394 557.596 697.355 546.955C705.423 534.631 718.652 529.078 726.597 518.901C730.088 514.42 729.572 510.827 732.2 506.355C743.614 486.926 772.43 489.87 779.111 474.543C779.891 472.769 778.56 469.762 779.518 466.964C786.866 445.537 807.071 448.896 817.324 432.9C831.505 410.778 835.828 374.603 846.421 349.779C854.128 331.695 869.103 319.798 869.636 298.073C870.148 277.204 862.977 260.355 850.831 243.81C837.958 226.28 813.68 210.105 805.918 190.96C801.721 180.591 805.859 178.42 808.79 169.604C812.923 157.189 820.547 134.167 816.41 121.447C813.138 111.392 800.492 107.433 795.874 99.7625C794.113 96.8453 793.491 82.8886 792.472 78.1644C791.176 72.1995 788.779 66.4262 787.385 60.4786C782.709 40.6225 785.8 30.5482 766.307 17.1493C760.937 13.459 750.914 8.02785 744.893 4.59164C722.179 -8.39448 705.116 -0.296299 682.384 -3.32685C664.992 -5.64634 666.026 -16.7406 652.733 -24.2183C647.355 -27.2443 627.352 -32.2105 620.226 -34.0642C600 -39.3208 590.312 -35.6713 576.175 -55.5145C570.187 -63.9078 572.842 -68.3916 570.045 -76.1317C568.69 -79.8644 560.522 -97.3217 558.251 -99.2784C552.436 -104.286 536.055 -106.69 528.108 -107.811C511.561 -110.137 479.977 -107.015 467.255 -113.959C463.675 -115.916 457.467 -124.009 455.106 -127.704C447.581 -139.496 449.115 -153.977 433.83 -162.235C432.422 -162.991 423.02 -165.765 421.856 -165.659L421.854 -165.677Z" fill="#5F6C37"/>
<path d="M446.536 355.39C446.353 352.315 440.533 340.135 438.502 337.577C430.259 327.189 421.175 326.061 423.436 310.165C424.968 299.375 424.674 298.354 423.656 287.521C422.578 276.066 422.334 280.577 418.785 271.326C417.8 268.781 418.491 265.269 417.596 262.38C416.502 258.835 413.414 255.8 413.186 252.183C412.886 247.363 416.014 242.34 420.548 240.454C421.348 240.124 433.365 239.236 434.78 239.309C437.6 239.448 460.159 245.202 462.539 246.495C473.344 252.37 481.818 269.147 493.506 274.258C494.354 274.624 505.21 277.605 505.856 277.615C509.444 277.68 518.957 273.245 522.989 275.065C530.61 279.15 537.645 285.711 544.616 290.187C547.324 291.925 551.688 292.363 553.875 294.181C559.39 298.75 562.293 306.782 570.597 312.301C574.455 314.862 586.673 316.511 591.27 315.939C597.999 315.089 605.022 308.143 612.416 307.202C616.347 306.703 619.857 310.211 623.874 309.214L627.909 293.98C626.501 293.56 619.81 299.361 616.337 300.013C613.518 300.547 611.983 299.029 610.609 299.225C607.636 299.663 600.696 303.993 596.966 302.967C590.77 301.263 586.796 293.03 581.51 289.478C578.506 287.455 575.593 287.96 572.952 286.361C564.366 281.156 553.875 270.31 551.274 260.335C549.345 252.978 550.745 239.626 546.543 232.812C544.139 228.93 539.995 227.301 537.186 223.025C534.376 218.75 526.582 194.507 526.353 189.227C525.733 174.87 538.112 162.252 549.205 154.84C561.53 146.608 565.244 151.263 577.434 149.615C580.823 149.161 583.75 146.972 587.216 146.666C601.192 145.406 617.905 156.636 626.015 167.38C628.691 170.921 631.528 179.367 633.157 181.032C637.751 185.777 653.347 185.519 657.177 194.2C663.052 207.485 657.368 223.656 655.099 236.625C652.279 252.804 653.118 264.106 641.527 278.55C638.091 282.826 631.879 286.732 628.879 291.981C630.908 292.658 632.438 290.395 635.129 290.289C643.673 289.953 639.434 296.922 641.427 299.684C642.629 301.357 645.018 300.559 646.659 301.495C654.101 305.731 666.365 332.784 664.132 341.469C659.718 358.599 654.276 356.996 657.441 377.487C658.81 386.318 657.755 384.451 657.303 392.579C656.44 407.914 674.843 413.222 680.965 426.076C688.274 441.414 677.068 453.598 683.486 465.092C685.997 469.602 690.186 471.335 693.385 474.833C694.494 476.041 694.262 478.06 695.368 479.232C696.984 480.952 701.328 481.592 704.039 483.703C706.488 485.608 712.334 491.75 714.321 494.221C717.586 498.295 718.539 502.761 716.398 507.63C709.908 522.313 695.158 536.264 678.151 535.731C663.158 535.258 670.551 523.454 663.764 515.727C659.146 510.474 638.9 518.228 632.269 519.16C628.234 519.722 623.365 518.89 620.214 519.361C615.5 520.07 610.53 524.156 604.778 524.288C601.948 524.359 589.099 519.926 587.069 518.258C580.818 513.15 582.992 506.379 581.65 499.955C579.79 491.128 574.5 488.949 581.405 479.603C585.59 473.947 593.72 470.372 596.139 464.799C597.292 462.149 597.197 454.766 598.117 451.063C599.177 446.757 601.699 443.084 602.34 437.886C603.7 427.001 601.043 412.295 592.441 404.709C590.341 402.848 586.692 402.696 583.998 401.338C581.426 400.033 579.944 397.62 576.817 396.634C567.714 393.745 553.533 402.622 545.747 403.987C542.629 404.536 540.249 403.679 537.468 404.128C535.657 404.424 519.87 408.735 519.042 409.276C509.71 415.342 506.799 435.791 495.237 440.624C482.718 445.854 467.781 435.44 454.032 437.582C441.369 439.551 428.253 451.176 415.732 455.179C410.738 456.775 395.038 457.315 391.712 453.173C391.145 452.475 388.444 442.282 388.103 440.583C385.999 430.022 389.699 422.579 375.655 417.872C366.491 414.797 353.224 419.898 345.59 419.159C339.185 418.537 331.321 412.735 325.333 411.442C321.491 410.606 306.291 409.941 302.658 410.961C292.984 413.682 289.829 421.117 283.398 424.35C278.075 427.028 267.869 422.249 264.687 417.641C263.086 415.328 263.493 411.476 261.145 409.69C255.41 405.321 245.831 409.952 240.485 403.042C234.772 395.653 239.029 391.418 239.842 384.233C240.558 377.973 242.695 369.006 243.001 364.362C243.258 360.45 240.133 355.219 239.75 351.051C239.277 345.9 241.565 339.41 241.28 334.334C240.685 323.657 232.81 302.166 229.438 291.556C225.269 278.457 226.271 244.976 247.385 254.141C263.359 261.068 260.785 269.8 267.175 283.15C272.653 294.604 281.314 308.266 292.369 314.302C297.949 317.348 303.437 317.983 308.159 322.736C313.662 328.252 314.971 339.197 319.557 345.934C322.228 349.857 329.999 357.276 334.535 358.699C336.223 359.222 347.16 353.424 352.992 353.93C356.792 354.26 360.266 356.799 363.861 357.609C372.885 359.66 378.703 357.468 387.754 363.671C392.689 367.061 397.916 373.735 403.115 376.022C407.738 378.056 418.104 375.905 423.456 375.769C427.43 375.676 427.754 377.93 432.478 375.384C439.005 371.878 446.991 363.179 446.516 355.374L446.536 355.39ZM428.982 297.251C429.643 299.305 426.191 306.991 425.792 309.961C423.978 323.365 435.864 328.896 442.328 338.768C444.617 342.25 451.036 355.508 449.983 359.249C448.06 366.081 437.86 375.928 431.251 378.558C428.77 379.546 408.521 382.009 405.855 381.549C395.893 379.812 388.326 366.623 376.406 363.095C371.803 361.732 366.907 363.211 363.525 362.328C359.456 361.266 356.707 357.831 351.82 357.655C346.158 357.461 340.061 362.958 334.822 361.829C327.482 360.248 317.179 351.34 313.384 344.938C310.33 339.8 308.661 329.658 305.345 325.961C301.127 321.248 287.985 317.993 281.658 312.855C278.256 310.093 264.489 290.328 262.134 285.833C258.599 279.063 259.619 268.797 253.818 263.079C251.946 261.225 245.68 258.018 243.152 257.237C238.535 255.83 237.116 257.13 234.533 260.953C223.917 276.624 244.103 316.11 245.812 333.958C246.43 340.406 243.133 346.58 243.504 352.248C243.781 356.462 246.275 359.9 245.951 364.863C245.574 370.721 243.358 381.15 242.409 387.783C241.6 393.477 237.753 397.069 244.652 402.759C247.521 405.121 250.484 403.148 253.789 403.646C255.336 403.881 261.166 405.779 262.387 406.578C267.815 410.099 264.99 417.125 273.316 420.733C284.255 425.479 288.836 413.763 297.247 409.183C305.579 404.655 311.464 407.103 319.754 407.76C322.6 407.987 325.859 406.617 328.775 407.356C333.372 408.529 335.41 412.051 339.144 414.104C344.555 417.091 353.901 413.706 360.214 413.427C364.09 413.251 376.109 412.835 379.099 413.805C392.465 418.122 388.811 428.525 390.983 438.808C391.876 442.988 394.741 446.622 394.446 451.392L411.028 453.042C427.623 448.728 443.87 431.68 461.432 433.204C472.025 434.115 482.619 441.708 493.415 436.848C509.266 429.705 503.663 408.744 521.669 404.668C524.72 403.978 527.28 405.138 529.961 404.588C539.608 402.633 552.144 395.956 561.505 393.86C568.493 392.289 575.424 391.578 581.935 394.673C600.889 403.653 608.695 418.286 605.75 439.093C605.021 444.217 602.464 448.348 601.308 453.043C600.215 457.507 600.044 467.702 597.35 470.626C595.858 472.249 592.904 473.022 590.879 475.017C588.652 477.211 582.873 483.7 582.045 486.323C580.952 489.795 584.572 495.412 585.315 498.878C587.641 509.711 583.651 511.033 596.016 518.716C605.63 524.69 608.527 519.404 617.038 517.461C621.891 516.349 627.757 516.935 632.763 516.019C644.009 513.958 661.111 505.675 669.488 517.551C671.795 520.814 670.283 530.63 673.975 531.524C678.039 532.513 689.77 530.158 693.328 527.681C698.553 524.047 715.851 505.421 712.815 498.855C711.418 495.826 701.854 487.057 698.818 484.872C696.218 483.007 692.523 482.295 691.013 480.966C690.376 480.41 682.133 469.386 680.765 467.572C671.601 455.298 682.621 435.956 676.875 425.652C673.991 420.474 663.724 413.527 659.377 408.252C649.672 396.476 656.233 393.486 654.897 382.216C654.36 377.715 651.333 372.13 651.54 367.404C651.912 359.292 658.392 348.209 660.206 340.277C662.412 330.613 655.343 320.146 650.565 312.407C649.346 310.435 647.721 305.634 646.552 304.477C645.134 303.058 641.963 303.73 639.807 301.3C638.503 299.827 638.572 291.576 633.934 294.398C627.557 298.281 631.789 310.275 623.618 313.026C620.522 314.065 615.066 309.881 612.646 310.301C608.471 311.029 600.816 316.282 596.65 317.556C594.265 318.29 579.616 318.561 577.074 318.054C563.5 315.29 560.301 302.493 551.098 295.775C547.73 293.31 543.722 292.988 540.903 291.222C537.47 289.071 534.652 285.46 531.182 283.193C528.172 281.216 523.707 280.641 520.897 277.457C517.598 276.04 508.76 280.61 504.514 280.053C502.17 279.748 496.931 278.837 494.563 278.343C485.573 276.49 481.334 267.915 475.086 262.07C466.844 254.337 456.883 246.474 445.673 243.832C440.982 242.73 423.109 241.514 419.406 244.104C411.698 249.48 418.733 259.095 421.008 265.806C421.635 267.663 420.957 270.228 421.668 271.787C422.871 274.451 425.268 275.842 426.532 279.683C428.279 284.956 425.482 288.933 426.209 292.536C426.735 295.147 428.53 295.861 428.969 297.207L428.982 297.251ZM555.302 248.302C555.755 251.018 554.796 254.807 555.672 258.452C558.018 268.211 565.116 275.631 573.273 281.144C577.01 283.67 582.776 284.355 585.787 286.468C589.659 289.192 592.144 296.467 597.358 298.498C599.039 299.149 606.549 295.989 609.173 295.508C611.672 295.055 613.982 296.054 615.982 295.733C622.529 294.663 638.565 277.032 642.199 270.876C651.222 255.619 649.951 247.643 652.434 231.565C653.18 226.758 655.427 222.18 656.163 217.683C657.361 210.321 655.015 201.67 653.254 194.471C650.945 191.291 636.462 188.53 631.549 184.32C627.879 181.179 626.637 174.537 623.329 170.612C617.966 164.258 612.387 158.158 605.023 154.76C590.371 147.995 590.59 152.377 577.815 154.101C571.352 154.974 563.008 152.258 556.8 155.328C543.878 161.728 530.529 172.517 530.109 188.16C529.968 193.463 537.41 217.071 540.745 221.221C550.653 233.588 552.444 231.076 555.32 248.3L555.302 248.302Z" fill="#5F6C37"/>
<path d="M357.186 175.728C355.033 149.581 364.304 97.9869 341.361 79.5019C332.905 72.6953 331.242 77.5149 323.966 77.0282C320.849 76.8234 318.863 75.2429 316.24 74.8516C306.014 73.3281 302.26 83.0756 295.052 83.2013C289.533 83.2959 284.084 79.5213 281.846 74.471C280.157 70.6569 278.983 53.6645 280.597 49.6761C283.591 42.2733 293.931 36.1879 294.987 28.8733C295.861 22.8647 288.486 10.0232 286.986 3.12991C283.585 -12.4413 290.616 -23.0064 300.373 -34.2522C312.17 -47.8493 315.958 -59.8176 325.401 -74.7372C336.145 -91.7103 354.679 -104.976 372.148 -114.762C383.656 -121.217 394.091 -127.91 407.097 -120.827C420.682 -113.437 420.027 -95.593 429.923 -91.2604C432.706 -90.046 438.696 -92.5615 441.874 -92.6072C446.222 -92.6863 467.618 -91.1902 470.761 -89.9058C480.264 -86.0224 487.954 -75.516 494.832 -72.4963C498.313 -70.9763 510.948 -72.7344 516.92 -69.894C522.087 -67.4324 527.596 -60.9719 532.308 -57.2179C539.597 -51.4325 544.514 -52.6407 546.426 -41.7727C548.459 -30.1968 546.013 -7.87668 544.695 4.38664C543.782 12.8802 540.017 16.038 544.188 25.5457C549.951 38.6847 565.273 43.2304 564.536 59.309C563.93 72.3767 550.27 92.3371 551.472 101.128C551.761 103.185 553.252 104.934 553.505 106.995C555.135 120.713 555.555 134.751 545.373 145.368C539.616 151.355 530.451 156.37 524.896 162.931C522.62 165.62 515.243 177.286 514.519 180.383C513.87 183.191 515.177 194.773 515.08 199.19C514.879 208.369 511.559 211.854 516.225 220.975C519.295 226.965 537.989 251.757 536.228 256.276C531.268 269.014 516.962 250.758 510.762 246.264C498.932 237.692 495.486 243.587 486.828 239.597C473.122 233.281 460.9 218.333 445.348 212.551C433.463 208.129 431.242 215.65 421.673 218.208C418.81 218.973 399.758 219.646 396.839 218.87C389.274 216.88 375.848 205.932 370.716 199.858C368.72 197.497 357.342 177.824 357.167 175.712L357.186 175.728ZM551.045 115.135C550.976 109.823 548.34 102.706 549.151 96.8117C550.977 83.4516 564.574 68.6416 558.894 53.005C554.764 41.6849 543.113 36.5708 539.11 22.9584C533.782 4.88362 548.013 -23.0874 542.339 -42.9333C539.509 -52.816 536.971 -49.9963 531.095 -54.1991C525.442 -58.2296 520.654 -64.3317 514.193 -66.9314C507.667 -69.553 497.457 -66.3964 492.125 -69.299C487.564 -71.7838 486.427 -75.2983 483.158 -77.9994C471.421 -87.7517 466.921 -85.2327 454.411 -87.2302C450.91 -87.794 447.717 -89.7924 444.379 -89.9153C440.13 -90.0716 431.929 -85.6 428.006 -87.3105C419.232 -91.1636 417.007 -104.815 410.931 -111.219C405.651 -116.78 397.511 -121.758 389.903 -119.118C372.516 -113.056 342.813 -93.3002 332.376 -78.3162C321.282 -62.3777 316.844 -46.8465 303.638 -31.4872C296.212 -22.8347 288.307 -13.2607 289.593 -0.840833C290.45 7.40571 300.318 22.4583 298.747 30.1429C297.72 35.1824 287.318 44.1365 284.308 49.377C280.274 56.4026 283.729 74.9237 291.617 78.2777C296.875 80.5138 306.319 72.73 312.626 72.0609C316.601 71.6491 321.451 74.0099 324.469 73.8957C327.541 73.777 330.556 71.0086 334.846 71.6524C339.717 72.4024 347.008 77.8876 350.075 81.6419C363.088 97.5787 362.117 135.921 362.181 156.069C362.197 160.867 360.323 175.95 361.14 178.791C361.773 180.938 373.981 200.087 375.839 201.778C378.79 204.478 389.431 212.531 392.726 214.548C394.517 215.645 396.851 216.06 398.906 216.289C400.816 216.512 418.04 215.837 419.967 215.504C429.206 213.892 434.919 204.091 447.301 208.599C458.353 212.617 473.555 227.654 484.154 234.546C493.033 240.318 497.091 235.881 504.881 238.934C512.05 241.748 521.146 250.792 528.14 255.538C531.55 257.855 533.422 256.418 532.105 252.819C529.087 244.606 518.711 232.732 514.183 224.181C508.082 212.67 511.661 209.691 511.996 197.955C512.232 189.963 510.17 180.998 513.707 173.669C514.947 171.093 520.101 162.111 521.736 160.121C529.477 150.66 540.629 146.589 547.448 134.669C548.33 133.132 551.062 117.534 551.026 115.137L551.045 115.135Z" fill="#5F6C37"/>
<path d="M760.09 86.4711C760.363 88.5483 764.209 95.4649 765.778 96.9437C767.365 98.4391 769.5 98.8527 771.039 100.207C774.376 103.166 782.34 122.785 783.565 127.901C786.059 138.339 787.767 153.651 781.317 162.795C778.854 166.3 777.157 168.422 774.579 172.4C768.427 181.846 751.209 183.585 741.474 190.166C733.899 195.285 733.79 201.958 723.096 205.091C712.208 208.295 709.618 201.737 701.518 199.646C699.232 199.054 696.053 200.946 693.325 200.936C674.691 200.837 676.973 172.049 664.995 168.69C662.175 167.897 658.131 170.769 655.757 170.857C647.395 171.196 643.681 156.687 638.964 150.461C635.881 146.39 624.788 133.221 621.113 130.781C618.314 128.931 613.754 128.528 610.326 128.077C600.613 126.82 589.29 131.25 583.322 121.883C581.795 119.482 582.565 115.719 581.664 112.975C579.631 106.772 575.232 102.292 574.376 94.7179C572.572 78.9049 588.931 67.0381 585.58 53.0536C581.341 35.3974 576.043 22.3834 579.209 3.03977C580.715 -6.19387 583.532 -8.72759 591.811 -13.133C605.618 -20.479 631.349 -12.6432 645.133 -6.91526C656.901 -2.03808 655.313 0.511814 662.946 7.4777C672.27 15.9939 700.714 8.55077 713.935 13.1801C720.395 15.4436 726.594 20.474 732.906 23.6861C738.904 26.7334 745.183 27.6848 750.926 31.8258C763.178 40.6717 765.093 55.9573 763.349 69.9923C762.808 74.3187 759.647 83.2081 760.082 86.4808L760.09 86.4711ZM779.131 133.178C778.126 127.426 772.777 109.316 769.508 104.87C768.155 103.019 764.991 102.354 762.827 100.27C749.465 87.4805 761.624 71.3354 759.738 55.9565C757.053 34.1261 744.837 34.4767 729.389 26.5507C723.455 23.5072 718.162 18.438 711.968 16.6523C698.194 12.678 670.357 20.098 660.196 10.7059C658.049 8.72057 656.897 5.58001 654.909 3.52704C648.864 -2.71612 618.338 -12.0265 609.252 -12.2993C596.43 -12.6801 583.551 -9.14737 582.184 5.81077C581.58 12.4333 582.57 30.0592 583.922 36.5921C585.288 43.1874 590.92 52.5556 590.176 58.708C588.616 71.555 573.276 83.1099 578.56 98.143C579.382 100.484 581.588 102.419 582.325 104.621C584.162 110.105 584.785 121.443 591.876 123.418C592.611 123.62 604.861 123.567 606.977 123.546C611.782 123.501 617.58 120.302 622.712 123.976C628.16 131.459 635.854 138.511 641.345 145.745C644.305 149.645 650.863 162.818 652.673 164.368C655.668 166.937 661.246 164.374 664.766 165.273C681.204 169.471 677.233 197.954 692.332 197.409C695.586 197.294 699.845 194.167 702.696 195.003C710.205 197.198 712.995 204.311 722.775 200.572C731.084 197.401 729.71 195.079 734.683 190.057C739.447 185.243 752.67 178.528 759.176 175.642C761.49 174.614 764.483 175.183 766.599 173.517C768.05 172.378 779.055 154.602 779.85 152.354C782.006 146.239 780.261 139.339 779.185 133.174L779.131 133.178Z" fill="#5F6C37"/>
<path d="M832.364 338.483C832.046 339.573 832.458 345.748 831.913 347.938C830.042 355.62 826.866 363.02 825.428 371.103C821.984 390.497 823.596 408.38 806.832 423.262C799.485 429.799 787.605 432.449 781.666 438.869C778.054 442.778 778.225 447.572 775.809 450.664C774.134 452.821 771.053 454.358 768.856 457.25C763.826 463.885 757.875 475.097 751.981 480.413C749.299 482.827 736.464 488.192 733.623 486.61C724.978 481.792 733.249 475.314 729.229 470.367C720.561 459.687 697.976 458.426 704.463 439.225C705.501 436.175 707.782 433.977 708.492 430.6C708.714 429.545 709.039 416.928 708.836 416.235C707.363 411.413 694.055 397.727 690.578 392.098C688.804 389.237 683.64 376.302 683.373 373.088C683.228 371.237 683.173 364.442 683.252 362.544C683.839 347.06 692.318 335.32 693.076 319.477C693.678 307.027 689.842 291.374 692.362 278.802C696.515 258.094 709.498 240.263 721.593 223.578C734.064 206.37 769.162 183.812 789.098 200.792C795.28 206.06 797.79 218.224 801.401 225.26C805.145 232.576 814.388 245.253 820.333 250.841C828.487 258.5 838.817 260.179 844.185 270.751C851.575 285.3 851.545 309.683 842.644 323.685C839.557 328.541 833.917 332.982 832.321 338.514L832.364 338.483ZM829.145 347.777C831.489 331.229 833.974 333.786 841.356 319.992C848.737 306.198 849.005 285.559 841.645 271.689C837.972 264.785 835.373 266.764 830.565 263.6C822.767 258.475 809.419 245.511 803.883 237.853C791.988 221.369 794.496 195.408 767.143 199.461C738.685 203.669 730.567 219.105 715.485 240.666C709.667 248.985 706.22 251.153 702.106 261.384C691.034 288.975 700.286 313.142 692.397 340.641C691.142 345.018 687.981 349.425 687.324 353.889C686.64 358.563 688.404 379.598 690.02 383.836C694.365 395.22 709.141 405.565 711.915 415.216C712.402 416.921 712.233 428.244 711.859 430.311C710.728 436.505 704.349 443.107 707.593 449.546C709.41 453.149 720.999 459.369 724.862 462.439C728.832 465.582 732.583 467.734 733.351 473.033C733.877 476.635 730.178 484.096 736.084 484.06C748.723 483.984 753.607 471.097 760.265 462.499C766.76 454.115 770.917 448.888 776.68 440.019C782.515 431.026 792.862 429.413 800.85 423.686C819.657 410.216 818.451 389.772 822.748 369.807C824.145 363.319 828.396 352.984 829.136 347.769L829.145 347.777Z" fill="#5F6C37"/>
<path d="M360.849 200.35L359.319 203.167C365.617 206.753 369.687 214.933 374.936 219.143C379.357 222.684 406.329 226.417 400.5 235.919C395.625 243.878 388.198 239.604 383.682 241.824C380.914 243.19 379.2 246.742 375.317 247.6C374.513 247.776 359.949 245.785 359.09 245.411C355.316 243.743 351.735 238.495 348.105 238.024C345.201 237.647 325.082 247.153 318.429 246.287C308.625 244.147 283.319 227.204 275.064 228.171C270.75 228.665 266.332 238.404 260.924 235.354C251.596 230.074 257.695 216.605 258.571 208.432L249.007 191.118C248.819 186.125 254.532 177.633 254.239 173.339C254.058 170.718 250.892 167.299 250.008 164.637C249.003 161.62 249.707 157.953 248.883 154.921C246.622 146.628 241.019 141.011 232.06 141.937C218.577 143.329 220.479 162.952 212.833 164.805C208.565 165.841 203.422 162.041 199.689 160.978C194.903 159.612 191.209 161.219 186.471 157.14C184.317 155.282 180.512 147.781 179.098 144.871C174.499 135.471 175.956 138.45 168.627 130.65C166.871 128.778 166.209 126.051 164.206 124.154C159.167 119.418 152.433 119.659 152.557 110.095C152.623 105.198 158.375 83.5949 160.851 79.9167C164.331 74.7553 175.886 67.869 182.026 66.3865C185.859 65.4683 187.924 67.3513 191.108 66.7233C198.334 65.2871 213.15 56.2937 221.67 53.2502C227.992 50.9981 237.029 46.7479 243.331 50.6063C257.381 59.212 268.678 74.4004 276.709 88.4691C281.668 97.1661 281.933 107.48 293.603 110.847C299.619 112.584 310.564 110.939 316.505 114.173C322.056 117.193 334.252 132.489 336.719 138.556C342.303 152.265 336.779 186.467 347.267 194.205C350.307 196.443 358.187 194.571 360.867 200.348L360.849 200.35ZM375.176 244.039C376.599 243.549 379.529 239.869 382.648 238.565C387.242 236.629 393.399 238.972 397.144 234.589L397.15 231.588C394.784 226.412 380.683 225.52 376.043 222.732C373.45 221.175 362.009 210.162 359.785 207.574C357.914 205.402 357.741 201.898 356.005 200.261C353.571 197.981 345.116 198.847 341.472 193.277C340.94 192.458 338.817 182.434 338.58 180.672C336.268 163.556 340.75 145.058 328.762 130.19C326.36 127.217 319.205 120.084 316.059 118.328C309.044 114.419 298.257 117.088 292.377 114.694C281.671 110.347 280.337 100.186 274.612 91.6794C269.821 84.5504 261.343 70.6914 255.898 65.3257C253.056 62.5164 243.755 54.2891 240.533 53.693C236.323 52.9153 215.085 58.6875 210.176 60.5405C204.712 62.6122 196.701 68.168 191.28 69.118C188.082 69.6836 185.93 67.9623 182.933 68.5475C167.336 71.6423 161.562 85.521 158.042 99.0762C156.452 105.217 153.746 112.478 159.062 117.163C164.329 121.807 175.647 129.476 179.849 134.982C181.675 137.366 182.603 144.498 184.5 148.186C190.717 160.333 193.038 154.676 202.415 157.68C205.375 158.625 207.617 161.429 211.046 161.126C216.838 154.028 218.371 145.992 225.823 139.846C234.219 132.904 248.673 142.54 251.559 151.681C252.63 155.056 251.421 158.229 251.899 160.916C252.672 165.297 256.716 170.434 256.729 174.642C256.75 178.84 252.006 188.051 252.825 191.565L262.556 209.238C260.051 216.836 256.378 225.595 261.449 233.028C266.065 232.891 268.459 228.001 272.205 226.036C282.475 220.647 307.789 242.617 321.037 241.78C326.824 241.409 347.009 233.588 349.071 234.108C352.08 234.876 355.135 239.158 358.689 240.909C359.949 241.522 374.373 244.333 375.167 244.049L375.176 244.039Z" fill="#5F6C37"/>
<path d="M282.541 245.75C290.67 244.675 301.671 255.752 309.649 258.78C320.125 262.765 330.331 262.19 340.972 263.561C344.5 264.014 352.978 267.364 355.486 265.71C361.269 261.894 361.059 260.139 369.187 258.073C378.98 255.588 379.16 258.409 386.678 259.721C390.09 260.31 395.676 256.529 398.715 258.649C399.275 259.039 405.371 268.85 405.939 270.103C413.379 286.357 404.814 314.258 411.961 323.918C417.029 330.761 422.8 337.208 428.229 343.685C431.468 347.552 434.118 354.731 431.232 359.271C421.406 374.722 416.062 364.439 404.745 359.188C396.5 355.364 387.989 353.58 380.336 346.915C364.46 351.352 343.571 351.041 331.492 338.144C324.162 330.326 323.412 320.207 318.681 312.055C313.612 303.331 307.082 307.236 299.721 302.666C290.221 296.755 290.139 294.453 285.531 286.136C281.641 279.132 278.244 273.151 274.507 266.68C272.819 263.756 270.595 257.123 272.331 254.043C274.064 250.945 278.881 246.227 282.55 245.74L282.541 245.75ZM395.4 260.324C386.118 265.576 381.497 257.651 370.881 260.296C363.854 262.052 362.261 264.984 357.23 268.547C352.801 271.697 342.863 267.395 337.469 266.706C325.38 265.183 314.349 265.899 302.912 259.422C294.947 254.91 282.793 241.666 275.731 255.26C272.707 261.093 279.479 265.803 281.508 269.871C288.033 282.983 288.208 292.432 302.609 301.217C306.373 303.514 311.452 302.392 314.905 304.023C329.344 310.842 324.979 337.212 348.282 342.523C351.534 343.262 363.946 344.286 367.27 344.146C372.261 343.922 377.122 340.401 382.193 342.125C387.713 344.012 391.133 349.41 395.866 352.326C398.558 353.984 402.942 354.338 405.964 355.805C414.411 359.885 420.494 369.871 427.944 358.098C430.211 354.528 429.273 349.907 426.737 346.854C421.09 340.041 415.113 333.52 409.883 326.372C402.461 316.244 406.885 305.368 406.83 294.191C406.768 281.733 404.467 269.343 395.382 260.325L395.4 260.324Z" fill="#5F6C37"/>
<path d="M602.217 543.354C608.629 543.394 624.703 538.605 632.257 537.178C634.136 536.822 636.104 537.75 638.293 537.286C643.777 536.122 656.864 525.781 659.87 535.713C660.132 536.573 661.003 552.754 660.793 553.735C659.703 559.107 652.728 567.504 648.646 571.216C643.887 575.547 639.163 575.475 634.352 581.575C628.061 589.56 627.19 597.468 623.129 604.387C616.693 615.339 614.439 610.526 606.912 613.706C602.987 615.368 599.488 618.549 594.625 620.089C577.025 625.669 574.774 613.438 562.582 606.742C557.125 603.749 546.618 607.276 541.225 602.206C539.972 601.028 535.942 595.081 535.733 593.544C535.379 590.928 537.79 588.974 538.125 586.555C538.414 584.449 536.536 582.524 537.61 579.807C541.251 570.669 551.931 568.128 555.867 557.175C558.805 548.986 555.956 543.031 567.58 539.712C571.309 538.639 585.797 537.309 589.34 538.26C594.352 539.616 597.043 543.338 602.208 543.364L602.217 543.354ZM637.499 541.197C636.147 541.446 633.944 540.638 631.83 541.014C624.063 542.395 600.236 548.291 594.471 545.324C592.155 544.135 590.66 541.677 588.07 540.929C585.817 540.28 567.562 542.232 565.653 543.435C558.415 548.018 560.315 558.641 556.202 565.483L539.828 578.814C538.218 582.302 541.718 585.048 541.516 587.764C541.298 590.937 537.881 592.593 540.592 596.886C546.242 605.816 554.368 600.66 562.354 603.779C571.486 607.348 574.664 615.847 585.337 617.061C597.425 618.448 602.12 610.186 610.077 608.58C614.021 607.789 615.744 612.891 620.166 604.615C623.455 598.469 624.615 588.019 629.766 580.428C634.35 573.666 642.05 572.581 647.599 567.476C659.793 556.245 656.014 551.132 656.347 536.642C653.27 533.079 642.137 540.34 637.489 541.189L637.499 541.197Z" fill="#5F6C37"/>
<path d="M89.9111 200.164C89.6843 198.965 90.5267 197.177 90.1579 195.253C88.9523 188.945 84.7612 186.202 88.3568 178.049C90.7915 172.556 103.715 158.284 109.54 156.619C115.026 155.036 126.528 159.117 131.901 153.208C140.022 144.27 140.188 141.12 153.149 136.717C154.236 136.345 162.962 134.148 163.499 134.149C170.585 134.106 178.718 147.975 182.119 153.674C187.727 163.09 201.247 188.184 195.196 198.623C190.648 206.473 177.721 204.61 170.447 208.641C160.515 214.165 153.628 224.382 142 229.411C138.078 231.109 134.051 230.889 130.905 232.086C124.473 234.547 105.44 245.745 100.071 238.228C98.4775 236.006 94.703 221.311 93.7743 217.57C92.427 212.182 90.9432 205.587 89.9111 200.164ZM124.531 159.81C120.368 160.465 112.044 158.202 108.354 160.181C106.57 161.138 100.784 165.909 99.1544 167.517C83.9897 182.493 90.6456 187.004 94.5142 203.927C96.2558 211.546 98.2717 227.287 102.037 233.547C106.814 241.486 121.189 231.784 126.946 229.624C131.072 228.082 136.625 227.848 140.232 226.067C149.671 221.401 159.728 210.158 168.705 205.622C178.076 200.898 194.344 204.566 193.778 189.65C193.414 180.008 178.787 152.851 172.387 145.401C170.696 143.433 166.872 139.741 164.647 138.781C162.789 137.98 147.602 141.741 145.394 143.061C137.425 147.813 133.969 158.299 124.53 159.792L124.531 159.81Z" fill="#5F6C37"/>
<path d="M696.037 219.8C709.786 217.877 705.608 233.914 701.043 241.111C694.701 251.118 687.252 258.846 682.868 270.527C680.946 275.632 682.148 278.614 681.18 283.485C680.29 287.986 676.531 304.342 669.991 301.458C668.661 300.869 660.933 292.865 659.712 291.294C655.354 285.674 653.776 279.033 654.836 272.091C655.342 268.776 658.45 254.201 660.011 252.417C662.047 250.112 665.694 249.372 667.787 247.535C677.694 238.868 680.347 221.994 696.036 219.782L696.037 219.8ZM670.866 298.304C679.586 291.217 676.151 276.557 679.731 268.542C682.252 262.888 687.401 254.288 690.707 248.777C695.314 241.095 704.308 234.676 701.126 223.941C684.719 221.767 681.531 239.867 672.414 248.851C669.154 252.067 664.001 253.395 662.364 256.34C660.758 259.227 661.33 263.27 660.569 266.37C659.504 270.722 656.87 273.595 657.773 278.674C659.019 285.688 666.739 292.729 670.867 298.322L670.866 298.304Z" fill="#5F6C37"/>
<path d="M558.832 316.66C559 319.118 555.758 325.287 555.992 327.45C556.161 329.054 558.623 331.44 559.284 333.594C560.117 336.297 562.916 346.474 562.847 348.597C562.544 357.758 552.264 359.848 551.465 368.187C550.906 374.042 558.491 377.594 554.636 383.059C551.302 387.79 549.595 385.623 545.846 386.998C536.934 390.247 518.49 393.096 511.96 396.784C506.228 400.005 501.589 409.826 493.287 408.152L469.9 384.758C468.241 378.351 463.104 370.678 462.498 364.256C461.52 353.892 471.498 346.191 463.6 336.248C457.164 328.146 444.862 320.014 443.668 308.477C443.387 305.755 444.525 302.924 444.357 300.129C443.667 288.651 441.696 286.26 435.622 276.719C431.032 269.492 425.068 267.296 434.1 258.71C438.718 254.327 441.555 256.646 446.776 256.785C450.976 256.9 455.058 255.807 459.71 258.084C476.728 266.416 484.069 286.178 502.35 290.124C510.217 291.816 522.855 290.194 530.622 294.403C533.858 296.153 535.885 298.893 538.672 300.48C544.466 303.808 558.246 308.173 558.84 316.65L558.832 316.66ZM552.933 379.737C553.191 378.025 546.765 372.013 548.334 366.929C550.564 359.735 559.932 357.175 560.182 349.346C560.376 343.466 554.625 333.326 553.666 328.015C552.284 320.349 559.937 317.595 551.36 310.099C548.685 307.766 532.805 298.585 529.326 297.184C516.692 292.06 503.346 296.977 490.936 289.071C477.798 280.717 475.171 268.018 457.631 260.52C453.785 258.876 439.375 258.309 436.483 260.812C435.415 261.737 432.435 266.466 432.532 267.522C432.751 269.84 442.944 283.12 444.625 287.262C448.125 295.917 444.314 307.932 447.495 314.168C453.605 326.124 468.568 331.272 468.629 347.875C468.658 354.681 464.843 358.989 466.42 366.166C470.199 383.315 474.875 384.236 486.188 395.46C489.517 398.765 491.181 403.918 495.766 406.155C501.714 403.552 505.475 396.413 510.955 393.767C518.462 390.135 530.332 389.122 538.31 387.114C541.187 386.394 552.529 382.316 552.924 379.729L552.933 379.737Z" fill="#5F6C37"/>
<path d="M351.244 382.482C361.052 383.013 372.288 383.68 382.152 386.979C388.108 388.967 394.846 391.616 394.297 399.125C381.882 406.928 371.677 399.53 359.945 398.595C351.252 397.899 336.742 402.703 329.596 399.07C326.596 397.537 324.472 394.95 320.829 393.443C308.743 388.465 293.245 408.078 284.772 404.346C281.12 402.731 278.175 397.585 274.312 396.497C270.449 395.408 264.773 401.279 260.486 394.645C257.18 389.528 260.914 387.419 262.357 383.89C264.165 379.495 257.074 368.32 257.245 362.825C257.359 358.843 263.324 349.339 263.851 344.732C264.272 341.042 259.932 337.166 265.975 332.983C273.541 327.755 281.4 332.193 286.04 338.926C292.571 348.383 294.328 353.564 305.287 360.745C311.719 364.965 321.496 363.271 328.394 366.426C336.681 370.219 343.903 382.092 351.236 382.492L351.244 382.482ZM354.426 384.673C353.344 384.562 351.95 385.951 349.596 385.401C339.167 382.967 334.949 372.127 326.293 368.273C321.186 365.997 310.295 367.301 305.64 364.888C302.172 363.076 291.601 353.891 288.76 350.763C283.848 345.362 282.614 333.892 273.65 333.891C264.169 333.888 267.633 339.372 266.578 345.06C265.686 349.861 262.725 356.352 262.333 360.502C261.749 366.605 266.803 376.457 265.229 382.897C264.475 385.968 259.998 390.958 264.351 394.006C267.42 396.151 271.864 392.409 274.846 393.725C281.036 396.465 283.796 405.5 292.126 402.144C297.526 399.969 303.818 394.283 308.558 391.817C315.347 388.299 319.843 387.371 326.699 391.447C329.415 393.058 331.774 396.734 334.746 397.488C336.529 397.94 341.75 395.461 344.36 395.153C348.206 394.716 358.942 394.07 362.414 394.491C371.267 395.574 382.108 403.091 390.775 395.472C387.098 391.587 381.384 390.207 376.29 388.966C370.52 387.572 360.045 385.233 354.434 384.663L354.426 384.673Z" fill="#5F6C37"/>
<path d="M580.228 340.6C583.131 336.26 590.218 328.781 595.231 327.619C601.831 326.089 611.864 331.429 617.327 330.33C626.446 328.482 641.533 310.485 648.732 321.65C653.428 328.932 639.475 349.535 643.65 362.806C646.34 371.346 650.76 371.579 649.311 382.707C647.499 396.684 636.472 405.445 641.598 419.555C643.437 424.62 648.865 428.142 643.205 432.666C628.696 444.27 618.511 414.445 613.568 406.801C609.532 400.564 588.339 384.534 581.623 381.937C576.467 379.938 569.738 381.006 564.781 375.399C557.147 366.77 572.854 358.43 576.14 352.566C577.795 349.62 576.274 346.519 580.211 340.62L580.228 340.6ZM645.271 383.434C645.832 380.551 647.007 379.481 646.71 376.124C645.787 365.774 635.999 361.532 639.633 348.04C640.709 344.033 651.644 321.581 642.172 320.595C640.825 320.461 624.955 332.087 618.326 333.156C611.077 334.321 599.548 327.715 593.286 331.462C589.753 333.573 581.387 341.75 580.175 345.441C579.498 347.47 580.887 351.063 579.236 353.846C576.509 358.435 568.1 362.379 566.179 368.474C565.719 371.14 570.753 375.721 572.935 376.931C575.118 378.141 577.184 376.969 579.039 377.633C586.825 380.432 610.904 397.814 615.672 404.336C622.031 413.044 627.822 438.661 643.124 428.082C638.738 420.138 635.411 413.796 638.194 404.72C640.557 397.052 643.722 391.371 645.278 383.406L645.271 383.434Z" fill="#5F6C37"/>
<path d="M640.083 454.415C641.466 454.428 644.297 451.302 646.178 450.527C656.316 446.386 667.013 450.843 671.694 460.799C675.524 468.944 670.61 477.307 677.374 485.972C681.495 491.257 688.194 492.782 693.045 496.688C703.861 505.426 694.655 522.208 683.169 514.816C678.473 511.797 676.46 506.165 670.162 503.115C668.003 502.076 643.346 495.351 640.828 495.133C638.584 494.928 630.78 495.54 628.858 496.363C622.373 499.165 609.334 510.402 602.693 508.371C596.508 506.476 590.219 493.244 594.244 487.519C595.438 485.811 597.564 485.144 598.76 483.454C599.956 481.764 600.349 478.94 601.746 477.152C606.077 471.62 614.145 469.268 618.704 465.053C623.423 460.689 625.468 451.592 633.442 451.83C636.13 451.907 638.671 454.378 640.064 454.399L640.083 454.415ZM671.349 479.309C670.869 476.267 671.723 471.451 671.017 467.646C669.671 460.531 667.443 456.68 660.729 453.01C651.873 448.164 647.165 456.718 640.729 457.38C636.376 457.823 633.137 453.637 628.612 457.158C625.649 459.468 624.219 464.032 621.204 467.237C615.598 473.184 595.928 483.825 596.094 492.729C596.164 496.196 600.57 504.811 603.979 505.683C608.631 506.869 625.89 492.037 636.273 491.848C642.754 491.728 667.121 498.677 673.081 501.709C679.364 504.896 689.755 521.987 695.283 509.411C699.656 499.448 673.396 492.256 671.368 479.325L671.349 479.309Z" fill="#5F6C37"/>
<path d="M438.71 400.184C443.6 399.624 448.902 406.328 452.616 408.802C457.445 412.001 475.833 419.428 464.605 425.869C458.157 429.559 451.038 422.859 446.699 423.701C441.938 424.606 435.642 435.71 428.773 430.498C425.377 426.381 429.484 423.512 430.116 420.506C431.178 415.445 431.22 401.06 438.712 400.202L438.71 400.184ZM465.318 420.983L439.321 403.051C431.441 407.66 433.444 414.493 432.101 421.095C431.56 423.776 427.231 427.363 432.392 428.644C437.014 429.787 441.537 421.53 446.798 420.511C452.819 419.348 459.88 429.17 465.318 420.983Z" fill="#5F6C37"/>
<path d="M569.702 187.874C574.112 182.744 577.379 184.655 581.698 182.805C584.016 181.813 585.527 179.651 588.155 178.788C589.81 178.241 607.028 180.111 608.687 180.828C616.778 184.338 619.062 195.202 625.51 201.367C630.458 206.11 640.126 210.216 643.716 215.69C646.527 219.984 644.984 254.383 642.89 260.266C640.49 267.047 632.426 280.833 627.202 285.576C617.809 294.092 600.488 294.148 592.305 284.065C590.372 281.689 584.148 269.788 582.986 266.739C580.791 261.004 582.713 248.127 580.326 243.571C577.723 238.614 571.125 236.117 568.028 231.765C565.331 227.971 567.039 219.748 565.646 216.873C562.279 209.925 553.634 210.916 561.3 199.125C563.153 196.263 567.494 190.403 569.69 187.848L569.702 187.874ZM561.766 207.041C562.073 208.324 566.596 212.439 567.88 215.205C569.75 219.223 568.344 226.157 570.38 229.324C573.43 234.089 580.684 236.823 583.19 241.833C586.43 248.336 583.81 259.48 585.724 265.012C586.752 267.981 593.64 280.763 595.693 283.038C598.448 286.109 599.895 287.552 604.031 288.318C628.381 292.769 641.04 263.819 642.434 243.714C642.772 238.913 642.81 223.938 642.096 219.607C641.097 213.49 627.618 206.946 622.486 201.627C617.395 196.359 615.249 187.492 609.713 183.761C607.488 182.264 590.818 180.203 588.335 181.173C586.336 181.948 584.738 184.053 582.612 184.938C580.125 185.972 575.101 186.335 573.723 187.585C572.801 188.416 565.567 198.626 564.415 200.403C563.771 201.402 561.59 206.337 561.766 207.041Z" fill="#5F6C37"/>
<path d="M509.995 62.7199C510.001 63.883 511.065 65.3218 511.012 66.7535C510.25 86.9247 516.151 99.525 510.175 120.402C504.51 140.198 488.085 144.707 485.45 167.707C484.42 176.655 492.656 191.216 494.082 200.179C494.881 205.203 495.922 211.508 488.921 210.28C481.873 209.047 467.266 191.761 459.782 186.364C436.743 169.778 401.834 187.394 389 148.543C381.996 127.353 392.877 107.76 392.006 87.1971C391.711 80.1311 389.45 64.4015 387.921 57.3653C387.33 54.6326 386.368 50.9309 384.953 48.5576C381.888 43.3942 367.387 31.8716 361.65 31.2115C353.013 30.2105 347.457 37.7442 340.464 39.4611C337.747 40.1321 328.494 40.255 326.07 39.1927C319.249 36.2046 323.301 31.5775 323.492 26.871C323.571 24.9736 321.901 23.3579 322.685 19.7748C324.435 11.839 329.794 9.81234 331.709 5.5081C332.352 4.0548 332.203 -14.0501 333.064 -18.794C338.742 -50.1456 367.147 -78.757 400.047 -78.6161C410.05 -78.5739 437.582 -72.8057 445.546 -67.4399C451.68 -63.304 455.617 -51.3588 459.77 -49.2856C463.034 -47.6476 466.646 -49.7929 469.593 -49.6648C474.931 -49.4262 490.091 -46.176 494.288 -43.3611C502.982 -37.5105 498.748 -21.7235 502.55 -12.4942C506.796 -2.20182 516.906 4.27656 519.636 17.0128C520.289 20.0675 521.821 37.9666 521.221 40.2618C519.39 47.3406 509.935 54.2253 509.984 62.6936L509.995 62.7199ZM395.44 -75.0974C367.84 -71.9422 338.833 -46.426 335.917 -18.2582C335.341 -12.7197 337.402 0.390232 336.075 5.10919C334.855 9.4648 326.829 15.4945 324.972 21.812C325.597 32.5141 321.237 37.2667 335.653 36.0426C347.19 35.0666 356.79 21.6066 369.811 29.5431C373.402 31.7267 384.001 40.7007 386.756 43.8899C394.609 52.9556 395.072 98.3874 393.827 111.199C392.471 125.093 386.47 132.3 392.163 147.544C406.353 185.546 438.118 168.055 462.789 186.124C470.291 191.619 477.296 201.109 484.022 205.578C485.716 206.71 487.355 207.628 489.483 207.415C496.241 201.218 488.967 194.304 486.859 188.725C483.816 180.66 481.793 172.819 482.596 164.098C484.327 145.201 502.547 135.162 507.896 117.582C509.167 113.404 511.288 99.756 511.112 95.4436C510.73 86.5757 504.901 80.851 505.438 71.7706C506.293 57.4367 509.879 54.43 516.173 42.9717C518.478 38.7623 516.458 13.4496 514.06 9.20343C510.63 3.14313 503.257 -4.86238 500.13 -10.7661C495.698 -19.1522 498.68 -36.3352 492.259 -41.0836C490.4 -42.4564 476.867 -47.2326 474.298 -47.6283C468.48 -48.5088 462.096 -45.2517 456.208 -46.6446C453.541 -47.8957 448.799 -57.6015 445.905 -60.5883C438.015 -68.6963 407.03 -76.4142 395.45 -75.0891L395.44 -75.0974Z" fill="#5F6C37"/>
<path d="M730.318 169.339C725.184 170.129 719.523 179.134 714.419 181.613C714.018 181.81 705.8 182.574 705.376 182.4C692.527 176.976 694.467 157.316 686.21 151.147C678.486 145.38 665.761 156.463 654.412 141.634C644.96 129.283 641.041 111.209 623.016 108.151C619.087 107.478 611.317 110.132 607.961 108.901C603.516 107.27 597.545 97.6486 596.36 92.9018C594.165 84.1936 601.031 76.2421 603.181 68.1913C604.359 63.7665 605.34 41.868 603.916 37.9592C600.842 29.5149 593.599 25.4802 597.916 15.0677C600.074 9.86154 603.84 4.85819 609.872 4.25741C617.355 3.50887 636.904 11.8853 642.58 16.641C647.856 21.0572 654.027 34.0714 657.731 36.2001C663.45 39.4978 677.124 35.3627 683.345 35.0734C687.718 34.8649 705.833 40.0968 711.075 41.916C722.064 45.7307 734.81 53.5174 734.944 66.3055C735.068 77.7583 730.127 90.5133 737.127 101.577C744.116 112.614 756.263 112.424 761.368 126.717C764.495 135.475 761.774 135.22 761.175 142.569C760.209 154.476 763.555 157.88 751.562 166.057C741.721 172.783 738.151 168.097 730.343 169.309L730.318 169.339ZM728.374 89.868C726.868 72.7122 738.001 62.0611 719.238 49.6833C710.139 43.6754 684.144 39.4432 673.215 40.5142C663.278 41.4846 660.609 47.3332 651.347 36.2847C644.495 28.0995 646.623 23.2868 634.198 15.7552C626.57 11.1433 603.084 4.18463 601.252 17.8088C600.251 25.237 605.345 30.3227 607.031 36.937C608.272 41.8155 608.561 61.9359 607.822 67.0515C606.017 79.4734 593.659 87.4082 603.869 100.569C610.903 109.63 613.232 103.528 621.954 104.449C641.983 106.567 647.005 124.786 656.9 138.418C665.592 150.378 669.101 144.787 680.551 145.836C700.135 147.628 693.449 176.263 708.78 177.963C717.415 178.928 721.91 164.419 734.749 163.589C738.05 163.379 741.256 165.103 744.586 163.927C748.481 162.558 755.175 157.566 756.486 153.539C757.799 149.531 758.353 132.004 756.746 127.874C750.447 111.679 730.514 114.225 728.374 89.868Z" fill="#5F6C37"/>
<path d="M752.908 459.374C751.535 459.488 746.512 456.023 745.413 454.723C742.429 451.19 742.308 441.636 740.313 438.52C737.628 434.316 731.561 431.311 728.133 427.469C721.827 420.384 726.931 412.115 727.306 404.157C728.166 385.714 710.638 364.461 710.924 347.429C711.057 339.5 716.382 313.642 718.636 305.309C721.23 295.722 727.047 287.603 730.777 278.657C738.311 260.578 738.065 236.364 760.625 229.882C767.088 228.018 775.453 233.069 780.822 236.977C791.04 244.419 790.09 250.716 795.273 260.476C796.899 263.532 803.464 275.922 804.917 277.774C809.839 284.056 821.698 290.471 824.226 298.806C825.164 301.883 822.356 317.551 821.01 320.945C818.284 327.853 813.366 335.188 811.214 342.884C806.255 360.677 808.836 379.716 800.209 398.868C791.896 417.33 779.183 420.449 769.887 433.074C765.901 438.496 759.347 458.866 752.891 459.393L752.908 459.374ZM818.575 308.693C818.691 307.465 820.316 306.239 820.472 304.39C821.31 294.558 806.746 284.358 801.424 277.301C793.751 267.111 787.28 245.013 778.61 237.706C774.406 234.146 764.672 231.109 759.393 233.22C740.65 240.685 741.824 260.077 735.663 275.206C732.476 283.034 726.868 291.027 723.77 298.829C721.513 304.489 712.944 344.053 713.372 349.099C714.636 364.22 730.099 385.671 730.458 402.377C730.573 407.813 726.695 417.707 728.527 422.145C730.908 427.938 739.044 431.117 742.754 436.054C745.626 439.879 744.775 450.658 749.751 453.981C751.359 455.057 754.367 456.262 755.83 454.613C759.905 450.039 763.894 434.581 768.797 427.838C774.043 420.612 784.196 417.642 789.216 409.571C804.302 385.328 802.012 365.847 808.263 340.838C811.572 327.592 817.168 323.936 818.593 308.692L818.575 308.693Z" fill="#5F6C37"/>
<path d="M280.119 143.984C273.015 144.583 260.261 129.588 254.182 126.874C249.377 124.737 242.291 132.116 236.136 127.727C233.653 125.961 233.618 123.246 229.636 122.14C228.138 121.728 219.183 123.144 217.679 123.969C214.74 125.577 214.961 128.131 211.484 130.156C196.026 139.193 189.667 111.214 185.744 101.295C184.281 97.589 179.182 91.4583 181.386 87.3482C183.59 83.2381 197.69 86.9672 201.702 85.4796C204.896 84.3054 208.168 79.9249 211.619 77.693C218.867 73.0187 241.124 70.8799 248.472 75.8422C249.763 76.7168 256.061 82.0663 257.158 83.2297C265.554 92.1685 262.351 104.279 270.139 114.65C274.789 120.837 287.234 128.839 286.692 136.656C286.441 140.304 283.926 143.631 280.098 143.949L280.119 143.984ZM185.018 88.9465L184.1 91.0227C190.955 99.7984 193.218 123.655 203.748 128.189C208.792 130.361 213.255 121.7 218.148 119.867C219.523 119.353 227.244 118.739 228.644 119.068C233.742 120.245 235.69 125.101 240.539 126.016C244.87 126.829 249.834 121.699 253.128 123.162C259.621 126.577 274.671 139.891 281.52 137.968C290.278 135.495 276.746 126.674 274.344 124.137C265.744 115.042 263.846 112.209 260.383 100.397C259.659 97.9212 259.573 91.8379 258.339 90.0041C257.239 88.3682 244.014 75.7942 242.325 75.0527C239.816 73.952 223.145 76.1542 219.888 77.3246C211.686 80.2509 210.066 84.5034 204.259 88.9035C200.967 91.404 189.36 90.0041 185.018 88.9465Z" fill="#5F6C37"/>
<path d="M284.605 170.664C285.668 170.321 292.939 174.027 295.085 174.367C303.015 175.608 310.016 167.854 319.261 174.641C323.957 178.096 341.419 201.409 344.645 207.313C346.992 211.6 349.048 215.238 344.888 219.438C342.767 221.587 337.327 215.957 333.926 215.176C325.575 213.242 305.523 219.834 299.956 215.624C292.991 210.348 288.138 198.433 285.386 190.362C283.98 186.233 278.418 172.678 284.597 170.674L284.605 170.664ZM344.68 212.983L317.946 176.432C315.603 175.254 312.811 174.586 310.198 174.639C306.07 174.736 299.172 178.045 296.158 178.095C292.972 178.151 287.593 173.361 285.382 175.972C283.172 178.583 288.286 186.858 289.331 190.025C291.986 198.032 291.878 202.64 298.405 209.644C306.218 218.022 308.574 213.335 317.12 212.58C325.648 211.827 334.327 211.47 342.223 215.15L344.671 212.993L344.68 212.983Z" fill="#5F6C37"/>
<path d="M581.804 597.182C578.639 597.054 576.961 594.039 574.313 593.341C572.139 592.776 568.083 595.822 564.708 595.684C556.09 595.354 545.387 583.707 551.673 575.549C555.349 570.771 558.809 571.602 562.529 569.548C569.162 565.897 572.568 561.596 581.315 559.652C596.302 556.326 603.507 583.763 594.625 592.072C592.785 593.789 584.175 597.276 581.794 597.174L581.804 597.182ZM553.072 582.659C553.62 587.168 561.163 593.823 566.014 593.348C568.404 593.122 571.357 590.586 574.118 590.993C577.403 591.475 578.176 594.329 581.937 594.289C582.463 594.282 589.551 592.276 590.063 591.988C599.17 586.823 594.236 562.097 583.13 563.119C582.002 563.222 573.603 566.401 572.146 567.131C569.081 568.649 566.981 571.387 564.306 572.664C560.643 574.431 558.26 571.675 554.941 576.805C554.32 577.756 552.964 581.678 553.082 582.668L553.072 582.659Z" fill="#5F6C37"/>
<path d="M624.48 557.504C628.729 549.77 645.788 536.145 651.313 548.495C654.651 555.972 635.181 570.006 629.071 571.295C621.709 572.852 621.962 562.104 624.49 557.513L624.48 557.504ZM646.238 546.498C643.132 548.065 640.342 546.761 636.964 548.332C631.72 550.758 622.538 560.829 627.115 566.349C628.428 567.931 632.804 564.249 635.333 565.366C640.853 560.254 652.867 555.066 646.238 546.498Z" fill="#5F6C37"/>
<path d="M103.828 189.2C103.636 186.989 101.273 183.495 101.803 181.442C102.332 179.389 106.862 174.058 108.646 172.883C111.464 171.022 121.046 172.89 127.131 168.439C134.39 163.137 141.487 157.194 150.022 153.458C155.013 151.271 160.582 152.545 165.542 149.66C168.599 149.361 173.01 153.331 174.731 155.779C175.411 156.74 183.551 176.491 183.774 177.654C186.023 189.512 165.904 190.037 158.71 194.489C147.618 201.364 147.967 207.871 141.549 214.222C140.265 215.501 124.362 225.421 122.144 226.514C117.386 228.882 111.886 227.011 108.359 223.186C107.84 222.629 102.49 210.629 102.072 209.318C100.525 204.483 104.413 196.024 103.809 189.184L103.828 189.2ZM161.705 153.26C147.213 153.782 136.438 166.349 125.199 172.327C120.41 174.87 109.357 173.888 106.822 177.952C105.619 179.889 106.827 203.86 106.237 208.245C107.871 213.691 112.73 228.968 120.569 225.617C121.807 225.087 138.183 214.628 139.205 213.68C146.014 207.342 146.674 200.179 157.118 193.376C163.871 188.988 182.702 188.715 180.67 177.93C180.471 176.837 172.509 158.463 171.878 157.543C169.19 153.639 166.065 153.108 161.705 153.26Z" fill="#5F6C37"/>
<path d="M684.816 239.14L687.474 241.474L687.615 243.725C683.806 248.978 678.579 254.893 675.559 260.562C671.667 267.876 678.251 277.328 665.945 280.205C656.829 262.599 672.863 249.986 684.807 239.132L684.816 239.14ZM674.537 256.138C677.131 251.905 682.301 247.821 685.184 243.564L678.413 248.289C669.923 256.948 663.878 265.377 666.565 277.926C668.035 279.758 668.493 278.148 669.537 276.934C673.78 271.982 670.29 263.117 674.547 256.146L674.537 256.138Z" fill="#5F6C37"/>
<path d="M469.904 313.853C471.553 310.061 478.778 302.698 482.92 301.454C495.389 297.692 500.514 309.939 509.636 314.372C519.706 319.272 537.747 311.447 544.834 324.985C548.876 332.722 541.208 339.994 539.813 346.519C538.788 351.358 541.612 353.951 538.135 359.485C528.783 374.397 514.914 376.621 498.869 375.526C495.189 372.259 491.075 369.346 487.528 365.941C485.513 363.999 479.814 358.1 478.785 356.104C477.103 352.816 479.009 349.277 478.31 346.335C477.591 343.258 474.249 340.127 473.863 336.895C473.505 334.007 475.622 331.368 475.274 328.488C474.791 324.537 468.545 316.965 469.895 313.844L469.904 313.853ZM472.99 315.105C472.002 317.66 476.392 324.55 476.819 327.614C477.244 330.642 475.368 334.543 476.129 337.471C476.852 340.265 479.272 342.046 480.28 344.662C481.24 347.137 480.33 350.849 481.235 352.873C482.655 356.073 493.204 368.497 496.2 370.53C507.401 378.099 527.157 368.723 533.73 358.323C536.333 354.198 535.034 348.734 536.257 344.532C538.411 337.19 547.687 329.784 539.085 323.19C528.502 315.069 516.679 323.323 505.186 315.405C499.652 311.592 494.062 303.066 486.906 304.242C482.707 304.917 474.477 311.228 472.971 315.089L472.99 315.105Z" fill="#5F6C37"/>
<path d="M459.35 290.966C457.601 285.121 453.67 280.365 451.962 274.571C452.631 272.016 463.582 270.779 466.133 271.831C473.531 274.871 472.402 279.892 474.509 285.553C476.437 290.711 482.4 293.779 474.42 298.723C468.359 302.472 460.738 302.65 458.905 294.366C458.648 293.242 459.564 291.685 459.341 290.976L459.35 290.966ZM462.798 290.68C458.981 299.669 470.854 300.556 474.799 293.874L467.267 275.628C464.895 272.679 457.67 275.443 454.863 276.994L461.853 288.486L461.429 279.112C472.328 279.107 473.4 302.862 462.78 290.681L462.798 290.68ZM467.409 291.797C470.698 291.778 464.838 281.193 462.731 280.886C462.074 283.049 465.437 291.806 467.409 291.797Z" fill="#5F6C37"/>
<path d="M291.858 357.971C295.585 358.625 297.505 366.747 299.99 368.649C301.426 369.748 303.641 369.055 305.298 369.736C309.758 371.565 320.419 375.371 314.671 381.684C310.047 386.75 306.783 383.13 302.686 383.606C298.662 384.077 289.449 391.805 286.599 389.442C285.446 388.483 285.336 386.274 284.371 385.054C281.276 381.175 276.704 378.228 277.717 372.035C278.525 367.095 286.711 357.071 291.894 357.967L291.858 357.971ZM312.37 377.839C309.339 373.191 301.982 374.247 298.622 371.89C295.263 369.533 292.869 362.268 291.106 361.833C287.913 361.043 280.581 369.843 279.865 372.611C278.506 377.923 287.362 383.306 288.325 388.117C292.159 385.353 299.485 379.872 304.226 379.706C307.217 379.603 309.641 382.965 312.37 377.839Z" fill="#5F6C37"/>
<path d="M589.352 362.024C592.352 355.129 606.236 355.604 613.105 352.052C617.916 349.562 632.401 334.832 632.447 348.637C632.482 357.261 629.146 359.892 626.304 366.501C622.889 374.42 630.88 395.892 627.524 398.607C618.188 400.791 615.141 396.399 611.37 388.858C609.845 385.821 608.128 378.173 606.537 376.523C603.076 372.938 593.759 376.23 589.587 368.031C589.132 367.142 588.934 363.013 589.37 362.022L589.352 362.024ZM628.04 345.812C626.294 345.475 614.102 355.196 610.472 356.807C605.633 358.954 593.061 358.734 592.339 364.603C594.228 374.545 604.291 370.274 608.929 375.443C613.896 380.957 613.345 399.293 625.767 395.944C626.719 394.819 620.241 374.058 623.28 366.761C624.28 364.351 635.488 347.266 628.032 345.822L628.04 345.812Z" fill="#5F6C37"/>
<path d="M626.589 473.407C630.48 473.193 642.431 472.719 645.17 474.4C650.056 477.413 651.074 480.692 646.826 484.817C642.915 488.623 632.709 487.234 627.505 489.039C620.781 491.37 616.78 498.911 610.158 498.206C600.143 497.147 597.836 490.057 605.105 482.899C611.004 477.083 618.661 473.829 626.589 473.407ZM635.128 476.407C621.824 476.021 612.786 476.426 604.043 488.278C609.79 504.727 617.9 490.073 626.579 486.862C633.299 484.376 641.516 488.53 646.26 481.837L645.397 477.245C643.223 475.035 637.99 476.496 635.146 476.405L635.128 476.407Z" fill="#5F6C37"/>
<path d="M446.886 417.413C446.496 417.536 445.574 416.94 444.857 417.172C442.89 417.79 440.634 421.05 438.346 419.113C433.854 408.914 447.217 405.086 449.488 415.906C449.555 417.037 447.738 417.16 446.896 417.421L446.886 417.413Z" fill="#5F6C37"/>
<path d="M618.472 275.901L600.555 265.28C594.762 260.543 594.228 254.433 592.545 247.855C592.233 246.618 592.947 244.922 592.533 243.329C591.144 237.872 586.296 232.475 585.416 225.821C584.119 216.111 589.111 202.661 600.872 204.93C611.153 211.721 623.899 212.727 629 225.221C631.659 231.736 628.72 239.034 629.154 245.579C629.43 249.774 632.751 257.589 631.561 261.215C630.525 264.383 621.424 275.647 618.463 275.893L618.472 275.901ZM618.219 272.849C621.972 272.938 628.208 265.711 629.384 262.141C630.779 257.917 627.186 250.343 626.842 245.753C626.175 236.845 631.221 229.2 623.959 221.103C619.971 216.653 607.099 210.303 601.173 208.559C592.404 205.969 588.117 217.516 588.882 224.761C589.532 230.834 593.86 235.656 595.424 240.808C597.463 247.52 595.356 256.412 601.846 262.21C606.546 263.637 614.155 272.732 618.2 272.833L618.219 272.849Z" fill="#5F6C37"/>
<path d="M390.584 -42.5968C395.139 -43.1385 419.253 -43.1681 422.705 -41.9911C429.609 -39.6372 436.558 -30.1783 444.96 -28.4033C450.372 -27.2619 459.148 -30.7267 464.622 -27.8541C471.541 -24.2288 474.274 -18.5742 478.759 -13.5014C485.422 -5.94594 494.678 4.25768 500.127 12.632C510.955 29.2866 501.793 40.465 501.054 56.3073C500.823 61.2989 503.248 65.9882 502.912 71.2431C502.551 77.0818 499.655 83.0401 498.772 88.9404C496.974 100.898 498.77 101.394 492.592 113.589C486.89 124.843 487.136 127.25 483.253 137.744C480.313 145.697 469.979 155.464 471.546 163.606C472.188 166.953 479.85 180.188 473.087 182.386C465.511 184.851 459.423 165.076 451.001 162.176C441.782 158.987 443.876 159.131 435.975 153.751C429.915 149.627 420.036 146.92 421.047 136.864C421.613 131.199 423.791 124.482 423.255 118.573C422.862 114.16 420.157 113.012 422.006 107.359C425.102 97.8932 429.171 94.3555 427.067 82.8036C425.448 73.9294 420.297 72.7572 418.295 66.9328C417.145 63.5921 418.924 57.2084 417.655 52.6594C416.1 47.0616 411.61 42.471 409.895 36.7046C408.712 32.7485 409.284 26.5014 408.335 23.0622C406.338 15.7647 398.986 3.31218 392.932 -1.1758C384.756 -7.24207 374.175 4.36314 368.85 -9.29402C372.626 -26.7793 368.656 -39.9944 390.594 -42.5885L390.584 -42.5968ZM458.391 -25.6095C452.277 -26.4382 452.298 -25.3128 447.482 -25.1765C437.742 -24.8951 430.263 -34.9372 422.287 -37.8294C420.787 -38.3775 392.436 -40.3234 390.417 -40.1194C381.691 -39.2313 376.682 -34.3066 374.509 -25.9902C374.103 -24.4202 372.246 -10.7668 372.438 -9.98281C374.752 -0.402696 386.216 -9.69947 392.521 -5.68688C400.448 -0.654388 407.735 11.8944 410.331 20.8239C411.53 24.9786 411.418 30.7421 412.75 34.9586C414.73 41.1847 420.381 48.706 421.525 54.5926C422.099 57.5629 420.634 62.5843 421.979 65.8724C425.084 73.4869 430.22 73.8059 431.035 85.4921C431.886 97.7117 426.177 102.195 424.918 110.899C424.331 115.002 424.095 136.575 425.05 140.304C427.789 151.067 431.56 147.427 438.033 151.38C440.619 152.965 442.509 155.59 445.301 157.131C448.179 158.728 452.181 157.987 455.433 160.371C461.365 164.706 463.189 176.272 471.708 179.792C474.445 172.238 467.132 167.372 468.328 159.337C468.499 158.223 471.587 147.458 471.923 146.903C473.608 144.1 476.662 143.764 478.601 139.631C481.328 133.832 480.905 126.44 483.066 121.152C484.835 116.842 488.032 113.74 490.031 110.01C495.828 99.2389 493.577 91.9444 495.802 80.8692C496.512 77.3741 498.833 74.2361 499.174 70.7808C499.574 66.6205 496.818 60.3588 497.262 55.0949C498.599 39.4393 507.105 27.1519 494.675 11.5575C492.594 8.93956 486.251 0.530325 484.611 -1.04254C482.546 -3.02556 479.734 -3.51014 477.294 -6.6165C471.715 -13.7074 475.178 -21.2672 461.751 -25.7522C459.75 -26.4224 459.199 -25.513 458.399 -25.6193L458.391 -25.6095Z" fill="#5F6C37"/>
<path d="M634.196 67.0697C635.113 65.1937 637.233 64.8904 638.998 64.4711C651.022 61.5911 660.801 76.2329 669.793 81.177C675.24 84.1608 682.953 80.7025 688.753 82.4572C702.383 86.5615 702.335 107.219 709.225 115.974C713.289 121.127 727.144 129.903 720.538 137.706C719.089 139.417 717.602 140.004 715.431 140.248C700.504 141.878 687.238 113.59 675.61 105.911C665.529 99.2391 650.067 106.695 641.635 91.4143C640.202 88.8244 633.318 68.8608 634.179 67.0893L634.196 67.0697ZM639.512 70.4463C642.601 81.1529 643.944 90.6499 653.786 97.2869C658.812 100.669 662.217 98.7686 667.436 99.9807C686.548 104.412 690.435 123.415 705.1 133.733C709.078 136.53 719.417 140.953 718.654 132.535C718.188 127.356 709.495 122.951 706.008 118.504C699.438 110.105 698.44 88.0071 686.07 86.2797C678.244 85.1932 673.412 90.0668 664.772 84.2118C657.49 79.2713 649.198 66.8787 639.512 70.4463Z" fill="#5F6C37"/>
<path d="M760.447 260.268C762.66 256.366 772.096 250.137 776.786 252.093C786.503 256.141 785.192 268.158 789.272 276.028C793.179 283.549 799.845 288.404 800.998 297.689C802.137 306.813 797.568 312.983 795.829 321.499C795.188 324.616 796.064 326.952 795.041 330.619C792.258 340.667 784.038 348.413 781.385 356.642C778.985 364.095 780.302 377.213 777.241 384.139C773.109 393.5 763.613 400.333 758.223 409.099C755.468 413.582 759.391 417.038 754.701 421.527C747.435 428.502 744.954 410.119 746.772 404.759C749.19 397.64 751.873 393.381 750.084 384.867C748.579 377.683 741.392 367.871 738.661 360.926C734.849 351.252 737.909 335.662 742.515 326.653C744.892 322.001 748.749 319.29 750.637 314.661C751.694 312.064 756.201 288.619 757.042 283.958C758.165 277.774 757.62 265.193 760.426 260.233L760.447 260.268ZM752.002 421.324C755.602 418.479 753.895 413.794 755.208 410.122C758.775 400.199 769.985 393.205 774.245 384.406C778.001 376.658 776.404 360.046 779.846 353.006C781.735 349.15 785.013 346.805 787.225 343.34C792.943 334.365 792.784 325.988 794.681 316.313C796.092 309.114 799.398 304.813 797.902 296.428C796.562 288.931 790.232 283.757 786.86 276.974C783.236 269.675 780.986 248.699 768.139 256.893C758.064 263.32 760.92 274.718 759.163 284.546C757.144 295.813 754.71 312.923 749.246 322.331C747.703 324.986 744.991 326.802 743.604 329.59C743.199 330.405 739.901 345.542 739.671 347.261C737.936 360.077 751.902 376.216 753.438 388.361C755.023 400.883 743.847 410.256 751.999 421.287L752.002 421.324Z" fill="#5F6C37"/>
<path d="M247.079 109.429C243.944 107.262 241.155 103.557 237.772 101.902C235.413 100.743 214.25 105.118 220.604 94.6005C223.721 89.451 234.043 86.2214 239.799 89.6342C243.834 92.0264 253.289 108.795 247.079 109.429ZM226.976 94.8259C225.885 95.0437 223.917 93.3436 222.89 95.2106C224.125 103.726 232.089 97.6103 237.581 99.7087L246.679 104.944C241.73 101.828 243.389 95.4267 238.545 92.4837C232.752 88.9557 230.437 94.1295 226.976 94.8259Z" fill="#5F6C37"/>
<path d="M304.831 191.786C305.701 190.541 312.494 188.822 314.278 189.61C316.826 190.744 324.494 197.589 323.31 200.633C320.764 207.189 317.233 202.101 313.727 201.046C310.565 200.082 308.607 202.771 306.011 198.324C305.512 197.465 304.345 192.499 304.833 191.804L304.831 191.786ZM311.816 191.606C309.591 191.299 306.834 195.646 308.217 198.077C313.307 196.427 315.932 200.445 320.491 200.83C321.84 199.236 313.021 191.769 311.826 191.614L311.816 191.606Z" fill="#5F6C37"/>
<path d="M566.573 579.603C567.842 576.716 572.75 577.363 575.167 576.253C579.02 574.479 581.989 569.187 586.668 572.762C591.164 579.843 585.705 588.214 577.645 587.919C574.717 587.808 564.746 583.763 566.573 579.603ZM583.662 574.111L569.858 580.521C576.516 588.122 590.952 583.742 583.662 574.111Z" fill="#5F6C37"/>
<path d="M641.533 553.443L633.649 561.289C624.662 558.48 637.077 546.632 641.533 553.443Z" fill="#5F6C37"/>
<path d="M495.306 346.07C483.296 327.659 516.153 308.441 524.095 335.007C526.575 343.301 527.471 355.308 516.2 356.843C510.698 357.591 511.281 354.979 508.397 353.628C503.488 351.335 501.417 353.98 495.779 347.93C494.642 346.716 495.358 346.147 495.306 346.07C496.844 350.36 505.503 350.305 508.941 351.319C513.714 352.741 515.163 357.393 521.084 351.511C526.475 346.154 521.061 326.278 512.701 323.899C506.342 322.091 493.457 332.551 494.362 339.73C494.557 341.323 495.652 342.905 496.204 344.513C496.384 345.035 495.281 345.981 495.314 346.06L495.306 346.07Z" fill="#5F6C37"/>
<path d="M619.596 362.148L613.671 372.458L605.948 366.708C604.787 362.032 619.017 358.569 619.596 362.148Z" fill="#5F6C37"/>
<path d="M615.149 481.029L619.128 484.398C617.063 487.551 614.522 492.198 609.87 491.348L607.792 486.466L615.149 481.029Z" fill="#5F6C37"/>
<path d="M621.926 232.225C622.319 233.902 620.417 239.023 620.622 241.378C621.337 249.437 631.071 256.101 623.208 264.199C615.495 272.139 614.309 261.247 611.199 257.624C608.703 254.722 604.692 252.501 601.969 249.709C602.984 248.133 604.453 250.502 605.474 251.299C610.778 255.404 614.24 258.889 617.749 264.579C630.528 260.173 619.848 249.788 619.055 241.881C618.477 236.121 623.422 228.019 612.607 228.381C607.362 231.007 607.884 234.891 605.619 238.479C604.484 240.255 601.679 240.851 601.49 243.712L599.055 241.651C603.554 237.923 605.778 229.23 611.006 226.723C614.844 224.886 620.981 228.068 621.942 232.206L621.926 232.225Z" fill="#5F6C37"/>
<path d="M469.926 86.1721L484.216 76.5316C487.061 76.2045 491.097 81.5691 492.043 84.1995C487.487 91.1865 486.562 99.7537 482.896 106.84C480.404 111.646 476.042 115.826 474.213 119.633C472.057 124.102 474.643 132.151 470.305 139.574C454.008 167.408 443.125 127.641 445.713 113.699C446.378 110.099 453.513 87.5348 455.144 85.8268C458.9 81.9061 466.266 82.049 469.926 86.1721ZM484.444 79.1761L471.294 88.9584C467.781 90.2318 463.829 82.3695 457.598 87.9047C453.967 91.1424 449.796 107.252 448.874 112.682C447.407 121.295 450.518 143.435 459.527 147.05C463.1 148.481 468.007 138.82 469.191 135.894C471.59 129.968 469.835 122.305 472.122 117.543C473.936 113.774 477.362 110.917 479.682 107.106C482.856 101.87 483.292 96.28 485.318 90.7938C487.272 85.5319 490.898 84.8582 484.454 79.1844L484.444 79.1761Z" fill="#5F6C37"/>
<path d="M426.452 -0.158729C429.075 -6.23073 434.217 -2.54878 438.04 -2.70259C441.456 -2.8317 444.452 -5.51659 448.468 -4.33195C451.803 -3.35441 458.076 1.78817 460.211 4.61984C463.122 8.47791 463.094 30.479 461.424 35.4446C457.642 46.7126 446.43 42.5075 440.12 35.7045C431.903 26.8508 432.718 21.8834 430.105 11.6464C429.285 8.45105 425.252 2.68621 426.48 -0.151955L426.452 -0.158729ZM458.861 17.9311C458.235 7.64735 458.644 3.71354 447.213 -1.16429C444.399 0.414744 430.914 -0.829188 429.952 0.286976C427.57 3.02097 432.246 7.76883 432.904 10.6595C433.398 12.7729 432.383 14.7843 432.905 16.6864C435.374 25.6263 439.939 38.1194 450.577 39.3542C461.317 40.6078 459.3 25.1852 458.852 17.9228L458.861 17.9311Z" fill="#5F6C37"/>
<path d="M763.197 365.316C771.051 364.545 767.867 355.319 768.44 350.181C770.656 330.335 794.212 317.779 786.722 293.593C785.591 289.933 777.461 269.855 774.137 270.112C770.14 275.289 765.229 283.151 763.564 289.48C759.929 303.29 766.438 316.758 764.204 330.916C763.792 333.504 762.222 335.953 761.783 338.653C760.312 347.647 763.871 355.26 762.707 364.229L760.262 362.159C760.693 354.315 758.294 347.651 759.3 339.622C759.949 334.414 762.194 329.583 762.453 324.28C763.011 312.934 756.066 304.284 759.832 292.817C762.263 285.425 767.39 278.518 769.369 270.826C772.937 266.276 777.74 267.522 780.785 272.233C785.04 278.807 791.327 296.72 790.429 304.621C788.089 325.051 772.903 334.302 770.967 351.498C770.338 357.059 773.582 368.535 763.19 365.343L763.197 365.316Z" fill="#5F6C37"/>
<path d="M504.847 338.487C504.46 333.828 510.062 329.59 514.475 335.005C523.394 345.964 505.571 347.208 504.847 338.487ZM510.112 333.695C501.968 337.208 509.379 346.655 515.038 340.686L510.112 333.695Z" fill="#5F6C37"/>
<path d="M456.222 112.828C457.325 110.237 466.169 101.139 468.66 102.123C474.383 105.693 469.211 109.641 467.703 114.138C466.719 117.065 465.958 128.373 460.641 124.56C458.969 123.363 455.44 114.684 456.222 112.828ZM470.073 106.006L467.293 104.273C459.611 108.865 455.069 115.914 462.458 123.228L470.081 105.996L470.073 106.006Z" fill="#5F6C37"/>
<path d="M442.289 7.62591C446.927 7.32263 452.265 17.3152 450.694 21.2727C448.348 27.1763 444.844 24.3946 442.583 20.0462L446.891 22.3339C452.182 21.0219 445.639 9.43855 443.195 9.4506L442.326 17.0586C439.494 14.6939 436.966 8.00423 442.29 7.64399L442.289 7.62591Z" fill="#5F6C37"/>
</svg>
