<svg width="915" height="915" viewBox="0 0 915 915" fill="none" xmlns="http://www.w3.org/2000/svg">
<path d="M258.478 508.929C262.186 505.968 266.326 512.095 268.202 507.399C268.789 505.938 267.552 504.485 267.816 503.28C268.966 498.254 271.171 496.398 269.111 490.272C264.347 476.121 255.305 466.575 244.456 456.639C239.621 452.212 229.941 448.039 228.863 441.113C231.029 434.94 229.019 426.833 230.318 421.064C231.153 417.358 233.499 414.322 234.706 410.789C236.384 405.862 239.525 380.845 239.033 375.859C237.48 360.381 221.941 337.723 221.907 323.798C221.887 314.578 224.516 305.401 233.606 301.237C234.638 300.767 245.568 299.221 247.31 299.114C251.866 298.836 266.211 301.353 268.309 297.837C268.929 296.806 267.737 286.809 267.854 284.085C268.155 276.491 270.504 268.337 269.253 260.792C267.977 253.107 259.954 238.17 262.425 232.022C266.532 221.847 278.758 219.203 285.069 211.497C287.472 208.568 287.111 205.101 288.779 202.576C295.413 192.517 319.223 183.945 330.951 187.046C335.242 188.187 338.419 191.714 342.586 193.672C354.37 199.209 374.101 194.976 387.134 194.413C391.848 194.209 398.723 195.575 402.859 195.09C412.137 194.021 422.698 187.233 432.998 189.682C435.854 190.36 444.757 195.986 447.373 197.96C456.705 205.006 458.94 208.235 469.965 213.936C471.673 214.82 472.671 216.859 474.759 217.694C478.671 219.264 480.448 215.295 482.982 213.901C487.804 211.246 507.145 226.031 515.171 220.884C520.488 217.47 521.837 211.486 529.907 216.03C530.208 209.509 518.157 208.182 513.809 205.085C503.759 197.931 501.047 189.75 494.456 180.741C490.811 175.753 486.083 171.632 482.478 167.033C477.059 160.121 478.808 145.421 471.26 135.52C460.776 121.755 458.266 122.05 458.35 103.321C458.36 100.523 459.64 83.4702 460.375 82.0921C464.539 74.2195 484.337 67.362 492.996 67.1766C501.844 66.983 501.159 67.6183 510.463 65.8979C513.806 65.2805 526.279 64.5852 528.952 66.0394C536.123 69.9308 543.193 79.3032 550.173 84.0778C556.692 88.5385 564.459 89.7558 570.786 96.4699C574.218 100.104 577.76 115.805 581.644 121.874C586.725 129.817 596.764 126.867 605.635 130.43C623.288 137.529 658.327 155.773 656.995 178.075C656.786 181.55 654.251 184.413 654.422 188.351C654.585 192.148 658.649 203.186 661.058 206.159C666.741 213.17 670.985 211.785 676.811 215.684C679.773 217.658 681.612 220.507 684.343 222.3C690.466 226.298 701.335 229.514 705.517 235.65C707.159 238.052 706.802 241.659 709.673 245.243C727.416 267.3 753.761 274.115 769.129 293.908C771.397 296.823 772.922 301.702 775.124 304.865C790.062 326.441 810.244 340.781 823.647 362.423C829.404 371.704 830.881 387.784 827.434 398.042C826.128 401.954 823.865 403.406 822.659 406.261C821.617 408.737 822.06 413.954 820.507 417.899C810.01 444.687 786.663 436.132 767.034 450.856C760.334 463.506 761.904 476.161 760.188 489.788C758.464 503.556 755.454 531 742.375 537.811C740.088 539.007 725.302 543.845 722.504 544.446C718.566 545.311 714.11 543.063 710.857 544.448C709.594 544.984 700.297 550.031 699.207 550.806C687.902 558.931 688.01 573.442 684.149 585.649C681.371 594.397 675.726 609.359 670.283 616.463C665.971 622.091 659.085 625.488 655.286 630.141C647.605 639.547 649.019 666.515 645.463 679.473C643.114 688.039 623.908 715.987 616.906 721.976C606.806 730.63 590.521 729.904 577.858 731.63C574.184 732.132 570.155 733.715 566.209 734.208C562.264 734.701 549.56 734.191 547.034 735.263C541.948 737.407 536.702 745.568 531.954 749.172C519.601 758.559 493.078 746.676 480.583 741.288C473.428 738.205 471.656 734.35 462.772 737.069C444.825 742.557 429.023 763.441 412.064 773.965C395.294 784.382 380.202 788.534 360.681 787.624C340.706 786.69 328.795 770.439 312.745 762.135C290.48 750.617 245.895 741.911 231.584 721.755C224.68 712.036 227.154 699.911 212.778 693.548C210.17 692.391 206.703 693.132 203.881 691.282C190.357 682.401 194.379 660.727 183.341 649.067C179.612 645.119 175.081 644.844 171.706 642.639C162.241 636.451 157.074 620.526 148.468 612.804C139.434 604.685 121.143 602.976 114.205 594.974C104.801 584.139 112.568 568.195 103.263 556.602C98.2643 550.375 91.9351 546.682 84.0857 545.663C77.4414 544.793 73.3288 548.324 68.9826 540.818C64.0591 532.322 72.1082 530.221 74.9173 525.072C75.9914 523.091 74.2488 508.695 73.4001 505.896C71.0186 498.012 63.9066 491.735 65.1903 483.259C67.1234 480.139 75.4931 480.639 78.6319 476.497C81.1016 473.238 77.0846 467.449 79.6373 463.431C84.1478 456.301 89.0408 459.977 90.1225 459.21C91.2208 458.426 92.8671 451.122 95.7904 448.68C100.696 444.589 106.44 446.424 111.558 445.552C118.533 444.358 121.193 440.48 129.372 443.728C135.85 446.315 137.994 451.17 143.068 455.126C146.608 457.893 151.617 460.034 155.396 463.403C162.5 469.755 171.803 484.601 180.048 487.766C188.275 490.932 197.029 483.029 203.344 482.595C207.735 482.3 213.71 485.34 218.415 485.97C225.364 486.915 232.67 485.788 239.644 487.665C244.216 488.889 254.2 496.075 255.965 500.484C256.871 502.746 256.068 508.251 258.478 508.863L258.478 508.929ZM815.045 412.778C815.031 408.106 811.869 408.278 816.074 401.47C819.717 395.57 820.955 396.512 821.9 388.456C825.473 357.975 788.193 333.457 772.612 310.345C766.178 300.816 764.481 294.542 754.861 286.315C745.504 278.32 731.12 272.774 721.995 264.482C718.274 261.104 707.747 249.757 704.967 245.934C703.177 243.482 703.311 239.866 701.843 237.687C698.791 233.145 687.444 229.169 682.286 225.708C679.53 223.857 677.707 221.091 674.753 219.125C668.746 215.127 664.115 216.024 658.308 208.923C654.662 204.463 649.691 190.668 650.858 184.948C651.421 182.191 653.361 180.319 653.445 177.413C654.042 156.984 618.566 137.675 601.507 132.128C592.239 129.11 585.964 133.796 579.514 123.953C575.81 118.313 572.351 104.461 569.364 100.662C561.841 91.0669 557.251 92.5669 549.47 87.3214C535.781 78.0777 530.687 63.7125 511.121 69.4806C509.065 70.0821 507.083 71.9796 504.962 72.383C500.834 73.1568 494.752 70.7186 488.519 71.9784C484.111 72.8676 467.095 79.6027 465.171 82.7466C462.127 95.0111 463.094 107.393 464.433 119.784C470.742 130.889 478.35 136.836 481.851 149.937C483.062 154.437 482.3 160.231 484.676 163.633C487.62 167.852 492.57 172.329 495.812 176.647C502.733 185.888 505.097 195.291 515.155 202.601C517.194 204.079 520.281 204.395 522.69 205.733C527.262 208.261 538.781 215.316 530.805 219.72C523.916 212.593 520.875 219.707 515.83 222.948C507.623 228.21 488.414 214.399 484.318 216.642C482.634 217.566 481.477 219.513 479.52 220.561C474.459 223.257 472.604 219.335 469.245 217.675C456.083 211.155 447.908 201.254 435.695 194.793C425.181 189.224 413.877 197.217 403.501 198.491C396.666 199.329 388.032 198.202 380.9 198.496C369.748 198.961 358.414 201.621 347.338 198.941C335.329 196.037 333.93 188.542 319.253 190.251C312.327 191.065 295.939 197.536 292.155 203.279C290.09 206.415 290.277 211.409 287.048 214.981C281.3 221.351 268.338 225.389 265.964 234.773C265.278 237.488 272.054 254.281 272.662 260.125C273.484 268.033 270.929 276.493 270.545 284.103C270.345 288.115 272.148 297.336 270.281 299.877C266.705 304.787 253.838 301.503 247.944 301.929C234.538 302.896 224.92 306.466 224.615 321.753C224.353 334.555 240.874 359.285 243.111 374.507C243.868 379.692 241.305 404.165 239.692 409.438C238.245 414.184 235.156 418.524 234.27 423.138C233.261 428.42 235.098 435.363 233.469 440.95C243.038 452.907 258.346 460.402 266.04 473.836C267.805 476.924 274.509 490.951 274.582 493.7C274.671 497.208 270.176 506.286 270.165 510.867C267.489 514.58 265.039 511.764 262.893 511.647C260.532 511.514 258.996 513.115 256.694 511.487C251.669 507.944 255.963 502.96 251.979 498.427C241.692 486.725 231.323 489.79 218.389 488.157C214.666 487.685 211.341 485.991 208.113 485.536C198.514 484.152 186.969 495.57 177.289 490.291C175.226 489.167 167.017 482.073 164.946 480.016C153.718 468.842 149.345 465.258 136.894 455.783C131.2 451.455 129.94 445.932 121.149 447.125C116.674 447.733 111.16 449.117 106.075 449.907C93.75 451.808 98.5428 457.464 91.6894 462.083C88.5186 464.211 85.524 460.817 82.3688 464.811C78.9988 469.085 87.7794 473.183 81.4534 479.288C77.5389 483.067 72.9 482.998 68.4002 485.266C71.0038 494.661 78.5103 504.454 80.0076 514.162C80.2297 515.59 80.2749 524.109 79.9277 525.116C77.8775 531.157 70.077 531.458 72.6482 539.516C74.7085 546.005 81.6356 542.814 86.8354 543.708C97.8705 545.621 107.788 554.672 110.605 565.553C112.566 573.115 109.803 584.604 115.016 591.573C121.574 600.334 137.95 601.746 147.084 608.874C157.662 617.134 161.7 629.567 170.338 637.553C174.142 641.063 177.443 640.867 181.305 643.593C198.08 655.43 193.222 681.371 206.631 688.601C208.183 689.443 211.014 688.462 213.482 689.545C232.38 697.842 227.798 715.933 241.544 726.456C260.555 741.01 293.074 747.68 314.81 759.181C330.646 767.551 340.312 782.05 359.998 784.182C378.908 786.23 394.751 780.997 410.695 771.224C427.588 760.865 444.116 740.048 462.089 734.452C471.822 731.428 473.479 735.349 481.261 738.68C492.221 743.374 512.547 752.043 524.41 749.251C533.788 747.044 538.342 735.861 545.657 732.25C548.439 730.873 561.159 731.366 565.526 730.799C571.04 730.075 576.464 728.336 581.97 727.522C600.354 724.783 609.267 728.353 622.912 711.67C626.67 707.074 632.362 698.385 635.938 693.178C649.453 673.54 643.394 657.432 647.87 637.022C651.295 621.406 661.29 623.186 669.088 611.683C672.244 607.03 678.27 589.244 680.494 582.914C686.801 564.948 684.222 555.875 703.312 544.543C711.388 539.743 715.257 542.494 722.498 540.542C725.99 539.594 742.46 533.502 744.409 531.588C749.397 526.688 752.822 511.997 754.444 504.866C757.811 490.018 757.372 461.103 764.641 450.079C766.69 446.976 774.509 441.953 778.043 440.09C789.321 434.152 802.354 436.643 811.011 423.391C811.804 422.17 815.036 413.843 815.028 412.778L815.045 412.778Z" fill="#DF6D26"/>
<path d="M340.048 395.663C342.854 395.731 354.355 391.37 356.832 389.72C366.889 383.023 368.602 374.86 382.864 378.12C392.545 380.329 393.495 380.139 403.408 380.037C413.891 379.927 409.814 379.363 418.482 376.842C420.868 376.142 424.004 377.035 426.696 376.442C429.998 375.717 432.987 373.143 436.289 373.211C440.688 373.304 445.012 376.525 446.38 380.785C446.619 381.537 446.514 392.515 446.34 393.794C446.001 396.345 439.065 416.391 437.71 418.454C431.556 427.819 415.679 434.241 410.152 444.466C409.755 445.208 406.226 454.839 406.168 455.425C405.836 458.678 409.141 467.652 407.183 471.175C402.896 477.785 396.405 483.675 391.812 489.665C390.028 491.992 389.3 495.921 387.483 497.769C382.916 502.43 375.403 504.457 369.762 511.578C367.144 514.886 364.72 525.855 364.891 530.073C365.152 536.248 370.926 543.151 371.22 549.937C371.375 553.544 367.923 556.464 368.524 560.187L382.05 565.006C382.538 563.76 377.778 557.245 377.45 554.042C377.179 551.442 378.674 550.163 378.6 548.9C378.428 546.168 375.022 539.538 376.237 536.229C378.254 530.732 386.031 527.748 389.657 523.218C391.722 520.644 391.484 517.961 393.136 515.684C398.514 508.283 409.158 499.58 418.412 497.975C425.239 496.781 437.256 499.066 443.762 495.767C447.469 493.879 449.263 490.24 453.358 488.013C457.453 485.786 480.056 480.548 484.868 480.741C497.951 481.267 508.469 493.464 514.358 504.099C520.897 515.914 516.389 518.933 516.961 530.126C517.116 533.238 518.881 536.062 518.896 539.232C518.98 552.018 507.516 566.342 497.145 572.89C493.727 575.051 485.843 576.987 484.208 578.34C479.55 582.151 478.602 596.332 470.429 599.15C457.921 603.477 443.669 597.09 432.065 594.046C417.589 590.258 407.263 590.162 395.027 578.542C391.406 575.098 388.33 569.162 383.791 566.039C383.023 567.83 384.962 569.391 384.853 571.842C384.511 579.626 378.504 575.248 375.845 576.848C374.235 577.813 374.779 580.042 373.804 581.461C369.393 587.897 343.899 596.981 336.182 594.294C320.964 588.987 322.832 584.167 303.987 585.487C295.864 586.06 297.639 585.244 290.293 584.217C276.435 582.27 270.219 598.577 258.083 603.161C243.602 608.634 233.389 597.535 222.466 602.49C218.181 604.428 216.289 608.1 212.87 610.74C211.689 611.656 209.874 611.291 208.726 612.207C207.041 613.543 206.131 617.439 204.009 619.741C202.093 621.82 196.073 626.662 193.678 628.279C189.731 630.935 185.604 631.461 181.346 629.148C168.505 622.141 156.957 607.69 158.731 592.288C160.298 578.711 170.455 586.318 177.986 580.742C183.106 576.948 177.601 557.976 177.258 551.885C177.053 548.178 178.178 543.821 177.99 540.923C177.703 536.589 174.371 531.767 174.687 526.534C174.837 523.959 179.837 512.628 181.505 510.912C186.617 505.624 192.6 508.111 198.536 507.38C206.691 506.36 209.071 501.723 217.033 508.702C221.851 512.93 224.481 520.583 229.358 523.202C231.676 524.45 238.387 524.924 241.68 526.04C245.509 527.33 248.653 529.898 253.324 530.875C263.105 532.935 276.659 531.638 284.199 524.403C286.049 522.637 286.463 519.336 287.901 516.992C289.28 514.756 291.584 513.593 292.716 510.829C296.03 502.782 289.046 489.233 288.397 482.06C288.135 479.187 289.093 477.091 288.896 474.532C288.765 472.865 286.049 458.204 285.62 457.411C280.821 448.477 262.473 444.283 258.962 433.418C255.163 421.654 265.752 408.882 264.85 396.235C264.023 384.588 254.462 371.797 251.777 360.124C250.707 355.468 251.407 341.172 255.42 338.467C256.097 338.005 265.558 336.326 267.126 336.145C276.875 335.035 283.353 338.96 288.691 326.564C292.179 318.477 288.553 306.044 289.803 299.169C290.855 293.399 296.719 286.7 298.347 281.36C299.397 277.935 301.154 264.184 300.504 260.808C298.767 251.818 292.256 248.389 289.808 242.304C287.78 237.268 292.894 228.364 297.319 225.824C299.54 224.546 303.007 225.208 304.807 223.211C309.209 218.335 305.731 209.287 312.411 204.957C319.553 200.33 323.076 204.516 329.538 205.799C335.167 206.924 343.148 209.545 347.34 210.175C350.873 210.705 355.86 208.264 359.674 208.233C364.387 208.194 370.106 210.764 374.736 210.89C384.476 211.159 404.587 205.639 414.477 203.383C426.686 200.591 457.011 204.04 447.088 222.516C439.586 236.495 431.853 233.495 419.246 238.285C408.431 242.39 395.369 249.218 389.05 258.798C385.861 263.633 384.868 268.569 380.194 272.495C374.769 277.074 364.731 277.432 358.266 281.085C354.501 283.213 347.176 289.705 345.54 293.716C344.936 295.21 349.372 305.58 348.469 310.837C347.882 314.263 345.313 317.225 344.304 320.427C341.758 328.465 343.307 333.914 336.988 341.661C333.536 345.886 327.079 350.125 324.608 354.672C322.411 358.716 323.578 368.291 323.295 373.161C323.078 376.777 321.006 376.899 322.96 381.383C325.648 387.575 332.941 395.486 340.064 395.647L340.048 395.663ZM394.169 384.135C392.254 384.579 385.537 380.861 382.871 380.274C370.838 377.61 364.914 387.983 355.46 393.104C352.124 394.918 339.6 399.74 336.282 398.501C330.225 396.236 322.058 386.227 320.171 380.027C319.462 377.699 318.762 359.127 319.382 356.741C321.715 347.828 334.264 341.957 338.372 331.402C339.959 327.325 338.987 322.768 340.045 319.764C341.318 316.149 344.646 313.914 345.177 309.49C345.782 304.364 341.253 298.411 342.675 293.739C344.668 287.195 353.538 278.516 359.639 275.556C364.535 273.173 373.871 272.426 377.48 269.696C382.079 266.223 386.031 254.537 391.176 249.182C393.943 246.303 412.933 235.301 417.194 233.504C423.609 230.808 432.853 232.513 438.485 227.679C440.31 226.12 443.697 220.674 444.597 218.437C446.226 214.352 445.153 212.965 441.878 210.33C428.453 199.502 391.07 214.836 374.734 215.034C368.832 215.105 363.477 211.644 358.302 211.551C354.455 211.482 351.144 213.487 346.662 212.816C341.372 212.029 332.07 209.226 326.12 207.861C321.011 206.694 318.041 202.929 312.351 208.762C309.989 211.187 311.556 214.028 310.853 216.991C310.522 218.377 308.357 223.527 307.539 224.575C303.929 229.237 297.765 226.138 293.857 233.425C288.718 242.997 299.008 248.046 302.529 256.03C306.008 263.939 303.339 269.097 302.114 276.574C301.692 279.141 302.689 282.204 301.796 284.796C300.382 288.881 297.03 290.464 294.883 293.699C291.76 298.385 294.125 307.128 293.899 312.881C293.765 316.414 293.231 327.359 292.124 330C287.19 341.809 278.021 337.702 268.52 338.894C264.656 339.388 261.139 341.713 256.83 341.084L254.074 356.015C256.732 371.41 270.979 387.456 268.264 403.286C266.633 412.836 258.935 421.879 262.529 432.05C267.812 446.985 287.27 443.487 289.605 460.145C290 462.968 288.753 465.205 289.049 467.681C290.092 476.588 295.204 488.477 296.396 497.136C297.293 503.6 297.413 509.948 294.109 515.625C284.517 532.154 270.638 538.131 251.969 533.879C247.372 532.828 243.816 530.193 239.64 528.788C235.67 527.457 226.426 526.528 223.975 523.86C222.614 522.382 222.137 519.641 220.479 517.651C218.656 515.463 213.202 509.723 210.883 508.773C207.813 507.516 202.438 510.378 199.236 510.789C189.222 512.08 188.324 508.357 180.411 519.001C174.258 527.277 178.837 530.308 179.956 538.184C180.597 542.674 179.621 547.957 180.072 552.571C181.091 562.939 187.314 579.096 175.895 585.801C172.757 587.648 163.959 585.531 162.868 588.815C161.661 592.43 162.91 603.261 164.89 606.679C167.793 611.699 183.393 628.818 189.585 626.56C192.441 625.521 201.129 617.502 203.342 614.912C205.234 612.692 206.16 609.391 207.481 608.12C208.035 607.584 218.67 600.937 220.42 599.831C232.261 592.442 248.986 603.915 258.778 599.48C263.699 597.253 270.786 588.458 275.905 584.911C287.334 576.993 289.551 583.176 299.885 582.819C304.013 582.672 309.313 580.347 313.589 580.894C320.926 581.847 330.498 588.571 337.563 590.82C346.17 593.556 356.211 587.932 363.6 584.18C365.483 583.224 369.965 582.111 371.105 581.138C372.501 579.958 372.131 577.028 374.501 575.254C375.937 574.182 383.424 574.871 381.214 570.446C378.171 564.361 366.96 567.293 365.082 559.665C364.374 556.776 368.586 552.139 368.389 549.91C368.044 546.064 363.855 538.715 363.015 534.835C362.529 532.615 363.394 519.292 364.047 517.023C367.586 504.907 379.449 502.973 386.246 495.127C388.741 492.256 389.337 488.641 391.154 486.215C393.368 483.261 396.86 480.976 399.181 477.998C401.205 475.415 402.065 471.404 405.17 469.094C406.707 466.206 403.228 457.834 404.055 454.021C404.51 451.916 405.734 447.229 406.363 445.116C408.728 437.094 416.835 433.895 422.616 428.665C430.263 421.768 438.158 413.32 441.408 403.342C442.763 399.166 445.223 383.03 443.153 379.471C438.856 372.065 429.592 377.723 423.326 379.279C421.593 379.708 419.315 378.898 417.845 379.425C415.336 380.315 413.89 382.387 410.307 383.243C405.387 384.429 401.988 381.588 398.661 381.974C396.25 382.254 395.465 383.83 394.211 384.126L394.169 384.135ZM429.033 502.545C426.532 502.75 423.165 501.593 419.788 502.111C410.749 503.501 403.474 509.383 397.849 516.371C395.272 519.573 394.213 524.756 392.066 527.33C389.299 530.639 382.504 532.344 380.265 536.924C379.546 538.401 381.846 545.46 382.084 547.879C382.305 550.182 381.223 552.203 381.363 554.044C381.838 560.07 396.63 575.967 401.944 579.734C415.113 589.085 422.452 588.535 436.862 592.01C441.17 593.052 445.156 595.439 449.183 596.449C455.778 598.095 463.81 596.621 470.48 595.568C473.544 593.712 477.149 580.771 481.344 576.63C484.474 573.536 490.599 572.912 494.414 570.206C500.591 565.818 506.553 561.215 510.196 554.787C517.45 541.996 513.455 541.862 512.859 530.133C512.556 524.197 515.655 516.828 513.339 510.958C508.508 498.739 499.724 485.8 485.552 484.232C480.748 483.702 458.748 488.668 454.726 491.382C442.745 499.44 444.89 501.257 429.033 502.561L429.033 502.545Z" fill="#DF6D26"/>
<path d="M509.958 328.163C533.862 328.192 580.006 340.523 598.531 321.093C605.352 313.932 601.102 312.056 602.096 305.486C602.519 302.671 604.104 300.988 604.659 298.636C606.818 289.467 598.252 285.319 598.684 278.765C599.017 273.746 602.858 269.085 607.613 267.436C611.204 266.192 626.722 266.414 630.221 268.182C636.716 271.463 641.457 281.312 648.019 282.826C653.408 284.076 665.627 278.353 672 277.515C686.397 275.607 695.456 282.793 704.927 292.505C716.379 304.248 726.958 308.596 739.789 318.301C754.385 329.345 765.024 347.179 772.585 363.783C777.573 374.722 782.859 384.705 775.441 395.976C767.701 407.751 751.548 405.803 746.863 414.46C745.55 416.894 747.379 422.525 747.18 425.413C746.922 429.367 743.94 448.681 742.536 451.437C738.289 459.772 728.166 465.957 724.902 471.973C723.258 475.018 723.896 486.624 720.864 491.831C718.237 496.337 711.953 500.849 708.187 504.842C702.381 511.021 703.105 515.578 693.092 516.489C682.427 517.458 662.346 513.543 651.311 511.416C643.668 509.943 641.086 506.285 632.137 509.351C619.77 513.587 614.48 527.155 599.937 525.266C588.117 523.724 571.03 509.807 562.957 510.232C561.066 510.338 559.365 511.559 557.475 511.632C544.895 512.072 532.118 511.388 523.249 501.338C518.25 495.657 514.392 486.955 508.856 481.413C506.587 479.142 496.553 471.559 493.797 470.666C491.296 469.864 480.681 470.173 476.678 469.75C468.358 468.87 465.446 465.592 456.81 469.137C451.138 471.47 427.209 486.563 423.24 484.621C412.05 479.151 429.712 467.547 434.263 462.258C442.943 452.167 437.852 448.59 442.132 441.032C448.906 429.066 463.406 419.102 469.835 405.42C474.752 394.964 468.092 392.377 466.495 383.495C466.017 380.836 466.852 363.486 467.778 360.895C470.158 354.177 481.118 342.816 487.022 338.618C489.317 336.985 508.043 328.146 509.974 328.147L509.958 328.163ZM550.27 508.781C555.099 509.122 561.761 507.268 567.052 508.451C579.044 511.123 591.46 524.593 606.089 520.621C616.68 517.73 622.208 507.538 634.871 504.936C651.687 501.47 676.005 516.513 694.456 512.866C703.644 511.047 701.276 508.528 705.538 503.511C709.626 498.685 715.53 494.8 718.381 489.131C721.256 483.404 719.164 473.894 722.204 469.273C724.806 465.32 728.084 464.554 730.784 461.79C740.53 451.874 738.584 447.597 741.346 436.389C742.124 433.252 744.181 430.505 744.545 427.484C745.01 423.638 741.572 415.852 743.422 412.419C747.586 404.745 760.15 403.761 766.426 398.729C771.876 394.357 777.014 387.343 775.193 380.235C771.008 363.988 755.323 335.519 742.51 324.906C728.879 313.623 715.113 308.416 702.169 295.26C694.876 287.861 686.783 279.957 675.408 280.182C667.855 280.335 653.439 288.153 646.581 286.144C642.083 284.829 634.741 274.706 630.211 271.575C624.138 267.378 607.059 269.111 603.415 276.018C600.986 280.623 607.337 289.789 607.467 295.567C607.539 299.207 605.028 303.432 604.902 306.181C604.777 308.979 607.062 311.927 606.152 315.773C605.102 320.139 599.568 326.343 595.926 328.843C580.469 339.45 545.728 335.66 527.429 334.189C523.071 333.841 509.519 330.994 506.877 331.521C504.879 331.933 486.566 341.564 484.89 343.124C482.214 345.599 474.095 354.649 472.014 357.488C470.882 359.031 470.328 361.119 469.964 362.968C469.616 364.684 468.923 380.376 469.079 382.15C469.842 390.661 478.308 396.592 473.276 407.494C468.789 417.223 453.982 429.886 446.92 438.987C441.006 446.611 444.727 450.633 441.364 457.474C438.265 463.77 429.363 471.343 424.523 477.334C422.161 480.254 423.324 482.063 426.692 481.14C434.378 479.022 445.947 470.502 454.054 467.039C464.969 462.373 467.402 465.849 478.033 467.043C485.272 467.864 493.568 466.671 499.955 470.438C502.199 471.76 509.964 477.121 511.647 478.757C519.65 486.503 522.5 496.938 532.807 504.034C534.135 504.951 548.091 508.615 550.27 508.764L550.27 508.781Z" fill="#DF6D26"/>
<path d="M560.44 700.767C558.533 700.857 551.961 703.825 550.499 705.137C549.021 706.465 548.484 708.371 547.138 709.667C544.198 712.472 525.779 718.215 521.041 718.939C511.374 720.412 497.341 720.801 489.528 714.251C486.533 711.749 484.734 710.047 481.318 707.404C473.208 701.102 472.935 685.336 467.698 675.998C463.624 668.732 457.574 668.126 455.54 658.178C453.457 648.049 459.608 646.195 462.121 638.999C462.832 636.969 461.356 633.938 461.571 631.462C463.074 614.55 489.04 618.806 493 608.184C493.934 605.684 491.633 601.795 491.733 599.632C492.059 592.014 505.514 589.742 511.525 585.932C515.456 583.441 528.255 574.368 530.749 571.216C532.641 568.815 533.353 564.705 534.023 561.626C535.901 552.902 532.737 542.285 541.695 537.577C543.99 536.373 547.349 537.357 549.909 536.747C555.696 535.372 560.097 531.717 567.039 531.514C581.534 531.076 591.068 546.83 604.02 544.848C620.373 542.338 632.592 538.515 649.915 542.857C658.185 544.925 660.272 547.675 663.644 555.526C669.267 568.621 660.2 591.39 653.954 603.471C648.633 613.786 646.438 612.151 639.534 618.553C631.094 626.373 635.695 652.765 630.488 664.417C627.943 670.112 622.905 675.359 619.51 680.846C616.288 686.061 614.948 691.69 610.752 696.591C601.791 707.045 587.767 707.624 575.155 704.976C571.268 704.157 563.436 700.612 560.432 700.759L560.44 700.767ZM516.586 714.513C521.885 714.037 538.734 710.554 543.019 707.923C544.803 706.834 545.646 704.012 547.703 702.205C560.329 691.043 574.067 703.308 588.174 702.762C608.199 701.98 608.807 690.862 617.176 677.436C620.389 672.279 625.394 667.857 627.485 662.369C632.138 650.163 627.513 624.324 636.811 615.811C638.777 614.012 641.716 613.205 643.731 611.555C649.858 606.539 660.627 579.528 661.564 571.299C662.883 559.686 660.652 547.724 647.174 545.348C641.206 544.297 625.127 543.86 619.093 544.591C613.001 545.331 604.067 549.734 598.537 548.592C586.991 546.201 577.662 531.396 563.612 535.054C561.424 535.622 559.5 537.479 557.444 537.981C552.326 539.233 541.983 538.939 539.652 545.227C539.413 545.879 538.532 557.006 538.391 558.929C538.067 563.295 540.532 568.802 536.807 573.184C529.598 577.563 522.612 584.014 515.627 588.452C511.861 590.843 499.403 595.798 497.859 597.324C495.298 599.849 497.203 605.108 496.12 608.236C491.06 622.843 465.5 617.077 464.849 630.828C464.707 633.792 467.222 637.895 466.247 640.421C463.685 647.072 457.014 649.066 459.668 658.23C461.917 666.015 464.13 664.943 468.312 669.84C472.321 674.531 477.416 687.047 479.543 693.173C480.301 695.352 479.557 698.026 480.909 700.074C481.833 701.478 497.139 712.819 499.12 713.711C504.509 716.133 510.906 715.071 516.586 714.562L516.586 714.513Z" fill="#DF6D26"/>
<path d="M326.133 747.276C325.167 746.904 319.53 746.81 317.582 746.149C310.749 743.867 304.271 740.421 297.041 738.503C279.693 733.904 263.332 734.012 251.091 717.662C245.713 710.494 244.208 699.507 238.829 693.627C235.554 690.051 231.188 689.843 228.564 687.414C226.732 685.73 225.57 682.815 223.111 680.602C217.468 675.531 207.739 669.277 203.359 663.522C201.371 660.904 197.473 648.842 199.125 646.384C204.156 638.899 209.41 646.901 214.207 643.626C224.562 636.566 227.42 616.154 244.362 623.501C247.053 624.674 248.876 626.912 251.888 627.813C252.829 628.095 264.261 629.347 264.905 629.215C269.396 628.243 282.831 617.198 288.206 614.468C290.939 613.075 303.075 609.366 306.013 609.368C307.705 609.377 313.879 609.842 315.596 610.058C329.611 611.765 339.628 620.355 353.956 622.244C365.215 623.736 379.719 621.44 390.943 624.682C409.43 630.024 424.636 643.164 438.869 655.413C453.547 668.041 471.367 701.621 454.437 718.434C449.185 723.648 437.95 725.005 431.287 727.75C424.36 730.594 412.148 738.025 406.624 743C399.051 749.822 396.743 759.074 386.737 763.147C372.966 768.753 350.828 766.876 338.79 757.732C334.615 754.56 331.01 749.102 326.108 747.234L326.133 747.276ZM317.938 743.648C332.786 747.031 330.276 749.094 342.241 756.842C354.205 764.591 372.925 766.4 386.078 760.769C392.625 757.958 391.025 755.448 394.262 751.322C399.507 744.63 412.291 733.494 419.664 729.048C435.534 719.498 458.917 723.744 457.312 698.601C455.649 672.442 442.249 663.9 423.816 648.57C416.704 642.656 414.997 639.362 406.018 634.851C381.806 622.704 359.161 629.271 334.791 620.022C330.912 618.551 327.15 615.347 323.147 614.412C318.954 613.436 299.721 613.442 295.75 614.588C285.084 617.669 274.57 630.301 265.597 632.088C264.012 632.401 253.744 631.388 251.895 630.892C246.357 629.395 240.846 623.103 234.753 625.559C231.344 626.936 224.817 636.987 221.737 640.262C218.582 643.628 216.343 646.871 211.473 647.166C208.163 647.37 201.669 643.446 201.253 648.811C200.364 660.293 211.695 665.705 218.997 672.403C226.117 678.936 230.547 683.107 238.163 689.013C245.886 694.993 246.566 704.51 251.16 712.197C261.964 730.297 280.619 730.752 298.421 736.167C304.206 737.929 313.267 742.572 317.947 743.639L317.938 743.648Z" fill="#DF6D26"/>
<path d="M487.323 329.621L484.88 328.019C481.147 333.465 473.411 336.54 469.19 340.986C465.639 344.732 460.204 368.939 452.018 362.926C445.162 357.896 449.606 351.476 447.932 347.208C446.902 344.59 443.807 342.765 443.322 339.174C443.224 338.431 446.136 325.357 446.541 324.606C448.342 321.306 453.378 318.452 454.082 315.192C454.644 312.584 447.539 293.595 448.829 287.62C451.517 278.88 468.821 257.188 468.569 249.619C468.447 245.665 459.939 240.914 463.119 236.235C468.621 228.165 480.388 234.725 487.742 236.141L504.189 228.77C508.737 228.978 516.014 234.81 519.935 234.87C522.329 234.904 525.673 232.289 528.158 231.688C530.973 231.004 534.249 231.922 537.064 231.403C544.766 229.979 550.291 225.318 550.13 217.113C549.889 204.765 531.927 205.003 530.825 197.92C530.208 193.966 534.048 189.585 535.296 186.276C536.9 182.034 535.721 178.558 539.784 174.565C541.634 172.75 548.734 169.865 551.484 168.801C560.367 165.339 557.552 166.435 565.19 160.372C567.023 158.92 569.55 158.525 571.424 156.851C576.106 152.635 576.399 146.502 585.073 147.341C589.514 147.772 608.694 154.633 611.846 157.16C616.268 160.712 621.644 171.726 622.525 177.414C623.068 180.963 621.201 182.696 621.53 185.635C622.286 192.305 629.328 206.44 631.445 214.406C633.011 220.317 636.184 228.845 632.203 234.275C623.323 246.379 608.675 255.485 595.292 261.71C587.019 265.552 577.634 265.011 573.691 275.352C571.658 280.683 572.321 290.745 568.935 295.894C565.771 300.705 550.957 310.619 545.261 312.399C532.39 316.429 501.754 308.819 493.932 317.755C491.669 320.346 492.772 327.643 487.323 329.638L487.323 329.621ZM446.566 339.316C446.904 340.645 450.022 343.585 450.97 346.516C452.38 350.834 449.785 356.247 453.481 359.98L456.205 360.212C461.084 358.457 462.964 345.721 465.847 341.719C467.458 339.483 478.325 329.93 480.844 328.107C482.958 326.573 486.152 326.682 487.771 325.23C490.025 323.192 489.881 315.45 495.215 312.563C495.999 312.143 505.261 310.976 506.879 310.894C522.596 310.093 539.052 315.566 553.461 305.808C556.343 303.853 563.362 297.897 565.196 295.174C569.276 289.101 567.672 279.104 570.291 273.947C575.051 264.556 584.378 264.115 592.536 259.562C599.372 255.752 612.599 249.106 617.884 244.569C620.651 242.201 628.827 234.38 629.612 231.5C630.638 227.737 627.008 208.015 625.698 203.417C624.231 198.298 619.794 190.603 619.343 185.609C619.072 182.662 620.798 180.838 620.494 178.073C618.867 163.677 606.703 157.381 594.662 153.156C589.207 151.247 582.82 148.239 578.162 152.711C573.545 157.141 565.723 166.836 560.406 170.234C558.102 171.71 551.556 172.012 548.064 173.455C536.563 178.179 541.523 180.715 538.085 189.001C537.002 191.617 534.286 193.44 534.3 196.577C540.307 202.374 547.487 204.375 552.502 211.609C558.168 219.759 548.323 232.152 539.803 234.079C536.658 234.796 533.869 233.457 531.392 233.687C527.356 234.056 522.385 237.339 518.563 237.031C514.75 236.732 506.746 231.726 503.493 232.203L486.708 239.698C479.999 236.847 472.325 232.848 465.191 236.889C464.966 241.09 469.224 243.634 470.724 247.185C474.838 256.919 452.97 278.237 452.724 290.329C452.622 295.612 458.193 314.534 457.564 316.366C456.639 319.04 452.518 321.489 450.66 324.584C450.007 325.681 446.36 338.565 446.558 339.308L446.566 339.316Z" fill="#DF6D26"/>
<path d="M452.041 255.075C452.4 262.537 441.508 271.685 438.153 278.7C433.741 287.909 433.488 297.22 431.436 306.778C430.758 309.947 427.073 317.391 428.384 319.793C431.41 325.334 433.02 325.277 434.279 332.813C435.793 341.894 433.218 341.843 431.456 348.57C430.662 351.623 433.672 356.982 431.517 359.581C431.12 360.059 421.749 364.85 420.568 365.271C405.245 370.793 380.562 360.9 371.248 366.657C364.65 370.74 358.358 375.491 352.066 379.929C348.309 382.576 341.589 384.438 337.686 381.473C324.402 371.379 334.144 367.307 339.77 357.429C343.868 350.233 346.134 342.641 352.765 336.197C349.942 321.445 351.809 302.503 364.435 292.513C372.089 286.45 381.334 286.537 389.095 282.86C397.401 278.918 394.35 272.693 399.059 266.356C405.146 258.179 407.243 258.279 415.144 254.726C421.799 251.724 427.487 249.094 433.646 246.192C436.429 244.881 442.62 243.365 445.286 245.174C447.967 246.983 451.886 251.715 452.049 255.083L452.041 255.075ZM430.247 356.444C426.182 347.618 433.728 344.023 432.132 334.183C431.071 327.669 428.529 326.001 425.676 321.162C423.152 316.902 427.812 308.204 428.846 303.359C431.146 292.498 431.333 282.427 438.082 272.534C442.782 265.644 455.73 255.613 443.922 248.17C438.855 244.981 434.065 250.773 430.218 252.307C417.817 257.236 409.225 256.679 400.155 269.089C397.784 272.332 398.417 277.029 396.674 280.041C389.387 292.633 365.775 286.67 359.185 307.426C358.268 310.323 356.397 321.515 356.271 324.544C356.095 329.092 358.924 333.774 356.974 338.247C354.842 343.116 349.682 345.812 346.675 349.888C344.965 352.207 344.311 356.16 342.75 358.793C338.404 366.153 328.876 370.919 339 378.576C342.07 380.906 346.337 380.404 349.302 378.334C355.916 373.723 362.291 368.79 369.177 364.584C378.937 358.613 388.476 363.455 398.629 364.253C409.945 365.142 421.37 363.992 430.247 356.427L430.247 356.444Z" fill="#DF6D26"/>
<path d="M157.57 522.762C157.047 528.581 160.176 543.54 160.899 550.507C161.079 552.24 160.088 553.957 160.343 555.979C160.984 561.048 169.38 573.714 160.135 575.69C159.334 575.863 144.575 575.427 143.7 575.162C138.905 573.764 131.81 566.794 128.75 562.806C125.178 558.157 125.601 553.873 120.428 549.041C113.655 542.723 106.54 541.333 100.566 537.12C91.1099 530.446 95.6507 528.764 93.3349 521.689C92.1234 517.999 89.5002 514.58 88.4707 510.048C84.7399 493.645 96.0159 492.528 103.021 481.966C106.152 477.238 103.747 467.43 108.759 462.918C109.924 461.87 115.629 458.662 117.041 458.588C119.443 458.466 121.035 460.803 123.205 461.291C125.095 461.713 126.986 460.154 129.371 461.335C137.392 465.334 138.89 475.224 148.537 479.628C155.749 482.917 161.372 480.782 163.504 491.588C164.196 495.056 164.304 508.312 163.172 511.456C161.56 515.905 157.977 518.066 157.562 522.754L157.57 522.762ZM156.852 554.962C156.729 553.716 157.629 551.776 157.449 549.828C156.784 542.671 153.237 520.589 156.368 515.58C157.624 513.567 159.969 512.396 160.845 510.102C161.605 508.104 161.218 491.381 160.269 489.556C156.658 482.637 146.867 483.557 140.968 479.303L130.105 463.424C127.06 461.697 124.301 464.667 121.85 464.278C118.986 463.839 117.741 460.611 113.638 462.747C105.1 467.2 109.166 474.969 105.728 481.984C101.795 490.005 93.8369 492.246 91.9252 501.845C89.7488 512.715 96.8946 517.605 97.7493 524.952C98.1684 528.592 93.405 529.77 100.584 534.413C105.915 537.866 115.315 539.711 121.817 544.965C127.609 549.639 128.01 556.714 132.225 562.139C141.497 574.063 146.426 571.02 159.558 572.421C163.027 569.897 157.279 559.238 156.86 554.954L156.852 554.962Z" fill="#DF6D26"/>
<path d="M508.044 83.6269C509.15 83.5119 510.709 84.4125 512.484 84.2235C518.304 83.6074 521.112 80.0099 528.242 83.8931C533.045 86.5205 545.023 99.3374 546.094 104.753C547.115 109.855 542.536 119.989 547.495 125.315C554.994 133.367 557.841 133.756 560.856 145.859C561.112 146.874 562.445 154.964 562.403 155.451C561.905 161.889 548.694 168.222 543.262 170.877C534.287 175.256 510.476 185.627 501.457 179.341C494.675 174.616 497.347 163.02 494.238 156.11C489.976 146.673 481.221 139.644 477.537 128.705C476.293 125.015 476.798 121.375 475.949 118.427C474.202 112.401 465.479 94.2698 472.712 89.9647C474.85 88.6864 488.479 86.3739 491.946 85.8144C496.941 84.9997 503.041 84.1527 508.044 83.6269ZM542.059 118.123C541.78 114.293 544.466 106.906 542.949 103.406C542.216 101.713 538.322 96.0982 536.986 94.4962C524.538 79.5907 519.937 85.2921 504.278 87.5211C497.228 88.5245 482.782 89.1609 476.813 92.1047C469.242 95.8401 476.961 109.629 478.485 115.02C479.573 118.883 479.364 123.943 480.708 127.353C484.228 136.278 493.674 146.262 497.111 154.757C500.689 163.624 496.125 178.117 509.712 178.735C518.494 179.135 544.262 167.914 551.512 162.668C553.428 161.282 557.069 158.09 558.111 156.142C558.978 154.517 556.715 140.442 555.685 138.336C551.974 130.741 542.715 126.807 542.075 118.123L542.059 118.123Z" fill="#DF6D26"/>
<path d="M444.237 632.494C444.94 645.123 430.696 640.114 424.507 635.422C415.901 628.905 409.45 621.555 399.176 616.688C394.687 614.556 391.888 615.422 387.539 614.173C383.519 613.024 368.953 608.369 372.068 602.65C372.704 601.487 380.557 595.077 382.076 594.087C387.509 590.557 393.659 589.628 399.882 591.117C402.854 591.828 415.852 595.755 417.354 597.308C419.293 599.331 419.687 602.699 421.197 604.739C428.315 614.392 443.435 618.081 444.253 632.494L444.237 632.494ZM374.865 603.683C380.639 612.139 394.21 610.132 401.216 613.99C406.159 616.708 413.577 622.036 418.33 625.456C424.956 630.222 430.102 638.875 440.091 636.8C443.309 622.068 427.116 617.8 419.651 608.841C416.978 605.637 416.163 600.857 413.614 599.147C411.113 597.47 407.399 597.683 404.642 596.757C400.772 595.459 398.363 592.849 393.682 593.284C387.219 593.884 380.241 600.36 374.849 603.683L374.865 603.683Z" fill="#DF6D26"/>
<path d="M366.697 500.565C364.452 500.531 359.096 497.119 357.115 497.167C355.646 497.2 353.292 499.254 351.286 499.69C348.769 500.242 339.316 502.012 337.393 501.788C329.098 500.818 327.98 491.325 320.47 489.967C315.196 489.015 311.395 495.633 306.725 491.719C302.682 488.332 304.78 486.946 303.816 483.438C301.542 475.1 300.354 458.137 297.501 451.928C295.011 446.479 286.445 441.522 288.595 434.11L311.61 414.65C317.554 413.63 324.91 409.547 330.787 409.484C340.272 409.382 346.507 419.026 356.135 412.609C363.979 407.38 372.297 396.827 382.863 396.618C385.355 396.569 387.839 397.817 390.39 397.876C400.865 398.121 403.185 396.512 412.308 391.721C419.219 388.101 421.665 382.853 428.776 391.705C432.405 396.23 430.085 398.631 429.562 403.361C429.139 407.166 429.823 410.955 427.402 415.006C418.546 429.827 400.045 434.993 395.076 451.293C392.943 458.308 393.457 469.905 389.045 476.639C387.212 479.444 384.569 481.077 382.917 483.487C379.456 488.495 374.448 500.676 366.705 500.573L366.697 500.565ZM309.871 490.424C311.406 490.788 317.352 485.409 321.85 487.219C328.212 489.79 329.826 498.491 336.916 499.311C342.24 499.933 351.883 495.481 356.778 495.013C363.844 494.34 365.764 501.497 373.221 494.278C375.542 492.026 385.082 478.304 386.619 475.251C392.23 464.168 388.778 451.677 396.897 441.009C405.479 429.713 417.209 428.291 425.348 412.933C427.132 409.567 428.74 396.526 426.686 393.71C425.928 392.669 421.86 389.605 420.894 389.613C418.773 389.636 405.941 397.884 402.053 399.095C393.929 401.617 383.308 397.245 377.405 399.661C366.086 404.302 360.276 417.498 345.196 416.293C339.014 415.803 335.392 412.013 328.755 412.901C312.897 415.03 311.707 419.206 300.657 428.627C297.404 431.399 292.599 432.519 290.22 436.513C292.132 442.111 298.329 446.068 300.316 451.244C303.044 458.336 303.064 469.19 304.281 476.587C304.718 479.253 307.56 489.862 309.879 490.416L309.871 490.424Z" fill="#DF6D26"/>
<path d="M322.676 307.085C321.45 315.949 319.992 326.101 316.248 334.808C313.992 340.065 311.076 345.981 304.299 344.913C298.156 333.049 305.647 324.344 307.386 313.763C308.677 305.922 305.416 292.383 309.257 286.169C310.876 283.562 313.387 281.83 315.031 278.636C320.468 268.04 303.835 252.481 307.867 245.07C309.61 241.877 314.506 239.593 315.787 236.168C317.068 232.743 312.168 227.144 318.517 223.755C323.414 221.141 325.046 224.691 328.141 226.269C331.994 228.244 342.678 222.653 347.656 223.225C351.263 223.631 359.439 229.768 363.583 230.596C366.901 231.258 370.749 227.611 374.089 233.416C378.262 240.682 373.636 247.481 367.171 251.184C358.089 256.396 353.251 257.599 345.9 267.005C341.58 272.525 342.376 281.531 338.989 287.555C334.916 294.792 323.588 300.449 322.668 307.076L322.676 307.085ZM320.446 309.807C320.628 308.833 319.473 307.463 320.151 305.366C323.152 296.082 333.315 293.074 337.471 285.507C339.925 281.043 339.567 271.055 342.111 267.011C344.019 263.999 353.161 255.098 356.217 252.755C361.493 248.705 372.001 248.454 372.682 240.316C373.405 231.707 368.162 234.436 363.078 233.047C358.786 231.873 353.117 228.692 349.378 228.021C343.881 227.028 334.552 230.87 328.824 228.952C326.093 228.034 321.902 223.591 318.804 227.312C316.624 229.936 319.684 234.255 318.263 236.862C315.305 242.276 306.893 244.096 309.308 251.914C310.873 256.983 315.559 263.126 317.438 267.618C320.118 274.049 320.619 278.202 316.398 284.118C314.73 286.461 311.212 288.325 310.303 290.966C309.757 292.55 311.612 297.479 311.693 299.873C311.799 303.398 311.571 313.195 310.926 316.315C309.271 324.272 301.622 333.546 307.883 341.993C311.69 338.949 313.376 333.865 314.889 329.334C316.592 324.201 319.511 314.867 320.454 309.816L320.446 309.807Z" fill="#DF6D26"/>
<path d="M343.336 518.177C347.057 521.142 353.31 528.145 353.985 532.784C354.873 538.893 349.264 547.598 349.848 552.642C350.834 561.062 366.031 576.126 355.347 581.816C348.378 585.527 330.729 571.295 318.363 574.079C310.405 575.874 309.858 579.869 299.863 577.71C287.309 575.004 280.191 564.328 266.991 567.912C262.252 569.197 258.642 573.859 254.964 568.376C245.528 554.322 273.382 547.337 280.697 543.428C286.667 540.236 302.83 522.209 305.697 516.308C307.903 511.778 307.444 505.587 312.911 501.512C321.325 495.235 327.706 510.129 332.781 513.557C335.331 515.284 338.262 514.138 343.319 518.16L343.336 518.177ZM299.51 573.987C302.085 574.715 302.967 575.862 306.038 575.847C315.506 575.794 320.1 567.229 332.074 571.552C335.631 572.833 355.188 584.465 356.802 575.939C357.026 574.726 347.673 559.434 347.206 553.334C346.697 546.664 353.57 536.696 350.643 530.727C348.994 527.358 342.205 519.142 338.945 517.762C337.154 516.993 333.786 517.982 331.385 516.272C327.424 513.447 324.481 505.513 319.092 503.306C316.707 502.686 312.165 506.91 310.901 508.8C309.637 510.689 310.544 512.654 309.8 514.288C306.669 521.146 289.06 541.69 282.776 545.525C274.387 550.639 250.687 553.953 259.132 568.65C266.678 565.27 272.689 562.731 280.719 565.946C287.502 568.673 292.42 571.977 299.535 573.995L299.51 573.987Z" fill="#DF6D26"/>
<path d="M235.453 563.892C235.337 565.146 237.96 567.954 238.52 569.721C241.512 579.239 236.654 588.614 227.258 592.109C219.572 594.969 212.352 589.873 203.971 595.358C198.86 598.698 196.967 604.665 193.052 608.774C184.298 617.931 169.758 608.299 177.341 598.431C180.438 594.396 185.705 592.996 188.952 587.508C190.059 585.627 198.036 563.749 198.425 561.479C198.781 559.457 198.818 552.325 198.216 550.517C196.164 544.416 186.95 531.724 189.297 525.848C191.488 520.377 203.979 515.67 208.872 519.758C210.332 520.972 210.777 522.954 212.221 524.168C213.664 525.382 216.198 525.953 217.716 527.357C222.411 531.709 223.934 539.213 227.415 543.672C231.02 548.288 239.124 550.835 238.304 558.057C238.03 560.492 235.594 562.612 235.469 563.875L235.453 563.892ZM210.478 590.392C213.276 590.187 217.585 591.328 221.093 590.975C227.655 590.293 231.321 588.562 235.163 582.744C240.235 575.07 232.825 570.147 232.712 564.253C232.64 560.266 236.686 557.644 233.832 553.267C231.96 550.402 227.924 548.757 225.243 545.776C220.269 540.235 212.098 521.568 204.001 521.044C200.848 520.844 192.691 524.191 191.641 527.22C190.211 531.354 202.369 548.15 201.753 557.593C201.371 563.486 193.213 585.084 190.007 590.266C186.637 595.728 170.33 603.867 181.33 609.841C190.044 614.567 198.567 591.269 210.462 590.408L210.478 590.392Z" fill="#DF6D26"/>
<path d="M299.97 385.16C300.108 389.642 293.618 393.947 291.09 397.132C287.82 401.274 279.681 417.407 274.684 406.724C271.823 400.589 278.446 394.633 278.01 390.629C277.55 386.238 267.946 379.679 273.199 373.837C277.195 371.066 279.488 375.013 282.17 375.815C286.684 377.163 299.742 378.292 299.953 385.16L299.97 385.16ZM279.067 407.741L297.32 385.497C293.733 377.992 287.377 379.293 281.484 377.573C279.091 376.878 276.162 372.675 274.608 377.264C273.219 381.374 280.374 386.107 280.899 390.961C281.499 396.516 272.045 402.182 279.067 407.741Z" fill="#DF6D26"/>
<path d="M482.809 520.204C487.132 524.597 485.15 527.419 486.501 531.481C487.227 533.661 489.075 535.197 489.66 537.649C490.03 539.192 487.026 554.684 486.249 556.137C482.449 563.217 472.411 564.467 466.325 569.854C461.642 573.987 457.181 582.453 451.938 585.298C447.826 587.525 416.709 583.514 411.526 581.167C405.552 578.473 393.645 570.105 389.735 565.002C382.715 555.828 383.978 540.096 393.754 533.431C396.058 531.856 407.336 527.107 410.192 526.283C415.567 524.726 427.113 527.447 431.431 525.625C436.129 523.638 438.897 517.837 443.083 515.355C446.733 513.194 454.07 515.369 456.786 514.322C463.35 511.791 463.106 503.867 473.23 511.722C475.689 513.621 480.681 518.007 482.834 520.196L482.809 520.204ZM466.008 511.545C464.819 511.726 460.739 515.521 458.131 516.477C454.341 517.87 448.151 516.067 445.121 517.675C440.563 520.083 437.531 526.462 432.792 528.358C426.641 530.807 416.721 527.582 411.553 528.9C408.779 529.609 396.651 534.894 394.43 536.585C391.432 538.853 390.012 540.058 389.003 543.755C383.115 565.527 408.44 579.217 426.59 582.008C430.923 582.679 444.518 583.85 448.505 583.53C454.134 583.087 461.099 571.345 466.318 567.088C471.487 562.865 479.701 561.59 483.509 556.845C485.037 554.939 488.173 539.959 487.481 537.631C486.928 535.757 485.138 534.147 484.495 532.149C483.745 529.812 483.797 525.223 482.766 523.877C482.081 522.977 473.36 515.634 471.834 514.453C470.976 513.792 466.66 511.438 466.008 511.545Z" fill="#DF6D26"/>
<path d="M600.977 475.484C599.92 475.401 598.533 476.258 597.237 476.101C578.98 473.879 567.091 478.281 548.588 471.272C531.043 464.627 528.195 449.371 507.511 445.233C499.464 443.62 485.618 449.993 477.372 450.608C472.749 450.952 466.946 451.42 468.592 445.156C470.246 438.85 487.05 426.898 492.518 420.512C509.325 400.85 495.978 367.818 532.228 359.112C551.999 354.359 568.965 365.726 587.702 366.495C594.14 366.762 608.594 365.903 615.098 365.048C617.625 364.719 621.059 364.126 623.321 363.021C628.242 360.63 639.804 348.337 640.839 343.178C642.403 335.412 635.984 329.796 634.955 323.315C634.552 320.798 635.142 312.387 636.291 310.266C639.521 304.3 643.415 308.33 647.674 308.86C649.391 309.076 650.985 307.682 654.179 308.666C661.252 310.857 662.685 315.876 666.448 317.941C667.719 318.635 684.169 319.874 688.412 321.015C716.448 328.549 740.272 356.511 737.648 386.374C736.851 395.453 729.525 420.014 724.049 426.838C719.829 432.094 708.684 434.762 706.486 438.377C704.752 441.215 706.425 444.658 706.086 447.324C705.464 452.153 701.363 465.671 698.489 469.269C692.517 476.719 678.504 471.677 669.835 474.429C660.168 477.503 653.518 486.192 641.747 487.705C638.924 488.066 622.555 488.099 620.517 487.38C614.228 485.181 608.694 476.074 601.001 475.476L600.977 475.484ZM734.803 381.923C734.032 356.623 713.064 328.349 687.709 323.565C682.723 322.622 670.663 323.499 666.479 321.937C662.617 320.498 657.751 312.753 652.155 310.588C642.391 310.343 638.406 306.024 638.424 319.207C638.435 329.756 649.928 339.493 641.734 350.715C639.479 353.809 630.527 362.753 627.422 365.013C618.595 371.455 577.308 368.429 565.77 366.327C553.257 364.042 547.169 358.046 532.895 362.059C497.313 372.061 510.786 402.23 492.508 423.261C486.949 429.655 477.801 435.296 473.233 441.064C472.077 442.516 471.119 443.935 471.151 445.883C476.265 452.489 483.094 446.409 488.32 444.918C495.874 442.768 503.147 441.525 511.004 442.916C528.031 445.921 535.765 463.226 551.321 469.416C555.019 470.887 567.25 473.849 571.179 474.016C579.26 474.342 584.9 469.483 593.104 470.659C606.055 472.523 608.513 476.008 618.439 482.591C622.086 485.004 645.223 485.09 649.261 483.235C655.024 480.58 662.852 474.492 668.45 472.101C676.4 468.713 691.776 472.724 696.575 467.254C697.962 465.669 703.325 453.745 703.88 451.442C705.12 446.226 702.647 440.182 704.359 434.942C705.697 432.615 714.869 429.045 717.801 426.645C725.761 420.095 735.119 392.546 734.795 381.931L734.803 381.923Z" fill="#DF6D26"/>
<path d="M487.456 667.448C487.128 662.726 479.38 656.903 477.517 652.081C477.369 651.702 477.298 644.182 477.489 643.81C483.388 632.555 501.092 635.808 507.319 628.778C513.142 622.202 504.044 609.808 518.37 600.628C530.301 592.982 547.009 590.795 551.153 574.66C552.063 571.144 550.242 563.888 551.614 560.933C553.432 557.022 562.621 552.33 567.021 551.614C575.095 550.281 581.794 557.119 588.941 559.681C592.869 561.086 612.678 563.639 616.335 562.642C624.236 560.492 628.449 554.22 637.576 558.93C642.139 561.285 646.397 565.084 646.485 570.606C646.597 577.458 637.508 594.572 632.759 599.366C628.349 603.821 616.064 608.437 613.851 611.639C610.422 616.581 613.14 629.311 612.931 634.981C612.788 638.968 606.664 655.02 604.614 659.641C600.317 669.33 592.28 680.312 580.658 679.464C570.25 678.708 559.043 673.254 548.466 678.771C537.915 684.28 537.166 695.323 523.8 698.874C515.611 701.049 516.05 698.598 509.422 697.497C498.684 695.717 495.34 698.497 488.824 686.987C483.464 677.541 487.989 674.654 487.481 667.473L487.456 667.448ZM559.762 671.711C575.454 671.645 584.28 682.562 596.942 666.464C603.088 658.658 608.902 635.376 608.759 625.371C608.631 616.275 603.523 613.408 614.258 605.836C622.21 600.235 626.418 602.532 634.199 591.822C638.966 585.246 647.066 564.449 634.834 561.752C628.165 560.279 623.161 564.519 617.027 565.548C612.504 566.305 594.212 565.041 589.624 563.982C578.482 561.401 572.214 549.578 559.49 557.85C550.729 563.549 556.093 566.128 554.595 573.977C551.152 592.002 534.229 595.18 521.101 603.13C509.582 610.116 514.393 613.726 512.571 624.043C509.459 641.689 483.965 633.446 481.259 647.238C479.728 655.005 492.561 660.187 492.34 671.908C492.281 674.92 490.472 677.701 491.287 680.814C492.235 684.454 496.26 690.911 499.816 692.407C503.357 693.903 519.229 695.735 523.101 694.59C538.283 690.099 537.483 671.807 559.762 671.711Z" fill="#DF6D26"/>
<path d="M222.392 665.959C222.393 664.704 225.92 660.406 227.183 659.507C230.618 657.065 239.302 657.68 242.282 656.105C246.303 653.986 249.492 648.705 253.241 645.884C260.152 640.695 267.273 645.957 274.471 646.902C291.152 649.081 311.778 634.778 327.221 636.33C334.411 637.052 357.486 643.849 364.881 646.527C373.39 649.61 380.32 655.507 388.16 659.572C404.004 667.785 426.009 669.398 430.184 690.374C431.386 696.384 426.165 703.596 422.209 708.175C414.677 716.888 409.031 715.548 399.776 719.513C396.878 720.758 385.13 725.779 383.338 726.959C377.261 730.951 370.536 741.232 362.776 742.895C359.912 743.513 345.898 739.775 342.919 738.296C336.853 735.296 330.566 730.275 323.741 727.737C307.962 721.885 290.478 722.784 273.743 713.497C257.611 704.55 255.743 692.77 244.984 683.371C240.364 679.34 222.365 671.844 222.376 665.943L222.392 665.959ZM354.228 737.014C355.334 737.213 356.324 738.781 357.991 739.063C366.855 740.57 377.221 728.119 384.033 723.822C393.867 717.628 414.422 713.429 421.715 706.111C425.266 702.564 428.762 693.956 427.246 689.003C421.889 671.418 404.192 671.013 390.923 664.271C384.057 660.784 377.225 655.085 370.376 651.68C365.408 649.202 330.134 638.42 325.52 638.426C311.694 638.427 291.043 650.839 275.848 649.899C270.903 649.591 262.214 645.319 258.045 646.646C252.604 648.368 249.101 655.514 244.336 658.508C240.645 660.826 230.923 659.236 227.528 663.502C226.429 664.88 225.107 667.521 226.493 668.974C230.338 673.021 244.071 677.815 249.821 682.779C255.985 688.09 257.911 697.534 264.859 702.704C285.726 718.242 303.589 717.64 325.822 725.212C337.599 729.222 340.494 734.58 354.228 737.03L354.228 737.014Z" fill="#DF6D26"/>
<path d="M544.627 260.594C544.622 254.098 559.204 243.656 562.129 238.341C564.434 234.141 558.272 227.146 562.724 221.891C564.516 219.77 566.984 219.945 568.29 216.413C568.778 215.084 568.171 206.846 567.536 205.417C566.299 202.627 563.963 202.634 562.388 199.323C555.355 184.602 581.243 180.95 590.547 178.14C594.022 177.094 599.976 172.928 603.541 175.241C607.105 177.554 602.65 190.074 603.696 193.83C604.52 196.819 608.249 200.122 610.014 203.425C613.708 210.361 613.962 230.732 608.899 237.028C608.007 238.134 602.672 243.447 601.532 244.354C592.779 251.3 582.026 247.472 572.018 253.757C566.048 257.51 557.838 268.203 550.781 267.118C547.488 266.613 544.658 264.078 544.66 260.578L544.627 260.594ZM601.814 178.418L599.998 177.427C591.51 182.986 569.677 183.231 564.761 192.448C562.406 196.863 569.932 201.572 571.225 206.154C571.588 207.442 571.56 214.499 571.154 215.745C569.699 220.285 565.142 221.685 563.943 226.018C562.876 229.889 567.158 234.786 565.58 237.666C561.986 243.302 548.756 255.957 549.983 262.322C551.564 270.462 560.6 258.844 563.085 256.856C571.996 249.737 574.712 248.228 585.7 245.98C588.003 245.511 593.533 245.894 595.292 244.912C596.861 244.038 609.281 232.984 610.082 231.506C611.272 229.311 610.537 214.007 609.721 210.961C607.686 203.292 603.948 201.499 600.393 195.892C598.373 192.713 600.524 182.281 601.814 178.418Z" fill="#DF6D26"/>
<path d="M520.061 262.646C520.291 263.637 516.376 269.958 515.904 271.881C514.175 278.987 520.684 285.932 513.821 293.811C510.327 297.813 487.835 311.9 482.229 314.382C478.159 316.187 474.7 317.779 471.202 313.683C469.412 311.593 474.936 307.081 475.903 304.052C478.293 296.616 473.828 277.91 478.074 273.174C483.392 267.25 494.579 263.747 502.116 261.861C505.971 260.897 518.702 256.876 520.052 262.638L520.061 262.646ZM477.079 313.983L512.295 292.482C513.542 290.443 514.361 287.959 514.51 285.582C514.735 281.826 512.254 275.313 512.437 272.572C512.628 269.675 517.385 265.154 515.182 262.949C512.979 260.744 505.078 264.76 502.123 265.468C494.651 267.272 490.475 266.824 483.621 272.219C475.421 278.678 479.498 281.173 479.535 288.99C479.572 296.79 479.238 304.698 475.297 311.588L477.07 313.975L477.079 313.983Z" fill="#DF6D26"/>
<path d="M110.242 500.146C110.598 497.282 113.463 495.987 114.298 493.635C114.976 491.704 112.518 487.79 112.899 484.736C113.853 476.936 125.24 468.102 132.17 474.428C136.23 478.128 135.213 481.206 136.796 484.74C139.607 491.04 143.254 494.459 144.356 502.549C146.239 516.409 120.78 520.87 113.909 512.174C112.49 510.374 109.977 502.292 110.25 500.137L110.242 500.146ZM125.608 475.159C121.472 475.314 114.857 481.658 114.921 486.099C114.945 488.287 117.023 491.16 116.444 493.636C115.758 496.583 113.108 497.068 112.858 500.485C112.825 500.964 114.109 507.552 114.332 508.039C118.331 516.7 141.156 514.095 141.07 503.934C141.062 502.902 138.813 495.034 138.261 493.656C137.115 490.758 134.788 488.643 133.832 486.117C132.505 482.658 135.188 480.703 130.782 477.3C129.965 476.664 126.508 475.135 125.6 475.168L125.608 475.159Z" fill="#DF6D26"/>
<path d="M143.032 541.904C149.732 546.349 160.81 562.871 149.177 566.951C142.135 569.416 130.869 550.672 130.162 545.026C129.307 538.224 139.047 539.269 143.024 541.913L143.032 541.904ZM151.375 562.495C150.188 559.556 151.584 557.121 150.414 553.935C148.609 548.989 140.161 539.889 134.802 543.625C133.266 544.698 136.277 548.95 135.07 551.162C139.294 556.562 143.093 567.864 151.375 562.495Z" fill="#DF6D26"/>
<path d="M516.943 97.0949C518.966 97.0877 522.318 95.2074 524.142 95.8439C525.966 96.4804 530.462 100.998 531.394 102.707C532.87 105.407 530.447 113.965 534.026 119.828C538.29 126.822 543.149 133.716 545.893 141.749C547.5 146.447 545.921 151.407 548.164 156.13C548.204 158.928 544.265 162.632 541.912 164.009C540.987 164.554 522.436 170.446 521.363 170.561C510.425 171.703 511.475 153.395 507.979 146.526C502.577 135.933 496.643 135.756 491.363 129.447C490.299 128.184 482.498 112.992 481.674 110.895C479.885 106.395 482 101.543 485.741 98.6308C486.286 98.2018 497.588 94.2538 498.81 93.9737C503.317 92.936 510.703 97.1082 516.96 97.0784L516.943 97.0949ZM545.186 152.372C545.812 139.174 535.219 128.438 530.643 117.779C528.698 113.238 530.428 103.276 526.929 100.666C525.263 99.4269 503.405 98.7058 499.468 97.8371C494.4 98.9076 480.159 102.161 482.607 109.533C482.994 110.697 491.249 126.36 492.033 127.359C497.271 134.023 503.725 135.166 509.11 145.164C512.582 151.629 511.401 168.748 521.348 167.722C522.355 167.623 539.643 161.788 540.526 161.285C544.275 159.14 544.994 156.343 545.186 152.372Z" fill="#DF6D26"/>
<path d="M427.527 620.838L425.207 623.073L423.151 623.031C418.671 619.174 413.696 613.979 408.778 610.807C402.433 606.718 393.35 611.98 391.672 600.588C408.35 593.646 418.586 609.161 427.536 620.829L427.527 620.838ZM412.873 610.215C416.52 612.891 419.836 617.895 423.483 620.836L419.705 614.329C412.487 605.964 405.293 599.835 393.694 601.324C391.919 602.52 393.347 603.057 394.37 604.097C398.544 608.326 406.858 605.829 412.865 610.223L412.873 610.215Z" fill="#DF6D26"/>
<path d="M375.992 420.032C379.309 421.816 385.446 428.935 386.262 432.79C388.732 444.397 377.224 448.122 372.506 456.069C367.293 464.84 373.03 481.814 360.2 487.223C352.868 490.306 346.846 482.791 341.028 481.03C336.712 479.732 334.143 482.1 329.382 478.523C316.552 468.9 315.584 456.139 317.795 441.653C321.041 438.56 323.998 435.045 327.359 432.083C329.275 430.4 335.064 425.673 336.954 424.89C340.067 423.612 343.136 425.612 345.86 425.2C348.708 424.781 351.805 421.984 354.769 421.878C357.418 421.772 359.654 423.895 362.296 423.797C365.919 423.659 373.268 418.561 376 420.024L375.992 420.032ZM374.62 422.739C372.375 421.648 365.787 425.111 362.972 425.267C360.19 425.422 356.79 423.423 354.074 423.892C351.482 424.336 349.682 426.399 347.23 427.116C344.91 427.8 341.609 426.692 339.702 427.36C336.688 428.406 324.608 437.043 322.535 439.609C314.812 449.205 321.827 467.855 330.771 474.611C334.319 477.288 339.379 476.523 343.101 477.952C349.604 480.465 355.626 489.449 362.266 482.139C370.442 473.146 363.845 461.784 371.906 451.949C375.788 447.213 383.954 442.785 383.429 436.198C383.134 432.335 378.028 424.383 374.636 422.722L374.62 422.739Z" fill="#DF6D26"/>
<path d="M397.573 412.185C403.013 411.04 407.629 407.831 413.02 406.72C415.289 407.522 415.581 417.559 414.433 419.795C411.111 426.282 406.638 424.876 401.338 426.359C396.508 427.719 393.27 432.901 389.386 425.28C386.442 419.492 386.859 412.559 394.519 411.523C395.559 411.375 396.904 412.325 397.565 412.176L397.573 412.185ZM397.571 415.338C389.699 411.19 387.993 421.903 393.761 425.992L410.899 420.537C413.756 418.606 411.795 411.837 410.6 409.17L399.635 414.645L408.178 414.972C407.356 424.868 385.705 424.04 397.571 415.321L397.571 415.338ZM396.207 419.439C395.975 422.427 406.031 417.909 406.469 416.019C404.555 415.259 396.348 417.648 396.207 419.439Z" fill="#DF6D26"/>
<path d="M349.439 255.022C348.562 258.357 341.042 259.484 339.126 261.596C338.019 262.817 338.48 264.881 337.737 266.333C335.737 270.245 331.473 279.636 326.177 273.938C321.928 269.354 325.462 266.665 325.34 262.91C325.218 259.22 318.9 250.269 321.262 247.86C322.22 246.886 324.234 246.953 325.415 246.17C329.172 243.654 332.195 239.727 337.741 241.116C342.165 242.224 350.646 250.417 349.439 255.055L349.439 255.022ZM329.842 272.14C334.293 269.74 333.892 262.98 336.287 260.109C338.682 257.237 345.46 255.615 345.989 254.047C346.948 251.208 339.514 243.882 337.055 243.023C332.334 241.386 326.775 249.018 322.334 249.528C324.553 253.219 328.973 260.287 328.765 264.603C328.631 267.327 325.395 269.274 329.842 272.14Z" fill="#DF6D26"/>
<path d="M323.192 524.835C329.224 528.082 327.74 540.653 330.444 547.158C332.34 551.716 344.615 565.986 332.078 564.98C324.245 564.357 322.108 561.129 316.324 558.047C309.392 554.345 289.29 559.973 287.079 556.719C285.804 548.077 290.023 545.644 297.156 542.791C300.03 541.637 307.104 540.658 308.723 539.339C312.24 536.468 309.958 527.758 317.719 524.593C318.561 524.246 322.325 524.38 323.192 524.851L323.192 524.835ZM334.977 561.193C335.415 559.633 327.513 547.825 326.327 544.408C324.744 539.85 325.897 528.452 320.623 527.351C311.452 528.312 314.567 537.773 309.522 541.592C304.138 545.684 287.531 543.793 289.63 555.326C290.579 556.276 309.921 551.968 316.317 555.282C318.429 556.372 333.091 567.845 334.969 561.185L334.977 561.193Z" fill="#DF6D26"/>
<path d="M219.232 550.198C219.131 553.747 218.655 564.634 216.92 566.994C213.814 571.202 210.76 571.878 207.336 567.708C204.177 563.868 206.212 554.706 204.968 549.844C203.362 543.561 196.818 539.357 197.961 533.398C199.682 524.385 206.295 522.828 212.242 529.971C217.076 535.768 219.45 542.967 219.232 550.198ZM215.86 557.724C217.22 545.673 217.538 537.436 207.439 528.598C192.067 532.569 204.758 541.045 207.016 549.168C208.763 555.459 204.368 562.605 210.085 567.42L214.32 566.985C216.492 565.178 215.562 560.316 215.86 557.741L215.86 557.724Z" fill="#DF6D26"/>
<path d="M283.706 391.276C283.623 390.913 284.235 390.121 284.078 389.452C283.666 387.62 280.878 385.323 282.81 383.393C292.412 380.088 294.873 392.512 284.877 393.753C283.845 393.728 283.87 392.069 283.698 391.284L283.706 391.276Z" fill="#DF6D26"/>
<path d="M399.181 557.809L410.184 542.346C414.924 537.445 420.513 537.423 426.613 536.395C427.761 536.205 429.246 536.982 430.724 536.727C435.784 535.879 441.052 531.887 447.161 531.593C456.076 531.152 467.91 536.705 464.957 547.211C458.011 556.031 456.131 567.529 444.4 571.212C438.283 573.132 431.879 569.91 425.903 569.808C422.073 569.74 414.725 572.163 411.523 570.808C408.726 569.626 399.188 560.508 399.189 557.801L399.181 557.809ZM401.971 557.81C401.606 561.211 407.695 567.421 410.847 568.76C414.577 570.347 421.727 567.66 425.92 567.695C434.059 567.765 440.619 572.927 448.521 566.947C452.865 563.664 459.606 552.458 461.639 547.209C464.656 539.443 454.497 534.675 447.861 534.821C442.297 534.95 437.59 538.513 432.794 539.543C426.545 540.885 418.63 538.297 412.874 543.75C411.221 547.91 402.386 554.129 401.988 557.794L401.971 557.81Z" fill="#DF6D26"/>
<path d="M705.66 375.049C705.807 379.226 704.004 401.124 702.674 404.169C700.013 410.26 690.897 415.851 688.648 423.345C687.201 428.173 689.681 436.404 686.658 441.157C682.841 447.164 677.5 449.217 672.553 452.904C665.188 458.381 655.221 466.011 647.204 470.324C631.26 478.892 621.805 469.725 607.477 467.852C602.962 467.264 598.52 469.111 593.774 468.407C588.5 467.636 583.31 464.555 578.019 463.306C567.298 460.766 566.711 462.359 556.108 455.824C546.321 449.794 544.117 449.834 534.883 445.512C527.885 442.24 519.801 432.116 512.289 432.921C509.201 433.249 496.602 439.203 495.12 432.896C493.456 425.829 511.873 421.802 515.146 414.375C518.741 406.246 518.451 408.136 523.935 401.37C528.139 396.18 531.346 387.416 540.401 389.096C545.501 390.04 551.435 392.527 556.842 392.489C560.878 392.466 562.126 390.098 567.118 392.205C575.478 395.734 578.382 399.698 589.031 398.663C597.211 397.867 598.666 393.278 604.106 391.902C607.227 391.111 612.888 393.211 617.115 392.404C622.316 391.416 626.825 387.688 632.19 386.568C635.872 385.794 641.501 386.787 644.696 386.186C651.474 384.927 663.338 379.196 667.872 374.039C674.001 367.076 664.266 356.588 677.07 352.789C692.66 357.543 704.961 354.941 705.652 375.058L705.66 375.049ZM685.093 435.329C686.309 429.84 685.285 429.774 685.527 425.391C686.01 416.526 695.696 410.497 698.927 403.474C699.538 402.153 703.456 376.559 703.423 374.71C703.279 366.719 699.187 361.798 691.801 359.194C690.406 358.706 678.15 355.984 677.424 356.099C668.549 357.473 676.121 368.588 671.999 374.009C666.829 380.824 654.882 386.489 646.577 388.168C642.714 388.942 637.489 388.403 633.559 389.292C627.756 390.618 620.498 395.179 615.066 395.771C612.326 396.067 607.877 394.356 604.79 395.328C597.64 397.57 596.961 402.208 586.288 402.063C575.128 401.908 571.491 396.384 563.683 394.581C560.002 393.737 540.432 391.886 536.973 392.471C526.993 394.141 530.012 397.841 525.932 403.418C524.296 405.646 521.77 407.164 520.159 409.581C518.49 412.073 518.86 415.763 516.448 418.536C512.062 423.593 501.422 424.372 497.58 431.84C504.231 434.898 509.204 428.627 516.409 430.323C517.408 430.563 526.948 434.183 527.426 434.53C529.844 436.273 529.917 439.071 533.523 441.145C538.581 444.061 545.325 444.238 549.963 446.601C553.742 448.535 556.316 451.672 559.551 453.771C568.892 459.851 575.686 458.36 585.573 461.221C588.693 462.131 591.366 464.476 594.477 465.048C598.225 465.726 604.119 463.699 608.865 464.502C622.979 466.903 633.49 475.559 648.593 465.455C651.128 463.764 659.245 458.642 660.797 457.273C662.754 455.549 663.408 453.031 666.413 451.052C673.275 446.524 679.876 450.242 684.967 438.391C685.727 436.625 684.944 436.055 685.101 435.337L685.093 435.329Z" fill="#DF6D26"/>
<path d="M587.605 587.927C589.239 588.902 589.354 590.85 589.6 592.484C591.303 603.62 577.267 611.389 572.096 619.178C568.973 623.898 571.528 631.163 569.495 636.297C564.734 648.362 545.981 646.751 537.509 652.343C532.522 655.642 523.502 667.557 516.919 660.967C515.475 659.522 515.055 658.126 514.998 656.137C514.65 642.459 541.341 632.559 549.196 622.584C556.019 613.937 550.422 599.332 564.936 592.835C567.397 591.73 586.046 586.993 587.589 587.91L587.605 587.927ZM584.136 592.498C574.18 594.491 565.455 594.99 558.682 603.422C555.23 607.729 556.697 610.966 555.201 615.612C549.728 632.63 532.178 634.717 521.697 647.25C518.855 650.65 514.055 659.702 521.756 659.649C526.494 659.618 531.154 652.059 535.456 649.23C543.581 643.902 563.721 644.672 566.228 633.571C567.808 626.547 563.749 621.791 569.721 614.39C574.759 608.152 586.641 601.563 584.136 592.498Z" fill="#DF6D26"/>
<path d="M402.607 687.908C405.982 690.213 410.922 699.254 408.79 703.363C404.378 711.88 393.566 709.778 386.111 712.886C378.986 715.862 374.071 721.547 365.553 721.889C357.183 722.231 351.927 717.614 344.326 715.39C341.545 714.572 339.357 715.189 336.105 713.983C327.192 710.693 320.783 702.642 313.512 699.609C306.927 696.865 294.916 697.065 288.859 693.76C280.673 689.299 275.189 680.158 267.639 674.599C263.777 671.758 260.342 675.058 256.621 670.458C250.839 663.332 267.719 662.473 272.448 664.531C278.728 667.267 282.392 670.025 290.259 669.047C296.896 668.225 306.35 662.444 312.864 660.491C321.936 657.763 335.86 661.724 343.69 666.59C347.734 669.101 349.903 672.809 353.963 674.874C356.24 676.031 377.187 681.902 381.355 683.019C386.885 684.507 398.35 684.967 402.64 687.892L402.607 687.908ZM257.011 668.023C259.32 671.508 263.704 670.313 266.939 671.784C275.678 675.775 281.178 686.484 288.844 691.02C295.594 695.018 310.799 694.828 316.93 698.488C320.288 700.495 322.169 703.649 325.148 705.921C332.862 711.794 340.481 712.284 349.122 714.74C355.551 716.568 359.206 719.896 366.933 719.174C373.842 718.525 379.02 713.171 385.435 710.624C392.337 707.887 411.553 707.434 405.088 695.148C400.017 685.513 389.45 687.241 380.661 684.901C370.583 682.213 355.232 678.705 347.104 673.03C344.811 671.428 343.367 668.827 340.941 667.356C340.232 666.927 326.738 662.784 325.195 662.445C313.689 659.897 297.975 671.354 286.832 671.827C275.341 672.317 267.679 661.458 257.044 668.023L257.011 668.023Z" fill="#DF6D26"/>
<path d="M578.509 233.216C580.714 230.534 584.29 228.283 586.049 225.337C587.28 223.282 584.913 203.734 593.981 210.301C598.42 213.523 600.57 223.14 597.034 228.108C594.556 231.59 578.613 238.903 578.509 233.216ZM593.293 216.071C593.178 215.064 594.871 213.405 593.254 212.332C585.428 212.806 590.377 220.502 588.055 225.33L582.612 233.193C585.816 228.936 591.503 230.928 594.542 226.753C598.185 221.761 593.663 219.265 593.293 216.071Z" fill="#DF6D26"/>
<path d="M499.348 279.408C500.413 280.291 501.458 286.59 500.607 288.15C499.384 290.378 492.587 296.821 489.913 295.515C484.153 292.706 489.041 289.885 490.265 286.782C491.38 283.985 489.087 282.003 493.322 279.982C494.14 279.595 498.738 278.912 499.332 279.408L499.348 279.408ZM498.982 285.763C499.429 283.766 495.691 280.933 493.379 282.005C494.491 286.752 490.643 288.83 489.948 292.94C491.293 294.286 498.742 286.845 498.973 285.772L498.982 285.763Z" fill="#DF6D26"/>
<path d="M127.36 487.648C129.885 489.02 128.926 493.427 129.75 495.706C131.069 499.339 135.648 502.436 132.047 506.413C125.277 509.959 118.09 504.367 118.969 497.071C119.292 494.421 123.721 485.674 127.36 487.648ZM131.05 503.581L126.277 490.562C118.871 496.031 121.753 509.47 131.05 503.581Z" fill="#DF6D26"/>
<path d="M145.426 557.696L138.901 549.942C142.132 541.995 151.949 554.167 145.426 557.696Z" fill="#DF6D26"/>
<path d="M344.811 440.652C362.439 431.144 377.397 462.435 352.672 467.631C344.954 469.254 333.984 469.157 333.444 458.806C333.183 453.754 335.51 454.482 336.956 451.965C339.409 447.682 337.165 445.601 343.086 440.94C344.275 440 344.737 440.693 344.811 440.652C340.799 441.723 340.193 449.589 339.011 452.634C337.358 456.86 333.024 457.823 337.916 463.645C342.37 468.947 360.829 465.539 363.622 458.128C365.747 452.491 357.226 439.998 350.639 440.275C349.178 440.332 347.659 441.207 346.156 441.585C345.669 441.709 344.894 440.636 344.82 440.66L344.811 440.652Z" fill="#DF6D26"/>
<path d="M320.785 552.288L311.874 546.126L317.68 539.55C322.014 538.85 324.079 552.034 320.785 552.288Z" fill="#DF6D26"/>
<path d="M213.18 539.232L209.818 542.59C207.112 540.476 203.085 537.816 204.21 533.656L208.8 532.14L213.18 539.232Z" fill="#DF6D26"/>
<path d="M438.577 564.259C437.025 564.49 432.519 562.374 430.364 562.381C422.993 562.419 416.204 570.752 409.448 562.998C402.823 555.392 412.803 555.141 416.329 552.593C419.153 550.547 421.474 547.073 424.216 544.813C425.569 545.854 423.306 547.008 422.505 547.874C418.376 552.379 414.949 555.258 409.516 558.012C412.548 569.95 422.788 561.04 430.027 560.92C435.301 560.832 442.282 565.937 442.774 556.09C440.787 551.128 437.221 551.307 434.135 548.978C432.609 547.813 432.28 545.221 429.696 544.832L431.753 542.778C434.796 547.146 442.521 549.824 444.401 554.761C445.777 558.386 442.423 563.716 438.593 564.276L438.577 564.259Z" fill="#DF6D26"/>
<path d="M582.722 437.323L590.391 451.029C590.472 453.638 585.295 456.896 582.835 457.555C576.837 452.888 569.128 451.398 562.972 447.532C558.797 444.905 555.332 440.627 552.015 438.678C548.12 436.381 540.616 438.119 534.204 433.617C510.168 416.708 547.102 409.843 559.564 413.25C562.783 414.126 582.729 422.317 584.157 423.927C587.432 427.635 586.743 434.312 582.722 437.323ZM587.973 451.036L580.088 438.354C579.198 435.068 586.637 432.075 582.084 425.998C579.419 422.455 565.109 417.446 560.248 416.197C552.539 414.212 532.2 415.357 528.234 423.263C526.664 426.399 535.064 431.587 537.63 432.884C542.829 435.512 549.92 434.5 554.071 436.937C557.355 438.87 559.69 442.198 562.974 444.593C567.487 447.873 572.53 448.692 577.358 450.948C581.987 453.122 582.324 456.465 587.964 451.045L587.973 451.036Z" fill="#DF6D26"/>
<path d="M664.407 404.397C669.721 407.239 665.988 411.628 665.838 415.112C665.696 418.223 667.907 421.146 666.526 424.703C665.386 427.658 660.24 432.963 657.507 434.687C653.783 437.037 633.809 435.343 629.427 433.451C619.482 429.161 624.151 419.3 630.807 414.087C639.469 407.298 643.918 408.414 653.411 406.818C656.375 406.316 661.915 403.091 664.399 404.421L664.407 404.397ZM645.523 432.452C654.908 432.663 658.449 433.333 663.745 423.324C662.525 420.648 664.677 408.499 663.737 407.541C661.435 405.171 656.769 409.056 654.095 409.435C652.138 409.723 650.389 408.649 648.622 408.978C640.318 410.542 628.628 413.739 626.7 423.305C624.747 432.961 638.903 432.3 645.531 432.444L645.523 432.452Z" fill="#DF6D26"/>
<path d="M307.016 682.436C307.119 689.626 315.738 687.435 320.36 688.345C338.212 691.862 347.825 714.204 370.354 709.238C373.763 708.488 392.611 702.629 392.629 699.592C388.232 695.569 381.466 690.514 375.846 688.522C363.582 684.174 350.859 689.062 338.174 685.96C335.855 685.39 333.751 683.779 331.332 683.175C323.277 681.157 316.095 683.811 308.039 682.074L310.104 680.011C317.194 680.997 323.427 679.325 330.64 680.847C335.32 681.832 339.537 684.236 344.332 684.874C354.592 686.241 362.973 680.591 373.099 684.88C379.626 687.649 385.509 692.828 392.343 695.208C396.204 698.793 394.708 703.059 390.199 705.467C383.908 708.832 367.166 713.182 360.06 711.767C341.687 708.092 334.439 693.602 318.972 690.54C313.97 689.547 303.305 691.622 306.991 682.428L307.016 682.436Z" fill="#DF6D26"/>
<path d="M357.343 696.147C357.317 697.691 355.318 700.397 353.94 701.082C350.431 702.855 339.73 693.398 336.099 691.382C334.869 690.696 323.513 687.768 326.527 684.84C328.715 682.719 342.265 689.825 345.005 690.602C348.043 691.462 357.445 690.881 357.343 696.131L357.343 696.147ZM338.518 690.665C341.026 692.499 350.11 699.875 352.546 699.273C356.343 698.334 356.155 694.248 352.565 692.967L338.526 690.657L338.518 690.665Z" fill="#DF6D26"/>
<path d="M375.843 694.052C377.361 695.209 379.876 699.478 379.289 701.335C376.555 705.749 370.091 707.405 365.552 704.761C351.549 696.607 368.78 688.667 375.835 694.061L375.843 694.052ZM361.783 698.891C364.258 702.507 369.696 704.863 373.783 702.743C383.187 697.87 365.279 690.333 361.783 698.891Z" fill="#DF6D26"/>
<path d="M350.974 449.891C355.233 449.894 358.656 455.302 353.404 458.898C342.777 466.165 343 449.887 350.974 449.891ZM354.925 455.036C352.353 447.375 343.213 453.387 348.204 458.978L354.925 455.036Z" fill="#DF6D26"/>
<path d="M559.558 422.859C561.827 424.057 569.417 432.777 568.335 434.964C564.659 439.89 561.467 434.894 557.498 433.184C554.914 432.068 544.705 430.519 548.57 425.981C549.784 424.554 557.932 422.008 559.558 422.859ZM564.702 435.953L566.486 433.56C562.899 426.236 556.843 421.578 549.642 427.732L564.71 435.961L564.702 435.953Z" fill="#DF6D26"/>
<path d="M656.137 418.186C656.06 422.42 646.582 426.509 643.108 424.783C637.926 422.205 640.717 419.234 644.837 417.511L642.433 421.249C643.223 426.153 654.237 421.09 654.411 418.87L647.569 417.504C649.931 415.112 656.197 413.324 656.12 418.186L656.137 418.186Z" fill="#DF6D26"/>
</svg>
