<svg width="1245" height="351" viewBox="0 0 1245 351" fill="none" xmlns="http://www.w3.org/2000/svg">
<path d="M1244.97 29.8238V320.847C1244.97 337.015 1231.86 350.13 1215.7 350.13H29.268C13.1082 350.13 0 337.015 0 320.847V29.8238C0 13.6558 13.1082 0.541016 29.268 0.541016H1215.7C1231.86 0.541016 1244.97 13.6558 1244.97 29.8238Z" fill="#273617"/>
<path d="M841.975 165.239C858.794 160.902 876.41 168.396 893.645 168.396C930.092 168.396 1139.54 134.36 1245 34.3684V29.8233C1245 25.1395 1243.92 20.7332 1241.98 16.8473C1241.25 17.3677 1240.53 17.9575 1239.83 18.5474C1138.33 107.263 918.613 147.787 891.911 148.967C877.312 149.487 884.352 143.832 892.258 139.703C916.741 126.519 939.108 108.616 960.539 90.5746C978.64 73.8168 1035.48 23.9251 1052.54 5.57136C1054.1 3.66312 1055.38 1.99775 1056.28 0.540555H1036.59C1005.03 23.1965 946.113 79.4374 918.336 100.81C907.759 107.888 895.414 118.678 882.895 121.21C880.468 120.517 881.716 115.971 881.855 113.786C882.375 110.871 880.398 109.969 881.855 105.147C882.964 101.226 885.427 96.5422 887.369 92.691C899.575 69.931 928.947 24.3762 943.442 0.505859H931.964C930.438 3.24678 928.808 5.88362 926.797 8.06941C900.997 36.7623 863.268 91.9971 847.593 127.594C844.854 134.464 837.155 144.179 829.977 143.173C821.446 141.264 823.631 130.578 822.556 123.257C822.209 119.163 821.966 115.451 821.862 111.392C821.62 86.4806 852.067 34.4378 862.851 13.3084C865.036 9.00618 868.469 4.77337 871.729 0.505859H852.275C843.189 16.1187 818.152 57.4754 810.939 76.9741C803.761 98.1729 793.288 115.971 789.161 138.627C787.982 143.866 786.283 149.279 782.538 152.991C775.741 159.826 761.419 159.583 750.669 159.826C728.406 159.618 754.137 126.033 757.396 115.694C772.343 89.6378 776.712 52.9997 794.536 30.0662C797.31 25.1742 810.8 10.4287 817.042 0.540555H793.461C788.19 7.86124 782.434 17.1249 779.209 22.2251C755.246 56.0182 745.883 98.2422 725.285 134.117C720.707 141.091 716.442 148.654 709.506 153.165C702.293 157.502 687.902 158.716 683.498 154.726C679.58 149.452 684.226 139.599 686.758 130.231C688.804 124.021 691.786 117.741 694.11 111.808C697.612 103.204 693.867 102.544 697.335 94.3911C705.935 76.3149 713.911 54.561 722.753 37.6991C729.585 24.2721 743.491 14.4533 749.143 0.540555H735.341C731.388 6.05709 727.157 12.9961 721.782 16.4657C717.586 18.7208 714.708 20.9066 712.662 25.4517C705.935 39.3645 693.347 64.7961 686.307 80.4783C679.614 104.418 670.009 127.698 654.404 147.509C646.74 160.347 632.973 160.936 618.79 162.359C615.703 162.706 610.293 162.637 609.288 161.006C608.247 159.896 608.56 157.987 609.531 155.489C615.842 143.138 619.102 127.803 623.228 114.237C634.013 80.7559 645.907 49.3914 663.732 18.5474C666.853 12.6492 671.846 6.7163 675.384 0.57525H650.832C649.271 3.31617 647.919 6.12648 646.636 8.93679C620.246 67.3635 609.635 113.994 589.972 142.548C584.355 150.736 580.54 162.185 570.275 164.892C561.883 166.835 547.145 167.043 542.013 164.302C534.8 159.375 546.244 142.687 546.833 134.846C556.786 89.0133 561.953 40.7523 588.03 0.540555H567.293C562.403 10.6022 559.144 21.774 555.191 31.5581C546.695 54.6998 538.684 79.4028 531.124 103.655C524.882 125.2 508.965 143.242 496.134 161.179C492.181 165.377 488.367 165.759 480.876 165.898C468.878 166.175 447.169 166.731 432.015 167.078C423.727 167.286 417.416 167.667 416.202 165.967C415.266 164.892 416.237 162.949 418.144 160.208C421.022 156.114 425.426 150.528 428.651 145.011C446.511 112.502 460.035 79.3334 479.628 47.3791C488.297 30.3437 498.596 15.1472 510.04 0.57525H485.141C484.205 1.06098 483.477 1.26915 483.477 0.57525H473.975C445.782 38.1849 439.089 90.3664 408.642 124.541C397.892 137.101 382.773 145.324 373.063 158.959C365.053 173.6 347.991 171.796 333.739 175.023C328.363 175.751 322.017 177.694 317.925 175.96C311.614 172.629 331.103 145.775 331.97 138.107C343.448 106.777 347.575 74.5454 347.575 41.4809C347.61 27.9151 346.881 14.1758 347.193 0.57525H327.323C322.538 29.2335 326.595 61.3266 319.451 87.1051C314.146 105.216 307.904 123.882 299.408 140.674C293.686 150.875 282.624 163.573 274.509 175.578C267.955 186.611 260.638 194.903 248.882 199.899C241.947 202.571 236.988 206.11 235.427 199.552C232.896 177.59 233.034 154.587 229.116 132.903C227.451 123.57 193.779 31.107 196.761 0.609945H175.296C181.503 67.1553 186.358 75.6557 191.144 103.273C193.259 115.625 202.032 153.061 204.564 165.239C210.355 193.203 211.881 213.881 196.692 226.719C180.186 240.666 171.377 231.298 160.835 226.372C151.091 221.827 137.74 203.716 133.475 193.793C118.112 157.71 66.824 57.4407 29.0946 0.540555C13.0388 0.64464 0.104033 13.586 0 29.6498C41.8213 90.9216 137.012 262.142 146.548 266.93C173.285 280.392 152.062 295.727 147.276 315.955C144.988 322.547 141.763 337.882 141.659 350.164H208.17C208.795 342.288 208.864 334.829 209.141 331.81C211.291 314.636 222.111 298.468 231.682 283.966C236.502 276.159 244.062 269.116 253.945 271.233C297.292 278.761 345.668 325.045 387.177 350.164H441.066C422.409 337.431 396.471 318.765 384.403 310.022C350.731 286.256 315.151 258.43 274.023 249.826C266.394 248.16 259.528 245.35 268.718 237.856C282.381 227.066 300.517 216.761 318.134 219.537C351.806 226.614 383.12 249.86 412.838 267.381C429.726 275.986 436.107 292.57 452.857 302.84C468.67 313.179 483.789 328.376 501.024 331.29C506.26 331.914 509.451 332.227 514.826 334.413C521.414 336.702 531.818 343.503 542.256 350.129H583.869C575.858 342.08 559.317 331.706 554.289 329.347C531.748 320.222 508.757 311.826 488.505 297.67C472.658 285.839 461.145 269.255 443.181 260.026C419.809 246.46 402.817 224.255 380.519 209.891C377.294 207.775 368.798 203.507 371.086 199.83C387.42 191.711 419.358 193.203 432.952 203.681C438.188 207.74 447.204 211.487 450.36 212.355C456.359 214.124 462.982 217.594 468.704 220.543C479.94 226.684 483.2 234.456 492.909 240.458C504.804 247.675 518.918 253.642 529.598 262.732C543.643 275.778 560.6 289.239 575.997 300.411C583.175 304.644 591.013 306.969 597.809 312.069C609.704 320.812 620.315 333.302 633.389 339.79C642.336 343.988 648.82 341.976 658.773 345.168C661.374 346.001 665.119 347.805 669.523 350.095H719.702C696.433 342.809 660.056 315.955 642.197 303.811C629.227 295.797 615.114 288.927 601.832 281.155C568.437 261.83 540.73 237.231 510.664 215.061C505.844 211.314 499.984 208.261 495.406 204.514C490.1 199.795 487.708 197.575 479.108 194.695C461.63 188.242 484.829 189.525 491.904 188.831C510.734 187.964 528.454 187.409 546.798 192.232C596.422 206.63 643.549 232.721 680.204 265.161C686.168 269.324 692.514 270.712 698.86 273.522C706.385 276.957 714.673 283.445 722.198 289.378C731.145 297.878 738.878 301.001 748.935 306.379C759.928 313.734 770.851 321.506 782.885 327.127C799.911 335.904 821.862 343.641 846.275 350.06H919.619C903.91 347.458 890.455 345.168 883.277 344.058C830.462 334.551 738.878 277.061 699.45 241.221C691.821 234.178 686.723 225.955 678.331 218.669C665.951 208.122 649.895 200.524 635.678 193.168C620.454 185.223 646.428 187.548 651.525 187.548C689.151 194.764 725.562 208.677 760.448 224.602C812.361 249.548 852.136 290.939 912.024 295.831C960.781 299.821 1100.67 303.499 1244.97 278.692V264.918C1143.85 271.302 902.661 278.449 868.851 258.603C831.607 236.78 794.675 216.379 757.05 197.332C753.963 195.424 740.959 189.074 746.854 186.021C785.104 177.521 809.066 193.654 841.663 212.667C847.559 216.102 974.202 255.134 1244.97 182.586V167.633C1196.1 172.212 1007.28 215.685 894.269 200.628C877 198.338 845.963 186.125 830.185 179.88C824.463 177.694 820.579 176.029 820.232 174.468C821.03 170.755 832.682 167.633 841.941 165.031L841.975 165.239Z" fill="#FBF9ED"/>
</svg>
