<?xml version="1.0" encoding="UTF-8"?>
<svg id="Camada_2" data-name="Camada 2" xmlns="http://www.w3.org/2000/svg" xmlns:xlink="http://www.w3.org/1999/xlink" viewBox="0 0 1150 89.14">
  <defs>
    <style>
      .cls-1 {
        fill: #5c6634;
      }

      .cls-2 {
        fill: #2a3318;
      }

      .cls-3, .cls-4 {
        fill: none;
      }

      .cls-4 {
        stroke: #5c6634;
        stroke-linejoin: bevel;
        stroke-width: .92px;
      }

      .cls-5 {
        clip-path: url(#clippath);
      }
    </style>
    <clipPath id="clippath">
      <rect class="cls-3" width="1150" height="89.14"/>
    </clipPath>
  </defs>
  <g id="Camada_1-2" data-name="Camada 1">
    <g class="cls-5">
      <g>
        <g id="_Repetição_de_grade_" data-name="&amp;lt;Repetição de grade&amp;gt;">
          <g>
            <polygon class="cls-2" points="209.32 36.88 209.07 34.06 209.74 31.27 209.87 31.07 211.25 33.56 212.01 36.29 212.95 36.68 214.1 36.4 214.1 35.63 213.14 32.86 211.94 30.16 211.95 30.25 214.05 30.83 215.54 32.36 216.99 33.92 217.39 34.28 218.39 33.72 218.69 32.95 216.69 31.01 214.81 29.05 212.51 27.59 209.9 26.79 209.16 26.19 209.78 24.35 210.05 22.49 210.21 21.89 212.07 21.57 213.95 21.46 214.4 22.16 215.08 24.87 216.45 27.33 218.78 28.92 220.95 30.53 221.49 30.64 222.25 29.75 221.99 28.79 220.12 27.79 218.73 26.19 217.67 24.37 218.06 23.96 220.62 25.38 223.32 26.56 224.23 26.36 224.23 25.13 224.02 24.33 221.34 23.44 219.05 21.78 219.01 21.61 221.83 21.91 224.63 21.31 225.26 21.09 225.22 19.91 224.63 19.73 221.83 19.45 219.02 19.26 218.87 18.94 221.32 17.52 223.82 16.14 224.3 15.84 224.06 14.68 223.36 14.55 220.45 15.24 217.99 16.94 217.55 16.57 219.06 15.07 220.27 13.37 221.77 11.9 222.16 11.3 221.24 10.5 220.74 10.13 218.74 12.03 216.71 13.87 215.4 16.27 214.2 18.8 213.95 19.55 212.08 19.28 210.22 19.09 209.9 18.52 209.45 16.67 209.5 14.78 209.94 14.49 212.55 13.51 215.01 12.2 217.04 10.29 218.56 7.97 218.26 7.51 217.26 6.94 216.78 6.93 215.42 8.52 213.88 9.93 211.98 10.8 211.83 10.77 213.59 8.34 214.04 5.35 213.97 5.06 212.88 4.55 212.1 4.74 210.9 7.27 209.64 9.77 209.28 9.75 209.17 6.93 209.11 4.12 208.84 3.37 207.67 3.96 207.06 4.11 207.31 6.93 207.12 9.74 207.03 9.66 205.4 7.37 204.35 4.76 203.57 4.34 202.49 4.88 201.84 5.53 202.9 8.35 204.55 10.86 204.32 11.21 202.7 9.85 201.26 8.36 199.81 6.87 199.14 6.75 198.27 7.54 197.74 8.1 199.83 9.97 201.59 12.08 204.09 13.2 206.59 14.36 207.21 14.8 206.59 16.63 206.73 18.53 206.27 18.79 204.42 19.2 202.54 19.26 201.75 18.89 201.56 16.07 199.69 13.96 198.01 11.75 195.82 10.03 195.28 10.5 194.46 11.36 194.82 11.77 196.33 13.28 197.84 14.76 198.87 16.61 198.46 17.02 195.88 15.63 193.22 14.33 192.53 14.7 192.05 15.8 192.47 16.71 195.23 17.45 197.45 19.22 197.5 19.29 194.69 19.63 191.87 19.37 191.14 19.91 191.16 21.09 191.87 21.65 194.68 21.65 197.49 21.66 197.65 22.07 195.09 23.28 192.59 24.6 192.06 25.19 192.43 26.32 193.13 26.36 196.05 25.73 198.7 24.33 198.83 24.36 197.92 26.3 196.21 27.59 194.49 28.74 194.63 29.54 195.35 30.46 195.64 30.66 197.81 29.01 199.6 26.97 201.07 24.71 202.33 22.2 202.56 21.45 204.42 21.78 206.28 22.03 206.39 22.49 206.99 24.33 206.79 26.23 206.6 26.69 204.03 27.65 201.66 29 199.36 30.61 198.04 33.08 198.19 33.6 199.22 34.1 199.89 34.19 201.04 32.44 202.62 31.05 204.29 29.74 204.75 30.27 203.35 32.85 201.92 35.49 202.44 36.29 203.69 36.2 203.89 36.06 205.65 33.75 206.91 31.25 207.28 31.25 207.18 34.07 206.88 36.89 207.67 37.52 208.84 37.02 209.32 36.88"/>
            <polygon class="cls-1" points="40.58 87.77 34.92 87.49 29.17 87.49 23.41 87.6 17.66 87.72 11.91 87.47 6.15 87.67 .32 87.94 .31 82.11 .42 76.36 .07 70.6 .07 64.85 .31 59.09 .13 53.34 .18 47.37 6.15 47.45 11.9 47.27 17.65 47.9 23.41 47.85 29.16 47.84 34.92 47.97 40.68 47.58 40.96 53.34 40.74 59.09 40.5 64.84 40.86 70.6 40.69 76.35 40.52 82.11 40.58 87.77"/>
            <polygon class="cls-1" points="132.97 87.77 127.31 87.49 121.55 87.49 115.8 87.6 110.05 87.72 104.29 87.47 98.54 87.67 92.71 87.94 92.69 82.11 92.81 76.36 92.46 70.6 92.46 64.85 92.7 59.09 92.52 53.34 92.57 47.37 98.54 47.45 104.29 47.27 110.04 47.9 115.8 47.85 121.55 47.84 127.31 47.97 133.07 47.58 133.35 53.34 133.13 59.09 132.89 64.84 133.25 70.6 133.08 76.35 132.91 82.11 132.97 87.77"/>
            <polygon class="cls-1" points="40.58 40.51 34.92 40.23 29.17 40.23 23.41 40.34 17.66 40.46 11.91 40.21 6.15 40.41 .32 40.68 .31 34.85 .42 29.1 .07 23.34 .07 17.59 .31 11.83 .13 6.08 .18 .11 6.15 .19 11.9 0 17.65 .64 23.41 .59 29.16 .58 34.92 .7 40.68 .31 40.96 6.08 40.74 11.83 40.5 17.58 40.86 23.34 40.69 29.09 40.52 34.85 40.58 40.51"/>
            <path class="cls-1" d="M133.13,11.83l.22-5.76-.28-5.76-5.76.39-5.76-.12h-5.76s-5.76.06-5.76.06L104.29,0l-5.75.18-5.96-.08-.05,5.97.18,5.76-.24,5.76v5.76s.35,5.75.35,5.75l-.12,5.75v5.83s5.84-.27,5.84-.27l5.76-.2,5.76.25,5.76-.12,5.75-.11h5.76s5.66.28,5.66.28l-.06-5.66.17-5.75.17-5.76-.35-5.76.23-5.75ZM125.49,18.42l-3.19,2.42-3.07,2.71-4.09.28-.53,1.15.09,2.72.59,2.68.22.39c-.08.09-.17.16-.29.21-.06,0-.11.01-.13.04,0,0,0,0,0,0-.11.03-.23.04-.37.04-.88,0-1.74-.17-2.62-.15-.39,0-.81.09-1.19.03-.08-.01-.16-.03-.24-.05-.04-.26-.06-.51-.06-.51l.36-2.7.48-2.69-1.09-.34-3.64-1.83-3.28-2.13-2.95-2.6-2.4-3.14.29-.42,1.33-1.05,1.16-.2,1.67,2.49,1.87,2.48,2.8,1.32.04-.19-2.02-3.84-.9-4.24.05-1.01,1.63-.53.86.76,1.92,3.62,1.75,3.72.59-.23.02-4.08v-4.08s.81-1.03.81-1.03l1.7-.03.78,1.06-.38,4.09.49,4.07.1-.06,2.57-3.23,1.07-4,1.32-.61,1.59.7.55.99-1.89,3.87-2.01,3.74.59.59,2.69-1.49,2.14-2.2,2.18-2.18.59-.52,1.24,1.19.69.78-2.5,3.18Z"/>
            <polygon class="cls-1" points="139.9 40.51 140.18 34.85 140.18 29.1 140.07 23.34 139.95 17.59 140.2 11.83 140 6.08 139.73 .25 145.56 .23 151.31 .35 157.07 0 162.82 0 168.57 .24 174.33 .06 180.3 .11 180.22 6.08 180.4 11.83 179.76 17.58 179.82 23.34 179.82 29.09 179.7 34.85 180.09 40.61 174.33 40.89 168.58 40.67 162.83 40.43 157.07 40.79 151.32 40.62 145.56 40.45 139.9 40.51"/>
            <path class="cls-2" d="M35.54,62.5l-.17.8-2.39,3.23-2.38,3.47-3.66,2.05-4.04,1.02-1.04.67.16,2.79.48,2.77s.05.12.05.37-.77.58-1.02.58-1.13-.05-1.56-.12c-.43-.07-1.5,0-1.64-.15-.14-.14,0-.68,0-.68l.28-2.78.41-2.77-1.12-.37-3.78-1.79-3.57-1.96-2.74-3.02-2.84-2.98.55-.73,1.2-1.38.89.58,2.19,2.24,2.52,1.8,2.24,2.26.56-.66-2.54-3.65-1.02-4.34.19-1.05,1.73-.36.43.71,2.06,3.73,2.13,3.65.47-.22.28-4.19.43-4.18.26-.87,1.75-.06.33.93.89,4.18-.44,4.2.25-.07,2.47-3.41,1.33-3.99,1.2-.31h1.83s.3,1.34.3,1.34l-1.76,4.03-2.12,3.81.62.59,2.71-1.59,2.38-2.06,1.49-2.8,1.43-.39,1.32,1.14Z"/>
            <polygon class="cls-4" points="66.53 53.07 66.76 55.67 66.14 58.24 66.03 58.42 64.76 56.13 64.06 53.62 63.19 53.26 62.13 53.52 62.13 54.23 63.01 56.78 64.12 59.26 64.11 59.17 62.17 58.64 60.81 57.23 59.48 55.8 59.11 55.46 58.19 55.98 57.91 56.69 59.75 58.47 61.48 60.28 63.6 61.62 66 62.35 66.67 62.91 66.11 64.6 65.85 66.31 65.71 66.86 64 67.16 62.27 67.26 61.86 66.61 61.23 64.12 59.97 61.86 57.83 60.4 55.83 58.92 55.34 58.82 54.63 59.63 54.87 60.52 56.6 61.44 57.87 62.91 58.85 64.58 58.49 64.96 56.14 63.65 53.65 62.56 52.82 62.75 52.82 63.88 53.01 64.62 55.48 65.44 57.58 66.96 57.62 67.12 55.02 66.85 52.45 67.4 51.87 67.6 51.91 68.68 52.45 68.84 55.03 69.11 57.61 69.28 57.75 69.57 55.5 70.88 53.2 72.15 52.76 72.42 52.98 73.49 53.62 73.61 56.3 72.98 58.55 71.41 58.96 71.76 57.57 73.14 56.46 74.69 55.08 76.04 54.72 76.6 55.57 77.34 56.03 77.68 57.87 75.93 59.73 74.24 60.94 72.03 62.04 69.7 62.27 69.01 63.99 69.26 65.7 69.44 66 69.96 66.41 71.66 66.36 73.39 65.96 73.66 63.56 74.57 61.3 75.77 59.43 77.52 58.03 79.66 58.31 80.09 59.22 80.61 59.67 80.62 60.92 79.16 62.34 77.86 64.08 77.06 64.22 77.08 62.6 79.32 62.18 82.07 62.25 82.33 63.25 82.8 63.97 82.63 65.07 80.31 66.24 78 66.57 78.03 66.67 80.61 66.72 83.2 66.97 83.89 68.05 83.35 68.61 83.21 68.37 80.62 68.55 78.03 68.63 78.11 70.13 80.21 71.1 82.61 71.82 83 72.81 82.5 73.41 81.9 72.43 79.31 70.92 77.01 71.13 76.68 72.62 77.93 73.94 79.3 75.27 80.67 75.89 80.78 76.69 80.05 77.17 79.54 75.25 77.82 73.63 75.88 71.34 74.85 69.04 73.79 68.47 73.38 69.04 71.69 68.91 69.95 69.33 69.71 71.03 69.34 72.76 69.28 73.49 69.62 73.67 72.21 75.39 74.16 76.92 76.18 78.94 77.77 79.43 77.33 80.19 76.54 79.86 76.16 78.47 74.78 77.08 73.42 76.14 71.71 76.51 71.34 78.88 72.62 81.33 73.82 81.96 73.47 82.41 72.46 82.02 71.62 79.48 70.94 77.44 69.31 77.4 69.25 79.98 68.94 82.57 69.18 83.25 68.68 83.23 67.6 82.57 67.08 79.99 67.08 77.4 67.07 77.25 66.7 79.61 65.58 81.91 64.37 82.39 63.82 82.06 62.79 81.42 62.76 78.73 63.33 76.3 64.61 76.17 64.59 77.01 62.81 78.59 61.62 80.17 60.56 80.04 59.82 79.37 58.98 79.1 58.79 77.11 60.32 75.47 62.19 74.12 64.27 72.95 66.58 72.74 67.26 71.03 66.96 69.32 66.73 69.22 66.3 68.67 64.62 68.86 62.87 69.03 62.45 71.39 61.57 73.57 60.32 75.68 58.84 76.9 56.57 76.76 56.09 75.81 55.63 75.2 55.55 74.14 57.16 72.69 58.44 71.15 59.65 70.73 59.16 72.02 56.78 73.33 54.36 72.85 53.62 71.7 53.7 71.52 53.83 69.9 55.95 68.74 58.25 68.41 58.25 68.5 55.66 68.77 53.07 68.05 52.49 66.97 52.95 66.53 53.07"/>
            <polygon class="cls-1" points="186.93 87.77 187.21 82.11 187.21 76.36 187.1 70.6 186.98 64.85 187.23 59.09 187.03 53.34 186.76 47.51 192.59 47.5 198.35 47.61 204.1 47.26 209.85 47.26 215.61 47.5 221.36 47.32 227.33 47.37 227.25 53.34 227.43 59.09 226.8 64.84 226.85 70.6 226.86 76.35 226.74 82.11 227.13 87.87 221.37 88.15 215.61 87.93 209.86 87.69 204.1 88.05 198.35 87.88 192.6 87.71 186.93 87.77"/>
          </g>
        </g>
        <g id="_Repetição_de_grade_-2" data-name="&amp;lt;Repetição de grade&amp;gt;">
          <g>
            <polygon class="cls-2" points="439.82 36.88 439.57 34.06 440.24 31.27 440.36 31.07 441.74 33.56 442.51 36.29 443.45 36.68 444.6 36.4 444.6 35.63 443.64 32.86 442.44 30.16 442.45 30.25 444.55 30.83 446.04 32.36 447.48 33.92 447.88 34.28 448.89 33.72 449.19 32.95 447.19 31.01 445.31 29.05 443.01 27.59 440.39 26.79 439.66 26.19 440.28 24.35 440.55 22.49 440.71 21.89 442.57 21.57 444.44 21.46 444.89 22.16 445.58 24.87 446.95 27.33 449.28 28.92 451.45 30.53 451.99 30.64 452.75 29.75 452.49 28.79 450.62 27.79 449.23 26.19 448.16 24.37 448.56 23.96 451.12 25.38 453.82 26.56 454.73 26.36 454.72 25.13 454.52 24.33 451.84 23.44 449.55 21.78 449.51 21.61 452.33 21.91 455.13 21.31 455.76 21.09 455.72 19.91 455.13 19.73 452.32 19.45 449.51 19.26 449.36 18.94 451.82 17.52 454.32 16.14 454.8 15.84 454.56 14.68 453.86 14.55 450.95 15.24 448.49 16.94 448.05 16.57 449.56 15.07 450.77 13.37 452.27 11.9 452.66 11.3 451.73 10.5 451.24 10.13 449.24 12.03 447.21 13.87 445.89 16.27 444.7 18.8 444.44 19.55 442.58 19.28 440.71 19.09 440.4 18.52 439.95 16.67 440 14.78 440.44 14.49 443.05 13.51 445.5 12.2 447.54 10.29 449.06 7.97 448.76 7.51 447.76 6.94 447.28 6.93 445.92 8.52 444.38 9.93 442.48 10.8 442.33 10.77 444.09 8.34 444.54 5.35 444.47 5.06 443.38 4.55 442.6 4.74 441.4 7.27 440.14 9.77 439.78 9.75 439.67 6.93 439.61 4.12 439.34 3.37 438.17 3.96 437.56 4.11 437.81 6.93 437.62 9.74 437.53 9.66 435.9 7.37 434.85 4.76 434.07 4.34 432.99 4.88 432.34 5.53 433.4 8.35 435.05 10.86 434.82 11.21 433.2 9.85 431.76 8.36 430.31 6.87 429.64 6.75 428.77 7.54 428.24 8.1 430.33 9.97 432.09 12.08 434.59 13.2 437.09 14.36 437.71 14.8 437.09 16.63 437.23 18.53 436.77 18.79 434.92 19.2 433.04 19.26 432.25 18.89 432.05 16.07 430.18 13.96 428.51 11.75 426.32 10.03 425.78 10.5 424.96 11.36 425.32 11.77 426.83 13.28 428.34 14.76 429.37 16.61 428.96 17.02 426.38 15.63 423.71 14.33 423.03 14.7 422.55 15.8 422.97 16.71 425.73 17.45 427.95 19.22 428 19.29 425.19 19.63 422.37 19.37 421.64 19.91 421.66 21.09 422.37 21.65 425.18 21.65 427.99 21.66 428.15 22.07 425.59 23.28 423.09 24.6 422.56 25.19 422.93 26.32 423.62 26.36 426.55 25.73 429.2 24.33 429.33 24.36 428.42 26.3 426.7 27.59 424.99 28.74 425.12 29.54 425.85 30.46 426.14 30.66 428.3 29.01 430.09 26.97 431.56 24.71 432.83 22.2 433.06 21.45 434.92 21.78 436.78 22.03 436.89 22.49 437.49 24.33 437.29 26.23 437.1 26.69 434.53 27.65 432.16 29 429.86 30.61 428.54 33.08 428.69 33.6 429.72 34.1 430.39 34.19 431.54 32.44 433.12 31.05 434.79 29.74 435.24 30.27 433.85 32.85 432.42 35.49 432.94 36.29 434.19 36.2 434.39 36.06 436.15 33.75 437.41 31.25 437.78 31.25 437.68 34.07 437.38 36.89 438.17 37.52 439.34 37.02 439.82 36.88"/>
            <polygon class="cls-1" points="271.08 87.77 265.42 87.49 259.67 87.49 253.91 87.6 248.16 87.72 242.4 87.47 236.65 87.67 230.82 87.94 230.81 82.11 230.92 76.36 230.57 70.6 230.57 64.85 230.81 59.09 230.63 53.34 230.68 47.37 236.65 47.45 242.4 47.27 248.15 47.9 253.91 47.85 259.66 47.84 265.42 47.97 271.18 47.58 271.46 53.34 271.24 59.09 271 64.84 271.36 70.6 271.19 76.35 271.02 82.11 271.08 87.77"/>
            <polygon class="cls-1" points="363.47 87.77 357.81 87.49 352.05 87.49 346.3 87.6 340.55 87.72 334.79 87.47 329.04 87.67 323.21 87.94 323.19 82.11 323.31 76.36 322.96 70.6 322.96 64.85 323.2 59.09 323.02 53.34 323.07 47.37 329.03 47.45 334.79 47.27 340.54 47.9 346.29 47.85 352.05 47.84 357.81 47.97 363.57 47.58 363.85 53.34 363.62 59.09 363.39 64.84 363.75 70.6 363.58 76.35 363.41 82.11 363.47 87.77"/>
            <polygon class="cls-1" points="271.08 40.51 265.42 40.23 259.67 40.23 253.91 40.34 248.16 40.46 242.4 40.21 236.65 40.41 230.82 40.68 230.81 34.85 230.92 29.1 230.57 23.34 230.57 17.59 230.81 11.83 230.63 6.08 230.68 .11 236.65 .19 242.4 0 248.15 .64 253.91 .59 259.66 .58 265.42 .7 271.18 .31 271.46 6.08 271.24 11.83 271 17.58 271.36 23.34 271.19 29.09 271.02 34.85 271.08 40.51"/>
            <path class="cls-1" d="M363.63,11.83l.22-5.76-.28-5.76-5.76.39-5.76-.12h-5.76s-5.76.06-5.76.06l-5.75-.63-5.75.18-5.96-.08-.05,5.97.18,5.76-.24,5.76v5.76s.35,5.75.35,5.75l-.12,5.75v5.83s5.84-.27,5.84-.27l5.76-.2,5.76.25,5.76-.12,5.75-.11h5.76s5.66.28,5.66.28l-.06-5.66.17-5.75.17-5.76-.35-5.76.23-5.75ZM355.98,18.42l-3.19,2.42-3.07,2.71-4.09.28-.53,1.15.09,2.72.59,2.68.22.39c-.08.09-.17.16-.29.21-.06,0-.11.01-.13.04,0,0,0,0,0,0-.11.03-.23.04-.37.04-.88,0-1.74-.17-2.62-.15-.39,0-.81.09-1.19.03-.08-.01-.16-.03-.24-.05-.04-.26-.06-.51-.06-.51l.36-2.7.48-2.69-1.09-.34-3.64-1.83-3.28-2.13-2.95-2.6-2.4-3.14.29-.42,1.33-1.05,1.16-.2,1.67,2.49,1.87,2.48,2.8,1.32.04-.19-2.02-3.84-.9-4.24.05-1.01,1.63-.53.86.76,1.92,3.62,1.75,3.72.59-.23.02-4.08v-4.08s.81-1.03.81-1.03l1.7-.03.78,1.06-.38,4.09.49,4.07.1-.06,2.57-3.23,1.07-4,1.32-.61,1.59.7.55.99-1.89,3.87-2.01,3.74.59.59,2.69-1.49,2.14-2.2,2.18-2.18.59-.52,1.24,1.19.69.78-2.5,3.18Z"/>
            <polygon class="cls-1" points="370.4 40.51 370.68 34.85 370.68 29.1 370.57 23.34 370.45 17.59 370.7 11.83 370.5 6.08 370.23 .25 376.06 .23 381.81 .35 387.56 0 393.32 0 399.07 .24 404.83 .06 410.8 .11 410.72 6.08 410.9 11.83 410.26 17.58 410.32 23.34 410.32 29.09 410.2 34.85 410.59 40.61 404.83 40.89 399.08 40.67 393.32 40.43 387.57 40.79 381.82 40.62 376.06 40.45 370.4 40.51"/>
            <path class="cls-2" d="M266.04,62.5l-.17.8-2.39,3.23-2.38,3.47-3.66,2.05-4.04,1.02-1.04.67.16,2.79.48,2.77s.05.12.05.37-.77.58-1.02.58-1.13-.05-1.56-.12c-.43-.07-1.5,0-1.64-.15-.14-.14,0-.68,0-.68l.28-2.78.41-2.77-1.12-.37-3.78-1.79-3.57-1.96-2.74-3.02-2.84-2.98.55-.73,1.2-1.38.89.58,2.19,2.24,2.52,1.8,2.24,2.26.56-.66-2.54-3.65-1.02-4.34.19-1.05,1.73-.36.43.71,2.06,3.73,2.13,3.65.47-.22.28-4.19.43-4.18.26-.87,1.75-.06.33.93.89,4.18-.44,4.2.25-.07,2.47-3.41,1.33-3.99,1.2-.31h1.83s.3,1.34.3,1.34l-1.76,4.03-2.12,3.81.62.59,2.71-1.59,2.38-2.06,1.49-2.8,1.43-.39,1.32,1.14Z"/>
            <polygon class="cls-4" points="297.03 53.07 297.26 55.67 296.64 58.24 296.52 58.42 295.26 56.13 294.56 53.62 293.69 53.26 292.63 53.52 292.63 54.23 293.51 56.78 294.62 59.26 294.61 59.17 292.67 58.64 291.31 57.23 289.98 55.8 289.61 55.46 288.69 55.98 288.41 56.69 290.25 58.47 291.97 60.28 294.1 61.62 296.5 62.35 297.17 62.91 296.6 64.6 296.35 66.31 296.2 66.86 294.5 67.16 292.77 67.26 292.36 66.61 291.73 64.12 290.47 61.86 288.33 60.4 286.33 58.92 285.84 58.82 285.13 59.63 285.37 60.52 287.1 61.44 288.37 62.91 289.35 64.58 288.99 64.96 286.64 63.65 284.15 62.56 283.32 62.75 283.32 63.88 283.51 64.62 285.98 65.44 288.08 66.96 288.12 67.12 285.52 66.85 282.95 67.4 282.37 67.6 282.41 68.68 282.95 68.84 285.53 69.11 288.11 69.28 288.25 69.57 286 70.88 283.7 72.15 283.25 72.42 283.47 73.49 284.12 73.61 286.8 72.98 289.05 71.41 289.46 71.76 288.07 73.14 286.96 74.69 285.58 76.04 285.22 76.6 286.07 77.34 286.52 77.68 288.37 75.93 290.23 74.24 291.44 72.03 292.54 69.7 292.77 69.01 294.49 69.26 296.2 69.44 296.49 69.96 296.9 71.66 296.86 73.39 296.46 73.66 294.06 74.57 291.8 75.77 289.93 77.52 288.53 79.66 288.81 80.09 289.72 80.61 290.17 80.62 291.42 79.16 292.84 77.86 294.58 77.06 294.72 77.08 293.1 79.32 292.68 82.07 292.75 82.33 293.75 82.8 294.47 82.63 295.57 80.31 296.74 78 297.07 78.03 297.16 80.61 297.22 83.2 297.47 83.89 298.55 83.35 299.11 83.21 298.87 80.62 299.05 78.03 299.13 78.11 300.63 80.21 301.6 82.61 302.31 83 303.31 82.5 303.91 81.9 302.93 79.31 301.41 77.01 301.63 76.68 303.12 77.93 304.44 79.3 305.77 80.67 306.38 80.78 307.19 80.05 307.67 79.54 305.75 77.82 304.13 75.88 301.83 74.85 299.54 73.79 298.97 73.38 299.54 71.69 299.41 69.95 299.83 69.71 301.53 69.34 303.26 69.28 303.99 69.62 304.17 72.21 305.89 74.16 307.42 76.18 309.44 77.77 309.93 77.33 310.69 76.54 310.36 76.16 308.97 74.78 307.58 73.42 306.63 71.71 307.01 71.34 309.38 72.62 311.83 73.82 312.46 73.47 312.9 72.46 312.52 71.62 309.98 70.94 307.94 69.31 307.9 69.25 310.48 68.94 313.07 69.18 313.74 68.68 313.72 67.6 313.07 67.08 310.49 67.08 307.9 67.07 307.75 66.7 310.11 65.58 312.41 64.37 312.89 63.82 312.55 62.79 311.92 62.76 309.23 63.33 306.79 64.61 306.67 64.59 307.51 62.81 309.08 61.62 310.66 60.56 310.54 59.82 309.87 58.98 309.6 58.79 307.61 60.32 305.97 62.19 304.62 64.27 303.45 66.58 303.24 67.26 301.53 66.96 299.82 66.73 299.72 66.3 299.16 64.62 299.36 62.87 299.53 62.45 301.89 61.57 304.07 60.32 306.18 58.84 307.4 56.57 307.26 56.09 306.31 55.63 305.7 55.55 304.64 57.16 303.19 58.44 301.65 59.65 301.23 59.16 302.52 56.78 303.83 54.36 303.35 53.62 302.2 53.7 302.02 53.83 300.4 55.95 299.24 58.25 298.9 58.25 299 55.66 299.27 53.07 298.55 52.49 297.47 52.95 297.03 53.07"/>
            <polygon class="cls-1" points="417.43 87.77 417.71 82.11 417.71 76.36 417.6 70.6 417.48 64.85 417.73 59.09 417.53 53.34 417.26 47.51 423.09 47.5 428.85 47.61 434.6 47.26 440.35 47.26 446.11 47.5 451.86 47.32 457.83 47.37 457.75 53.34 457.93 59.09 457.3 64.84 457.35 70.6 457.36 76.35 457.24 82.11 457.63 87.87 451.86 88.15 446.11 87.93 440.36 87.69 434.6 88.05 428.85 87.88 423.09 87.71 417.43 87.77"/>
          </g>
        </g>
        <g id="_Repetição_de_grade_-3" data-name="&amp;lt;Repetição de grade&amp;gt;">
          <g>
            <polygon class="cls-2" points="670.32 36.88 670.07 34.06 670.74 31.27 670.86 31.07 672.24 33.56 673.01 36.29 673.94 36.68 675.1 36.4 675.1 35.63 674.14 32.86 672.94 30.16 672.95 30.25 675.05 30.83 676.54 32.36 677.98 33.92 678.38 34.28 679.39 33.72 679.69 32.95 677.69 31.01 675.81 29.05 673.51 27.59 670.89 26.79 670.16 26.19 670.78 24.35 671.05 22.49 671.21 21.89 673.07 21.57 674.94 21.46 675.39 22.16 676.07 24.87 677.45 27.33 679.78 28.92 681.95 30.53 682.49 30.64 683.25 29.75 682.99 28.79 681.11 27.79 679.73 26.19 678.66 24.37 679.06 23.96 681.62 25.38 684.32 26.56 685.22 26.36 685.22 25.13 685.02 24.33 682.34 23.44 680.05 21.78 680.01 21.61 682.83 21.91 685.63 21.31 686.26 21.09 686.22 19.91 685.63 19.73 682.82 19.45 680.01 19.26 679.86 18.94 682.31 17.52 684.82 16.14 685.3 15.84 685.06 14.68 684.36 14.55 681.44 15.24 678.99 16.94 678.55 16.57 680.06 15.07 681.27 13.37 682.77 11.9 683.16 11.3 682.23 10.5 681.74 10.13 679.74 12.03 677.71 13.87 676.39 16.27 675.19 18.8 674.94 19.55 673.08 19.28 671.21 19.09 670.9 18.52 670.45 16.67 670.5 14.78 670.94 14.49 673.55 13.51 676 12.2 678.04 10.29 679.56 7.97 679.26 7.51 678.26 6.94 677.78 6.93 676.42 8.52 674.87 9.93 672.98 10.8 672.83 10.77 674.59 8.34 675.04 5.35 674.97 5.06 673.88 4.55 673.1 4.74 671.9 7.27 670.63 9.77 670.27 9.75 670.17 6.93 670.11 4.12 669.84 3.37 668.66 3.96 668.06 4.11 668.31 6.93 668.12 9.74 668.03 9.66 666.4 7.37 665.35 4.76 664.57 4.34 663.49 4.88 662.83 5.53 663.9 8.35 665.55 10.86 665.32 11.21 663.7 9.85 662.26 8.36 660.81 6.87 660.14 6.75 659.27 7.54 658.74 8.1 660.83 9.97 662.59 12.08 665.09 13.2 667.59 14.36 668.21 14.8 667.59 16.63 667.73 18.53 667.27 18.79 665.42 19.2 663.54 19.26 662.75 18.89 662.55 16.07 660.68 13.96 659.01 11.75 656.82 10.03 656.28 10.5 655.46 11.36 655.82 11.77 657.32 13.28 658.84 14.76 659.87 16.61 659.46 17.02 656.88 15.63 654.21 14.33 653.53 14.7 653.05 15.8 653.47 16.71 656.23 17.45 658.45 19.22 658.5 19.29 655.69 19.63 652.86 19.37 652.13 19.91 652.16 21.09 652.86 21.65 655.68 21.65 658.49 21.66 658.65 22.07 656.08 23.28 653.59 24.6 653.06 25.19 653.43 26.32 654.12 26.36 657.05 25.73 659.69 24.33 659.83 24.36 658.92 26.3 657.2 27.59 655.48 28.74 655.62 29.54 656.35 30.46 656.64 30.66 658.8 29.01 660.59 26.97 662.06 24.71 663.33 22.2 663.56 21.45 665.42 21.78 667.28 22.03 667.39 22.49 667.99 24.33 667.78 26.23 667.6 26.69 665.02 27.65 662.66 29 660.36 30.61 659.04 33.08 659.19 33.6 660.22 34.1 660.89 34.19 662.04 32.44 663.62 31.05 665.29 29.74 665.74 30.27 664.35 32.85 662.91 35.49 663.44 36.29 664.69 36.2 664.89 36.06 666.65 33.75 667.91 31.25 668.27 31.25 668.17 34.07 667.88 36.89 668.67 37.52 669.84 37.02 670.32 36.88"/>
            <polygon class="cls-1" points="501.58 87.77 495.92 87.49 490.16 87.49 484.41 87.6 478.66 87.72 472.9 87.47 467.15 87.67 461.32 87.94 461.3 82.11 461.42 76.36 461.07 70.6 461.07 64.85 461.31 59.09 461.13 53.34 461.18 47.37 467.15 47.45 472.9 47.27 478.65 47.9 484.41 47.85 490.16 47.84 495.92 47.97 501.68 47.58 501.96 53.34 501.74 59.09 501.5 64.84 501.86 70.6 501.69 76.35 501.52 82.11 501.58 87.77"/>
            <polygon class="cls-1" points="593.96 87.77 588.31 87.49 582.55 87.49 576.8 87.6 571.05 87.72 565.29 87.47 559.53 87.67 553.7 87.94 553.69 82.11 553.81 76.36 553.46 70.6 553.46 64.85 553.7 59.09 553.52 53.34 553.57 47.37 559.53 47.45 565.29 47.27 571.04 47.9 576.79 47.85 582.55 47.84 588.3 47.97 594.07 47.58 594.35 53.34 594.12 59.09 593.89 64.84 594.24 70.6 594.08 76.35 593.9 82.11 593.96 87.77"/>
            <polygon class="cls-1" points="501.58 40.51 495.92 40.23 490.16 40.23 484.41 40.34 478.66 40.46 472.9 40.21 467.15 40.41 461.32 40.68 461.3 34.85 461.42 29.1 461.07 23.34 461.07 17.59 461.31 11.83 461.13 6.08 461.18 .11 467.15 .19 472.9 0 478.65 .64 484.41 .59 490.16 .58 495.92 .7 501.68 .31 501.96 6.08 501.74 11.83 501.5 17.58 501.86 23.34 501.69 29.09 501.52 34.85 501.58 40.51"/>
            <path class="cls-1" d="M594.12,11.83l.22-5.76-.28-5.76-5.76.39-5.76-.12h-5.76s-5.76.06-5.76.06l-5.75-.63-5.75.18-5.96-.08-.05,5.97.18,5.76-.24,5.76v5.76s.35,5.75.35,5.75l-.12,5.75v5.83s5.84-.27,5.84-.27l5.76-.2,5.76.25,5.76-.12,5.75-.11h5.76s5.66.28,5.66.28l-.06-5.66.17-5.75.17-5.76-.35-5.76.23-5.75ZM586.48,18.42l-3.19,2.42-3.07,2.71-4.09.28-.53,1.15.09,2.72.59,2.68.22.39c-.08.09-.17.16-.29.21-.06,0-.11.01-.13.04,0,0,0,0,0,0-.11.03-.23.04-.37.04-.88,0-1.74-.17-2.62-.15-.39,0-.81.09-1.19.03-.08-.01-.16-.03-.24-.05-.04-.26-.06-.51-.06-.51l.36-2.7.48-2.69-1.09-.34-3.64-1.83-3.28-2.13-2.95-2.6-2.4-3.14.29-.42,1.33-1.05,1.16-.2,1.67,2.49,1.87,2.48,2.8,1.32.04-.19-2.02-3.84-.9-4.24.05-1.01,1.63-.53.86.76,1.92,3.62,1.75,3.72.59-.23.02-4.08v-4.08s.81-1.03.81-1.03l1.7-.03.78,1.06-.38,4.09.49,4.07.1-.06,2.57-3.23,1.07-4,1.32-.61,1.59.7.55.99-1.89,3.87-2.01,3.74.59.59,2.69-1.49,2.14-2.2,2.18-2.18.59-.52,1.24,1.19.69.78-2.5,3.18Z"/>
            <polygon class="cls-1" points="600.9 40.51 601.18 34.85 601.18 29.1 601.06 23.34 600.95 17.59 601.2 11.83 601 6.08 600.73 .25 606.56 .23 612.31 .35 618.06 0 623.82 0 629.57 .24 635.33 .06 641.29 .11 641.22 6.08 641.4 11.83 640.76 17.58 640.82 23.34 640.82 29.09 640.7 34.85 641.09 40.61 635.33 40.89 629.58 40.67 623.82 40.43 618.07 40.79 612.31 40.62 606.56 40.45 600.9 40.51"/>
            <path class="cls-2" d="M496.54,62.5l-.17.8-2.39,3.23-2.38,3.47-3.66,2.05-4.04,1.02-1.04.67.16,2.79.48,2.77s.05.12.05.37-.77.58-1.02.58-1.13-.05-1.56-.12c-.43-.07-1.5,0-1.64-.15-.14-.14,0-.68,0-.68l.28-2.78.41-2.77-1.12-.37-3.78-1.79-3.57-1.96-2.74-3.02-2.84-2.98.55-.73,1.2-1.38.89.58,2.19,2.24,2.52,1.8,2.24,2.26.56-.66-2.54-3.65-1.02-4.34.19-1.05,1.73-.36.43.71,2.06,3.73,2.13,3.65.47-.22.28-4.19.43-4.18.26-.87,1.75-.06.33.93.89,4.18-.44,4.2.25-.07,2.47-3.41,1.33-3.99,1.2-.31h1.83s.3,1.34.3,1.34l-1.76,4.03-2.12,3.81.62.59,2.71-1.59,2.38-2.06,1.49-2.8,1.43-.39,1.32,1.14Z"/>
            <polygon class="cls-4" points="527.53 53.07 527.76 55.67 527.14 58.24 527.02 58.42 525.76 56.13 525.05 53.62 524.19 53.26 523.13 53.52 523.13 54.23 524.01 56.78 525.12 59.26 525.11 59.17 523.17 58.64 521.81 57.23 520.48 55.8 520.11 55.46 519.19 55.98 518.91 56.69 520.75 58.47 522.47 60.28 524.59 61.62 527 62.35 527.67 62.91 527.1 64.6 526.85 66.31 526.7 66.86 525 67.16 523.27 67.26 522.86 66.61 522.23 64.12 520.97 61.86 518.83 60.4 516.83 58.92 516.34 58.82 515.63 59.63 515.87 60.52 517.6 61.44 518.87 62.91 519.85 64.58 519.49 64.96 517.14 63.65 514.65 62.56 513.82 62.75 513.82 63.88 514.01 64.62 516.47 65.44 518.58 66.96 518.62 67.12 516.02 66.85 513.44 67.4 512.87 67.6 512.91 68.68 513.45 68.84 516.03 69.11 518.61 69.28 518.75 69.57 516.49 70.88 514.19 72.15 513.75 72.42 513.97 73.49 514.62 73.61 517.29 72.98 519.55 71.41 519.96 71.76 518.57 73.14 517.46 74.69 516.07 76.04 515.72 76.6 516.57 77.34 517.02 77.68 518.87 75.93 520.73 74.24 521.94 72.03 523.04 69.7 523.27 69.01 524.98 69.26 526.7 69.44 526.99 69.96 527.4 71.66 527.36 73.39 526.96 73.66 524.55 74.57 522.3 75.77 520.43 77.52 519.03 79.66 519.31 80.09 520.22 80.61 520.67 80.62 521.92 79.16 523.34 77.86 525.08 77.06 525.22 77.08 523.6 79.32 523.18 82.07 523.25 82.33 524.25 82.8 524.97 82.63 526.07 80.31 527.23 78 527.57 78.03 527.66 80.61 527.72 83.2 527.97 83.89 529.05 83.35 529.61 83.21 529.37 80.62 529.55 78.03 529.63 78.11 531.13 80.21 532.1 82.61 532.81 83 533.81 82.5 534.41 81.9 533.43 79.31 531.91 77.01 532.12 76.68 533.61 77.93 534.94 79.3 536.27 80.67 536.88 80.78 537.69 80.05 538.17 79.54 536.25 77.82 534.63 75.88 532.33 74.85 530.04 73.79 529.47 73.38 530.04 71.69 529.9 69.95 530.33 69.71 532.03 69.34 533.76 69.28 534.49 69.62 534.66 72.21 536.38 74.16 537.92 76.18 539.94 77.77 540.43 77.33 541.18 76.54 540.86 76.16 539.47 74.78 538.08 73.42 537.13 71.71 537.51 71.34 539.88 72.62 542.33 73.82 542.96 73.47 543.4 72.46 543.02 71.62 540.48 70.94 538.43 69.31 538.4 69.25 540.98 68.94 543.57 69.18 544.24 68.68 544.22 67.6 543.57 67.08 540.99 67.08 538.4 67.07 538.25 66.7 540.61 65.58 542.91 64.37 543.39 63.82 543.05 62.79 542.42 62.76 539.73 63.33 537.29 64.61 537.17 64.59 538.01 62.81 539.58 61.62 541.16 60.56 541.04 59.82 540.37 58.98 540.1 58.79 538.11 60.32 536.47 62.19 535.11 64.27 533.95 66.58 533.74 67.26 532.03 66.96 530.32 66.73 530.22 66.3 529.66 64.62 529.85 62.87 530.03 62.45 532.39 61.57 534.57 60.32 536.68 58.84 537.89 56.57 537.76 56.09 536.81 55.63 536.19 55.55 535.13 57.16 533.68 58.44 532.15 59.65 531.73 59.16 533.01 56.78 534.33 54.36 533.85 53.62 532.7 53.7 532.52 53.83 530.9 55.95 529.74 58.25 529.4 58.25 529.5 55.66 529.77 53.07 529.04 52.49 527.96 52.95 527.53 53.07"/>
            <polygon class="cls-1" points="647.93 87.77 648.21 82.11 648.21 76.36 648.1 70.6 647.98 64.85 648.23 59.09 648.03 53.34 647.76 47.51 653.59 47.5 659.34 47.61 665.1 47.26 670.85 47.26 676.61 47.5 682.36 47.32 688.33 47.37 688.25 53.34 688.43 59.09 687.8 64.84 687.85 70.6 687.86 76.35 687.73 82.11 688.12 87.87 682.36 88.15 676.61 87.93 670.86 87.69 665.1 88.05 659.35 87.88 653.59 87.71 647.93 87.77"/>
          </g>
        </g>
        <g id="_Repetição_de_grade_-4" data-name="&amp;lt;Repetição de grade&amp;gt;">
          <g>
            <polygon class="cls-2" points="900.82 36.88 900.57 34.06 901.24 31.27 901.36 31.07 902.74 33.56 903.5 36.29 904.44 36.68 905.59 36.4 905.6 35.63 904.64 32.86 903.43 30.16 903.45 30.25 905.55 30.83 907.03 32.36 908.48 33.92 908.88 34.28 909.88 33.72 910.19 32.95 908.19 31.01 906.31 29.05 904 27.59 901.39 26.79 900.66 26.19 901.28 24.35 901.55 22.49 901.71 21.89 903.57 21.57 905.44 21.46 905.89 22.16 906.57 24.87 907.95 27.33 910.28 28.92 912.45 30.53 912.98 30.64 913.75 29.75 913.49 28.79 911.61 27.79 910.23 26.19 909.16 24.37 909.55 23.96 912.11 25.38 914.82 26.56 915.72 26.36 915.72 25.13 915.52 24.33 912.84 23.44 910.55 21.78 910.51 21.61 913.33 21.91 916.13 21.31 916.76 21.09 916.72 19.91 916.13 19.73 913.32 19.45 910.51 19.26 910.36 18.94 912.81 17.52 915.31 16.14 915.79 15.84 915.56 14.68 914.85 14.55 911.94 15.24 909.49 16.94 909.05 16.57 910.56 15.07 911.77 13.37 913.27 11.9 913.66 11.3 912.73 10.5 912.24 10.13 910.24 12.03 908.21 13.87 906.89 16.27 905.69 18.8 905.44 19.55 903.58 19.28 901.71 19.09 901.39 18.52 900.95 16.67 900.99 14.78 901.43 14.49 904.05 13.51 906.5 12.2 908.54 10.29 910.06 7.97 909.76 7.51 908.76 6.94 908.28 6.93 906.92 8.52 905.37 9.93 903.48 10.8 903.33 10.77 905.09 8.34 905.54 5.35 905.47 5.06 904.38 4.55 903.59 4.74 902.4 7.27 901.13 9.77 900.77 9.75 900.67 6.93 900.61 4.12 900.34 3.37 899.16 3.96 898.55 4.11 898.81 6.93 898.62 9.74 898.52 9.66 896.9 7.37 895.85 4.76 895.06 4.34 893.98 4.88 893.33 5.53 894.4 8.35 896.04 10.86 895.81 11.21 894.19 9.85 892.76 8.36 891.31 6.87 890.64 6.75 889.76 7.54 889.24 8.1 891.33 9.97 893.09 12.08 895.59 13.2 898.09 14.36 898.7 14.8 898.09 16.63 898.23 18.53 897.77 18.79 895.92 19.2 894.04 19.26 893.24 18.89 893.05 16.07 891.18 13.96 889.51 11.75 887.32 10.03 886.78 10.5 885.96 11.36 886.32 11.77 887.82 13.28 889.34 14.76 890.37 16.61 889.96 17.02 887.38 15.63 884.71 14.33 884.03 14.7 883.55 15.8 883.97 16.71 886.72 17.45 888.95 19.22 888.99 19.29 886.19 19.63 883.36 19.37 882.63 19.91 882.66 21.09 883.36 21.65 886.18 21.65 888.99 21.66 889.15 22.07 886.58 23.28 884.09 24.6 883.56 25.19 883.93 26.32 884.62 26.36 887.54 25.73 890.19 24.33 890.33 24.36 889.41 26.3 887.7 27.59 885.98 28.74 886.12 29.54 886.85 30.46 887.14 30.66 889.3 29.01 891.09 26.97 892.56 24.71 893.83 22.2 894.06 21.45 895.92 21.78 897.78 22.03 897.89 22.49 898.49 24.33 898.28 26.23 898.1 26.69 895.52 27.65 893.16 29 890.86 30.61 889.54 33.08 889.69 33.6 890.72 34.1 891.39 34.19 892.54 32.44 894.12 31.05 895.79 29.74 896.24 30.27 894.85 32.85 893.41 35.49 893.94 36.29 895.19 36.2 895.39 36.06 897.14 33.75 898.41 31.25 898.77 31.25 898.67 34.07 898.38 36.89 899.16 37.52 900.34 37.02 900.82 36.88"/>
            <polygon class="cls-1" points="732.08 87.77 726.42 87.49 720.66 87.49 714.91 87.6 709.16 87.72 703.4 87.47 697.65 87.67 691.82 87.94 691.8 82.11 691.92 76.36 691.57 70.6 691.57 64.85 691.81 59.09 691.63 53.34 691.68 47.37 697.64 47.45 703.4 47.27 709.15 47.9 714.91 47.85 720.66 47.84 726.42 47.97 732.18 47.58 732.46 53.34 732.23 59.09 732 64.84 732.36 70.6 732.19 76.35 732.02 82.11 732.08 87.77"/>
            <polygon class="cls-1" points="824.46 87.77 818.81 87.49 813.05 87.49 807.3 87.6 801.54 87.72 795.79 87.47 790.03 87.67 784.2 87.94 784.19 82.11 784.31 76.36 783.96 70.6 783.96 64.85 784.2 59.09 784.02 53.34 784.07 47.37 790.03 47.45 795.79 47.27 801.54 47.9 807.29 47.85 813.05 47.84 818.8 47.97 824.57 47.58 824.84 53.34 824.62 59.09 824.39 64.84 824.74 70.6 824.58 76.35 824.4 82.11 824.46 87.77"/>
            <polygon class="cls-1" points="732.08 40.51 726.42 40.23 720.66 40.23 714.91 40.34 709.16 40.46 703.4 40.21 697.65 40.41 691.82 40.68 691.8 34.85 691.92 29.1 691.57 23.34 691.57 17.59 691.81 11.83 691.63 6.08 691.68 .11 697.64 .19 703.4 0 709.15 .64 714.91 .59 720.66 .58 726.42 .7 732.18 .31 732.46 6.08 732.23 11.83 732 17.58 732.36 23.34 732.19 29.09 732.02 34.85 732.08 40.51"/>
            <path class="cls-1" d="M824.62,11.83l.22-5.76-.28-5.76-5.76.39-5.76-.12h-5.76s-5.76.06-5.76.06l-5.75-.63-5.75.18-5.96-.08-.05,5.97.18,5.76-.24,5.76v5.76s.35,5.75.35,5.75l-.12,5.75v5.83s5.84-.27,5.84-.27l5.76-.2,5.76.25,5.76-.12,5.75-.11h5.76s5.66.28,5.66.28l-.06-5.66.17-5.75.17-5.76-.35-5.76.23-5.75ZM816.98,18.42l-3.19,2.42-3.07,2.71-4.09.28-.53,1.15.09,2.72.59,2.68.22.39c-.08.09-.17.16-.29.21-.06,0-.11.01-.13.04,0,0,0,0,0,0-.11.03-.23.04-.37.04-.88,0-1.74-.17-2.62-.15-.39,0-.81.09-1.19.03-.08-.01-.16-.03-.24-.05-.04-.26-.06-.51-.06-.51l.36-2.7.48-2.69-1.09-.34-3.64-1.83-3.28-2.13-2.95-2.6-2.4-3.14.29-.42,1.33-1.05,1.16-.2,1.67,2.49,1.87,2.48,2.8,1.32.04-.19-2.02-3.84-.9-4.24.05-1.01,1.63-.53.86.76,1.92,3.62,1.75,3.72.59-.23.02-4.08v-4.08s.81-1.03.81-1.03l1.7-.03.78,1.06-.38,4.09.49,4.07.1-.06,2.57-3.23,1.07-4,1.32-.61,1.59.7.55.99-1.89,3.87-2.01,3.74.59.59,2.69-1.49,2.14-2.2,2.18-2.18.59-.52,1.24,1.19.69.78-2.5,3.18Z"/>
            <polygon class="cls-1" points="831.4 40.51 831.68 34.85 831.68 29.1 831.56 23.34 831.44 17.59 831.7 11.83 831.5 6.08 831.23 .25 837.06 .23 842.81 .35 848.56 0 854.32 0 860.07 .24 865.83 .06 871.79 .11 871.72 6.08 871.9 11.83 871.26 17.58 871.32 23.34 871.32 29.09 871.2 34.85 871.59 40.61 865.83 40.89 860.07 40.67 854.32 40.43 848.57 40.79 842.81 40.62 837.06 40.45 831.4 40.51"/>
            <path class="cls-2" d="M727.04,62.5l-.17.8-2.39,3.23-2.38,3.47-3.66,2.05-4.04,1.02-1.04.67.16,2.79.48,2.77s.05.12.05.37-.77.58-1.02.58-1.13-.05-1.56-.12c-.43-.07-1.5,0-1.64-.15-.14-.14,0-.68,0-.68l.28-2.78.41-2.77-1.12-.37-3.78-1.79-3.57-1.96-2.74-3.02-2.84-2.98.55-.73,1.2-1.38.89.58,2.19,2.24,2.52,1.8,2.24,2.26.56-.66-2.54-3.65-1.02-4.34.19-1.05,1.73-.36.43.71,2.06,3.73,2.13,3.65.47-.22.28-4.19.43-4.18.26-.87,1.75-.06.33.93.89,4.18-.44,4.2.25-.07,2.47-3.41,1.33-3.99,1.2-.31h1.83s.3,1.34.3,1.34l-1.76,4.03-2.12,3.81.62.59,2.71-1.59,2.38-2.06,1.49-2.8,1.43-.39,1.32,1.14Z"/>
            <polygon class="cls-4" points="758.03 53.07 758.25 55.67 757.64 58.24 757.52 58.42 756.25 56.13 755.55 53.62 754.69 53.26 753.63 53.52 753.63 54.23 754.51 56.78 755.62 59.26 755.6 59.17 753.67 58.64 752.31 57.23 750.98 55.8 750.61 55.46 749.69 55.98 749.41 56.69 751.25 58.47 752.97 60.28 755.09 61.62 757.49 62.35 758.17 62.91 757.6 64.6 757.35 66.31 757.2 66.86 755.49 67.16 753.77 67.26 753.36 66.61 752.73 64.12 751.47 61.86 749.33 60.4 747.33 58.92 746.84 58.82 746.13 59.63 746.37 60.52 748.1 61.44 749.37 62.91 750.35 64.58 749.99 64.96 747.64 63.65 745.15 62.56 744.32 62.75 744.32 63.88 744.51 64.62 746.97 65.44 749.08 66.96 749.12 67.12 746.52 66.85 743.94 67.4 743.37 67.6 743.41 68.68 743.94 68.84 746.53 69.11 749.11 69.28 749.25 69.57 746.99 70.88 744.69 72.15 744.25 72.42 744.47 73.49 745.12 73.61 747.79 72.98 750.05 71.41 750.46 71.76 749.07 73.14 747.96 74.69 746.57 76.04 746.21 76.6 747.07 77.34 747.52 77.68 749.36 75.93 751.23 74.24 752.44 72.03 753.54 69.7 753.77 69.01 755.48 69.26 757.2 69.44 757.49 69.96 757.9 71.66 757.86 73.39 757.46 73.66 755.05 74.57 752.8 75.77 750.93 77.52 749.53 79.66 749.8 80.09 750.72 80.61 751.16 80.62 752.42 79.16 753.83 77.86 755.58 77.06 755.72 77.08 754.1 79.32 753.68 82.07 753.75 82.33 754.75 82.8 755.47 82.63 756.57 80.31 757.73 78 758.06 78.03 758.16 80.61 758.22 83.2 758.46 83.89 759.54 83.35 760.1 83.21 759.87 80.62 760.05 78.03 760.13 78.11 761.62 80.21 762.6 82.61 763.31 83 764.31 82.5 764.9 81.9 763.92 79.31 762.41 77.01 762.62 76.68 764.11 77.93 765.44 79.3 766.77 80.67 767.38 80.78 768.19 80.05 768.67 79.54 766.75 77.82 765.13 75.88 762.83 74.85 760.54 73.79 759.97 73.38 760.54 71.69 760.4 69.95 760.83 69.71 762.53 69.34 764.26 69.28 764.99 69.62 765.16 72.21 766.88 74.16 768.42 76.18 770.43 77.77 770.93 77.33 771.68 76.54 771.35 76.16 769.97 74.78 768.58 73.42 767.63 71.71 768.01 71.34 770.38 72.62 772.83 73.82 773.46 73.47 773.9 72.46 773.51 71.62 770.98 70.94 768.93 69.31 768.89 69.25 771.48 68.94 774.07 69.18 774.74 68.68 774.72 67.6 774.07 67.08 771.48 67.08 768.9 67.07 768.75 66.7 771.11 65.58 773.41 64.37 773.89 63.82 773.55 62.79 772.91 62.76 770.23 63.33 767.79 64.61 767.67 64.59 768.51 62.81 770.08 61.62 771.66 60.56 771.54 59.82 770.87 58.98 770.6 58.79 768.61 60.32 766.97 62.19 765.61 64.27 764.45 66.58 764.24 67.26 762.53 66.96 760.82 66.73 760.72 66.3 760.16 64.62 760.35 62.87 760.53 62.45 762.89 61.57 765.06 60.32 767.18 58.84 768.39 56.57 768.26 56.09 767.31 55.63 766.69 55.55 765.63 57.16 764.18 58.44 762.65 59.65 762.23 59.16 763.51 56.78 764.83 54.36 764.35 53.62 763.2 53.7 763.02 53.83 761.4 55.95 760.24 58.25 759.9 58.25 759.99 55.66 760.27 53.07 759.54 52.49 758.46 52.95 758.03 53.07"/>
            <polygon class="cls-1" points="878.43 87.77 878.71 82.11 878.71 76.36 878.6 70.6 878.48 64.85 878.73 59.09 878.53 53.34 878.26 47.51 884.09 47.5 889.84 47.61 895.6 47.26 901.35 47.26 907.1 47.5 912.86 47.32 918.83 47.37 918.75 53.34 918.93 59.09 918.29 64.84 918.35 70.6 918.35 76.35 918.23 82.11 918.62 87.87 912.86 88.15 907.11 87.93 901.36 87.69 895.6 88.05 889.85 87.88 884.09 87.71 878.43 87.77"/>
          </g>
        </g>
        <g id="_Repetição_de_grade_-5" data-name="&amp;lt;Repetição de grade&amp;gt;">
          <g>
            <polygon class="cls-2" points="1131.31 36.88 1131.07 34.06 1131.74 31.27 1131.86 31.07 1133.24 33.56 1134 36.29 1134.94 36.68 1136.09 36.4 1136.09 35.63 1135.14 32.86 1133.93 30.16 1133.95 30.25 1136.05 30.83 1137.53 32.36 1138.98 33.92 1139.38 34.28 1140.38 33.72 1140.69 32.95 1138.69 31.01 1136.81 29.05 1134.5 27.59 1131.89 26.79 1131.16 26.19 1131.77 24.35 1132.05 22.49 1132.21 21.89 1134.07 21.57 1135.94 21.46 1136.39 22.16 1137.07 24.87 1138.45 27.33 1140.77 28.92 1142.95 30.53 1143.48 30.64 1144.25 29.75 1143.99 28.79 1142.11 27.79 1140.73 26.19 1139.66 24.37 1140.05 23.96 1142.61 25.38 1145.32 26.56 1146.22 26.36 1146.22 25.13 1146.02 24.33 1143.33 23.44 1141.05 21.78 1141 21.61 1143.83 21.91 1146.63 21.31 1147.26 21.09 1147.21 19.91 1146.63 19.73 1143.82 19.45 1141.01 19.26 1140.86 18.94 1143.31 17.52 1145.81 16.14 1146.29 15.84 1146.05 14.68 1145.35 14.55 1142.44 15.24 1139.99 16.94 1139.54 16.57 1141.06 15.07 1142.26 13.37 1143.77 11.9 1144.16 11.3 1143.23 10.5 1142.74 10.13 1140.73 12.03 1138.71 13.87 1137.39 16.27 1136.19 18.8 1135.94 19.55 1134.08 19.28 1132.21 19.09 1131.89 18.52 1131.45 16.67 1131.49 14.78 1131.93 14.49 1134.55 13.51 1137 12.2 1139.03 10.29 1140.55 7.97 1140.26 7.51 1139.26 6.94 1138.78 6.93 1137.42 8.52 1135.87 9.93 1133.98 10.8 1133.83 10.77 1135.59 8.34 1136.04 5.35 1135.96 5.06 1134.88 4.55 1134.09 4.74 1132.9 7.27 1131.63 9.77 1131.27 9.75 1131.17 6.93 1131.11 4.12 1130.84 3.37 1129.66 3.96 1129.05 4.11 1129.31 6.93 1129.12 9.74 1129.02 9.66 1127.4 7.37 1126.34 4.76 1125.56 4.34 1124.48 4.88 1123.83 5.53 1124.9 8.35 1126.54 10.86 1126.31 11.21 1124.69 9.85 1123.25 8.36 1121.81 6.87 1121.14 6.75 1120.26 7.54 1119.74 8.1 1121.83 9.97 1123.59 12.08 1126.09 13.2 1128.58 14.36 1129.2 14.8 1128.58 16.63 1128.73 18.53 1128.27 18.79 1126.41 19.2 1124.54 19.26 1123.74 18.89 1123.55 16.07 1121.68 13.96 1120.01 11.75 1117.82 10.03 1117.28 10.5 1116.46 11.36 1116.82 11.77 1118.32 13.28 1119.84 14.76 1120.87 16.61 1120.46 17.02 1117.88 15.63 1115.21 14.33 1114.53 14.7 1114.05 15.8 1114.47 16.71 1117.22 17.45 1119.45 19.22 1119.49 19.29 1116.68 19.63 1113.86 19.37 1113.13 19.91 1113.15 21.09 1113.86 21.65 1116.68 21.65 1119.49 21.66 1119.65 22.07 1117.08 23.28 1114.59 24.6 1114.06 25.19 1114.43 26.32 1115.12 26.36 1118.04 25.73 1120.69 24.33 1120.82 24.36 1119.91 26.3 1118.2 27.59 1116.48 28.74 1116.62 29.54 1117.34 30.46 1117.64 30.66 1119.8 29.01 1121.59 26.97 1123.06 24.71 1124.33 22.2 1124.56 21.45 1126.42 21.78 1128.28 22.03 1128.39 22.49 1128.99 24.33 1128.78 26.23 1128.59 26.69 1126.02 27.65 1123.66 29 1121.36 30.61 1120.04 33.08 1120.18 33.6 1121.22 34.1 1121.89 34.19 1123.04 32.44 1124.62 31.05 1126.29 29.74 1126.74 30.27 1125.34 32.85 1123.91 35.49 1124.44 36.29 1125.69 36.2 1125.89 36.06 1127.64 33.75 1128.91 31.25 1129.27 31.25 1129.17 34.07 1128.88 36.89 1129.66 37.52 1130.84 37.02 1131.31 36.88"/>
            <polygon class="cls-1" points="962.58 87.77 956.92 87.49 951.16 87.49 945.41 87.6 939.66 87.72 933.9 87.47 928.15 87.67 922.32 87.94 922.3 82.11 922.42 76.36 922.07 70.6 922.07 64.85 922.31 59.09 922.13 53.34 922.18 47.37 928.14 47.45 933.9 47.27 939.65 47.9 945.4 47.85 951.16 47.84 956.91 47.97 962.68 47.58 962.96 53.34 962.73 59.09 962.5 64.84 962.85 70.6 962.69 76.35 962.51 82.11 962.58 87.77"/>
            <polygon class="cls-1" points="1054.96 87.77 1049.3 87.49 1043.55 87.49 1037.8 87.6 1032.04 87.72 1026.29 87.47 1020.53 87.67 1014.7 87.94 1014.69 82.11 1014.81 76.36 1014.46 70.6 1014.45 64.85 1014.7 59.09 1014.52 53.34 1014.57 47.37 1020.53 47.45 1026.28 47.27 1032.04 47.9 1037.79 47.85 1043.55 47.84 1049.3 47.97 1055.06 47.58 1055.34 53.34 1055.12 59.09 1054.89 64.84 1055.24 70.6 1055.08 76.35 1054.9 82.11 1054.96 87.77"/>
            <polygon class="cls-1" points="962.58 40.51 956.92 40.23 951.16 40.23 945.41 40.34 939.66 40.46 933.9 40.21 928.15 40.41 922.32 40.68 922.3 34.85 922.42 29.1 922.07 23.34 922.07 17.59 922.31 11.83 922.13 6.08 922.18 .11 928.14 .19 933.9 0 939.65 .64 945.4 .59 951.16 .58 956.91 .7 962.68 .31 962.96 6.08 962.73 11.83 962.5 17.58 962.85 23.34 962.69 29.09 962.51 34.85 962.58 40.51"/>
            <path class="cls-1" d="M1055.12,11.83l.22-5.76-.28-5.76-5.76.39-5.76-.12h-5.76s-5.76.06-5.76.06l-5.75-.63-5.75.18-5.96-.08-.05,5.97.18,5.76-.24,5.76v5.76s.35,5.75.35,5.75l-.12,5.75v5.83s5.84-.27,5.84-.27l5.76-.2,5.76.25,5.76-.12,5.75-.11h5.76s5.66.28,5.66.28l-.06-5.66.17-5.75.17-5.76-.35-5.76.23-5.75ZM1047.48,18.42l-3.19,2.42-3.07,2.71-4.09.28-.53,1.15.09,2.72.59,2.68.22.39c-.08.09-.17.16-.29.21-.06,0-.11.01-.13.04,0,0,0,0,0,0-.11.03-.23.04-.37.04-.88,0-1.74-.17-2.62-.15-.39,0-.81.09-1.19.03-.08-.01-.16-.03-.24-.05-.04-.26-.06-.51-.06-.51l.36-2.7.48-2.69-1.09-.34-3.64-1.83-3.28-2.13-2.95-2.6-2.4-3.14.29-.42,1.33-1.05,1.16-.2,1.67,2.49,1.87,2.48,2.8,1.32.04-.19-2.02-3.84-.9-4.24.05-1.01,1.63-.53.86.76,1.92,3.62,1.75,3.72.59-.23.02-4.08v-4.08s.81-1.03.81-1.03l1.7-.03.78,1.06-.38,4.09.49,4.07.1-.06,2.57-3.23,1.07-4,1.32-.61,1.59.7.55.99-1.89,3.87-2.01,3.74.59.59,2.69-1.49,2.14-2.2,2.18-2.18.59-.52,1.24,1.19.69.78-2.5,3.18Z"/>
            <polygon class="cls-1" points="1061.9 40.51 1062.18 34.85 1062.17 29.1 1062.06 23.34 1061.94 17.59 1062.2 11.83 1062 6.08 1061.73 .25 1067.55 .23 1073.31 .35 1079.06 0 1084.81 0 1090.57 .24 1096.33 .06 1102.29 .11 1102.22 6.08 1102.39 11.83 1101.76 17.58 1101.81 23.34 1101.82 29.09 1101.7 34.85 1102.09 40.61 1096.33 40.89 1090.57 40.67 1084.82 40.43 1079.07 40.79 1073.31 40.62 1067.56 40.45 1061.9 40.51"/>
            <path class="cls-2" d="M957.54,62.5l-.17.8-2.39,3.23-2.38,3.47-3.66,2.05-4.04,1.02-1.04.67.16,2.79.48,2.77s.05.12.05.37-.77.58-1.02.58-1.13-.05-1.56-.12c-.43-.07-1.5,0-1.64-.15-.14-.14,0-.68,0-.68l.28-2.78.41-2.77-1.12-.37-3.78-1.79-3.57-1.96-2.74-3.02-2.84-2.98.55-.73,1.2-1.38.89.58,2.19,2.24,2.52,1.8,2.24,2.26.56-.66-2.54-3.65-1.02-4.34.19-1.05,1.73-.36.43.71,2.06,3.73,2.13,3.65.47-.22.28-4.19.43-4.18.26-.87,1.75-.06.33.93.89,4.18-.44,4.2.25-.07,2.47-3.41,1.33-3.99,1.2-.31h1.83s.3,1.34.3,1.34l-1.76,4.03-2.12,3.81.62.59,2.71-1.59,2.38-2.06,1.49-2.8,1.43-.39,1.32,1.14Z"/>
            <polygon class="cls-4" points="988.52 53.07 988.75 55.67 988.14 58.24 988.02 58.42 986.75 56.13 986.05 53.62 985.19 53.26 984.13 53.52 984.13 54.23 985.01 56.78 986.12 59.26 986.1 59.17 984.17 58.64 982.81 57.23 981.47 55.8 981.11 55.46 980.19 55.98 979.91 56.69 981.75 58.47 983.47 60.28 985.59 61.62 987.99 62.35 988.67 62.91 988.1 64.6 987.85 66.31 987.7 66.86 985.99 67.16 984.27 67.26 983.86 66.61 983.23 64.12 981.97 61.86 979.83 60.4 977.83 58.92 977.34 58.82 976.63 59.63 976.87 60.52 978.6 61.44 979.87 62.91 980.85 64.58 980.49 64.96 978.14 63.65 975.65 62.56 974.82 62.75 974.82 63.88 975.01 64.62 977.47 65.44 979.57 66.96 979.61 67.12 977.02 66.85 974.44 67.4 973.87 67.6 973.9 68.68 974.44 68.84 977.02 69.11 979.61 69.28 979.75 69.57 977.49 70.88 975.19 72.15 974.75 72.42 974.97 73.49 975.62 73.61 978.29 72.98 980.55 71.41 980.96 71.76 979.56 73.14 978.46 74.69 977.07 76.04 976.71 76.6 977.57 77.34 978.02 77.68 979.86 75.93 981.73 74.24 982.94 72.03 984.04 69.7 984.27 69.01 985.98 69.26 987.7 69.44 987.99 69.96 988.4 71.66 988.36 73.39 987.96 73.66 985.55 74.57 983.3 75.77 981.43 77.52 980.03 79.66 980.3 80.09 981.22 80.61 981.66 80.62 982.91 79.16 984.33 77.86 986.08 77.06 986.21 77.08 984.6 79.32 984.18 82.07 984.25 82.33 985.25 82.8 985.97 82.63 987.07 80.31 988.23 78 988.56 78.03 988.66 80.61 988.71 83.2 988.96 83.89 990.04 83.35 990.6 83.21 990.37 80.62 990.54 78.03 990.63 78.11 992.12 80.21 993.09 82.61 993.81 83 994.8 82.5 995.4 81.9 994.42 79.31 992.91 77.01 993.12 76.68 994.61 77.93 995.93 79.3 997.26 80.67 997.88 80.78 998.68 80.05 999.17 79.54 997.25 77.82 995.63 75.88 993.33 74.85 991.03 73.79 990.46 73.38 991.03 71.69 990.9 69.95 991.33 69.71 993.03 69.34 994.76 69.28 995.49 69.62 995.66 72.21 997.38 74.16 998.92 76.18 1000.93 77.77 1001.43 77.33 1002.18 76.54 1001.85 76.16 1000.47 74.78 999.08 73.42 998.13 71.71 998.5 71.34 1000.88 72.62 1003.33 73.82 1003.96 73.47 1004.4 72.46 1004.01 71.62 1001.48 70.94 999.43 69.31 999.39 69.25 1001.98 68.94 1004.57 69.18 1005.24 68.68 1005.22 67.6 1004.57 67.08 1001.98 67.08 999.4 67.07 999.25 66.7 1001.61 65.58 1003.9 64.37 1004.39 63.82 1004.05 62.79 1003.41 62.76 1000.73 63.33 998.29 64.61 998.17 64.59 999.01 62.81 1000.58 61.62 1002.16 60.56 1002.03 59.82 1001.37 58.98 1001.1 58.79 999.11 60.32 997.46 62.19 996.11 64.27 994.95 66.58 994.74 67.26 993.03 66.96 991.31 66.73 991.22 66.3 990.66 64.62 990.85 62.87 991.02 62.45 993.39 61.57 995.56 60.32 997.68 58.84 998.89 56.57 998.76 56.09 997.81 55.63 997.19 55.55 996.13 57.16 994.68 58.44 993.15 59.65 992.73 59.16 994.01 56.78 995.33 54.36 994.85 53.62 993.69 53.7 993.51 53.83 991.9 55.95 990.74 58.25 990.4 58.25 990.49 55.66 990.76 53.07 990.04 52.49 988.96 52.95 988.52 53.07"/>
            <polygon class="cls-1" points="1108.93 87.77 1109.21 82.11 1109.21 76.36 1109.1 70.6 1108.98 64.85 1109.23 59.09 1109.03 53.34 1108.76 47.51 1114.59 47.5 1120.34 47.61 1126.09 47.26 1131.85 47.26 1137.6 47.5 1143.36 47.32 1149.33 47.37 1149.25 53.34 1149.43 59.09 1148.79 64.84 1148.85 70.6 1148.85 76.35 1148.73 82.11 1149.12 87.87 1143.36 88.15 1137.61 87.93 1131.85 87.69 1126.1 88.05 1120.35 87.88 1114.59 87.71 1108.93 87.77"/>
          </g>
        </g>
      </g>
    </g>
  </g>
</svg>