<?xml version="1.0" encoding="UTF-8"?>
<svg id="Camada_2" data-name="Camada 2" xmlns="http://www.w3.org/2000/svg" viewBox="0 0 152.77 89.65">
  <defs>
    <style>
      .cls-1 {
        fill: #df6d26;
      }
    </style>
  </defs>
  <g id="Camada_1-2" data-name="Camada 1">
    <g>
      <g>
        <path class="cls-1" d="M12.67,41.68l.54.13c-.02.24-.38.7-.52,1.07h-.64c.35-.48.61-.94.62-1.2Z"/>
        <path class="cls-1" d="M10.08,14.62c-1.57-2.74-4.24-10.51-6-14.62h3.04c1.2,1.88,6.2,10.06,7.48,11.96,1.71,2.52,3.32,5.05,4.94,7.57.29.46,1.38.95.93,1.46-1.08-.59-2.39-.81-3.59-1.19-1.34-.45-1.15-.52-2.68-.79-1.79-.32-3.25-2.85-4.14-4.39Z"/>
        <path class="cls-1" d="M15.55,35.38c.18.24-4.13,5.52-5.25,7.5H3.6c-1.99,0-3.6-1.61-3.6-3.6V3.59C0,2.21.78,1.02,1.92.41c.93,2.6,3.38,7.46,3.65,8.35.86,2.87,1.63,5.75,2.81,8.51-.49.51-3.91-3.2-4.26-3.6-1.78-2.06-1.15-2-3.61-3.58-.2-.13-.36-.31-.5-.5v1.96l5.16,6.78C3.59,17.54,0,17.59,0,17.59v1.19c.34.03.67.07,1.01.12,7.15,1.22,14.21,3.1,21.15,5.22,2.41.73,8.5,4.15,10.53,5.71.29.23.55.27.43.75-.78.23-1.51.59-2.32.74-8.93,1.64-17.26.54-25.95-1.33-.78-.16-3.14-1-4.84-1.35v3.91l15.54,2.83Z"/>
        <path class="cls-1" d="M39.2,34.92c-.02.3-1.13,4.03-1.29,4.25-.27.38-1.33,2.17-1.94,3.71H13.86c1.4-1.88,4.04-5.55,4.63-7.23,2.83.36,5.79.36,8.65.28.76-.02,1.39-.26,2.1-.29,3.27-.16,6.52.17,9.6-1.32.22.21.36.26.35.6Z"/>
        <path class="cls-1" d="M41.11,39.37c-.18-1.6.75-3,1.07-4.52l.19.86-1.27,3.66Z"/>
        <path class="cls-1" d="M37.78,3.45c-.81-.28-4.12-2.08-7.05-3.45h16.2c.95,1.54,5.71,7.19,6.54,8.51.13.2,1.5,2.37.82,2.37-1.53-.65-2.93-1.89-4.53-2.42-2.76-.89-2-1.11-4.85-2.04-.12-.04-6.42-2.72-7.12-2.96Z"/>
        <path class="cls-1" d="M53.93,12.04c.41.23,2.59,1.45,2.09,2.03-.27.31-1.2-1.03-1.55-1.25-.6-.37-1.7-.26-1.64-1.14.5-.12.74.16,1.1.36Z"/>
        <path class="cls-1" d="M12.27,5.77c-.46-.52-2.53-3.73-3.96-5.77h18.41c2.38,1.44,7.32,3.66,8.24,4.13,2.41,1.25,4.6,2.51,6.95,3.69,6.5,3.29,14.37,5.93,19.01,11.48l2.82,1.71-.13.54c-1.45-.5-2.38.96-3.25,1.26-5.09,1.74-10.24,3.01-15.57,3.86-3.14.5-3.07.73-6.33-.19-.52-.14-1.99-.4-1.99-.4-.43-.2-.91-.68-2.95-1.06-.99-.17-3.17-.82-3.17-.82-1.05-.52-2.16-1.06-3.17-1.64-2.29-1.33-4.24-3.16-6.04-5.13-.76-.83-4.7-6.39-5.94-7.77-.35-.38-2.47-3.35-2.93-3.88Z"/>
        <path class="cls-1" d="M67.69,29.29c.25,2.13-.06,4.17-.82,6.15-.21.56-2.66,5.3-3.61,7.44h-22.15c1.02-2.22,2.24-5.88,2.35-6.08.93-1.75,2.14-3.97,3.87-4.92,1.74-.96,7.71-2.65,9.81-2.99,1.04-.17,2.28.21,2.99.11,2.53-.36.15-.16,2.13-.03,1.65.12,3.61-1.08,5.43.34Z"/>
        <path class="cls-1" d="M57.2,9.04c-.94-.99-4.11-5.5-6.75-9.04h24.08c.41,1.73,1.55,6.03,1.6,6.4.28,2.06,1.03,3.76.52,6.08-.24,1.14-2.92,6.56-3.87,7.03-.67.35-1.73.1-2.5.16-.41.04-.82.43-1.08.43-.17,0-2.77-1.69-2.96-1.87-1.21-1.08-2.67-3.66-3.91-4.86-.76-.74-2.19-1.22-2.65-1.68-.61-.59-1.69-1.86-2.47-2.66Z"/>
        <path class="cls-1" d="M85.98,42.5c.03.07.1.21.19.38h-18.11l5.95-13.87c.89-.63,3,.36,4.01.73,2.08.77,4.02,1.91,6.09,2.71.48,2.43.87,7.75,1.86,10.06Z"/>
        <path class="cls-1" d="M88.76,21.26c.02.5.13.56-.39.53-1.07-.07-2.4.06-3.33-.39,1.23-.5,2.47-.45,3.72-.13Z"/>
        <path class="cls-1" d="M98.94,39.99c1.54,1.01,3.21,1.85,4.78,2.89h-15.26l-.75-8.18c.21-.19,5.03.91,8.73,3.24.92.58,1.78,1.59,2.49,2.05Z"/>
        <path class="cls-1" d="M105.67,41.77c.63.39,1.29.78,1.98,1.11h-1.68l-.3-1.11Z"/>
        <path class="cls-1" d="M76.84,0h33.19c-2.88,2.32-6.82,5.85-8.65,6.84-2.47,1.31-8.25,4.01-10.83,5.15-3.96,1.78-8.26,2.84-12.16,4.75.25-.77.12-1.81.27-2.48.05-.2.44-.18.5-.39.69-2.53-1.15-10.12-2.31-13.87Z"/>
        <path class="cls-1" d="M105.01,8.07c1.31-.85,9.97-6.86,11.17-8.07h8.08l-7.95,8.21c-2.22,1.31-3.91,3.21-6.28,4.38l-15.95,2.02,5.09-2.76c1.27-.68,4.69-3.05,5.83-3.78Z"/>
        <path class="cls-1" d="M103.4,23.8l-15.44-4.79c.27-.31.66-.47,1.05-.56,2.39-.53,4.66-.48,6.99-.73,4.41-.49,10.95-1.59,15.27-1,1.21.17,3.69,1.93,4.94,2.52.73.34,1.7.37,2.44.75.63.32,1.12,1.42,2,.92.89-.52,3.3-.46,4.72-.45,1.41,0,3.29.07,4.69.16.31.03,1.33-.05,1.3.36l-6.26,3.2s-4.93,1.54-6.72,1.8c-5.25.77-9.87-1.52-14.98-2.2Z"/>
        <path class="cls-1" d="M131.53,41.32c.35.33.82.95,1.34,1.55h-16.03c-.77-.36-1.81-.41-2.51-.72-6.24-2.71-12.36-5.57-18.56-8.33-.29-.12-.53-.36-.75-.59,0,0-1.78-.93-2.9-1.64-1.27-.82-1.37-.61-2.52-1.18-1.77-.87-4.92-2.42-6.47-3.39-.65-.4-1.6-1.61-2.26-1.99-.63-.36-1.75-.75-2.49-.85-.92-.98,4.03-1.59,4.38-1.61,7.02-.44,14.5,1.86,21.17,3.62,2.37.62,5,.89,7.34,1.71,2.81.98,5.91,3.52,8.56,5.01,0,0,1.54.65,1.82.84,3.07,2.13,7.14,5.09,9.87,7.56Z"/>
        <path class="cls-1" d="M128.92,0h11.82c-2.06,2.03-5.62,5.7-6.91,6.56-4.2,2.8-6.82,5.66-12.19,6.18-1.23.12-2.73,0-4,0-.14,0-.71.58-.92.14,1.27-1.07,2.49-2.23,3.63-3.43.18-.17.18-.66.48-.99.5-.52,5.86-5.64,8.09-8.47Z"/>
        <path class="cls-1" d="M139.25,42.26c.63.26,1.65.43,2.38.62h-4.97l-6.63-5.11c.32-.82,1.42.21,1.86.41,1.61.76.59.38,1.32,1.06.35.31,1.32.29,1.85.56,1.3.66,2.55,1.79,4.18,2.47Z"/>
        <path class="cls-1" d="M142.02,0h5.5c-.23.66-.4,1.41-.63,1.88-1.13,2.32-7.06,13.94-8.6,15.74-1.2,1.4-4.24,1.19-5.9,1.09-3.28-.18-6.68-.39-9.95-.64-2.02-.15-3.93-1.06-5.99-.8-.14-.81.24-.4.62-.56,2.11-.82,5.61-1.64,7.72-1.85.09,0,4.37-2.52,6.66-4.14,1.93-1.36,9.14-7.93,10.56-10.73Z"/>
        <path class="cls-1" d="M152.77,3.59v6.34c-1.55.7-2.78,1.77-4.23,2.56-1.13.63-2.62,1.1-3.79,1.79-.83.5-1.45,1.37-2.48,1.66.75-3.06,5.45-11.89,7.06-14.56l.22-1.37c1.8.19,3.21,1.72,3.21,3.57Z"/>
        <path class="cls-1" d="M147.62,14.5c.82-.51,3.65-1.74,5.15-2.98v8.24c-.21,0-.43-.02-.62.07-2.23.93-6.67,4.36-8.88,4.05-1.77-.25-5.79-1.04-7.92-1.28,2.07-1.98,4.81-3.1,7.22-4.62,1.73-1.09,3.33-2.38,5.05-3.47Z"/>
        <path class="cls-1" d="M148.12,24.73l4.64-2.58v4.42c-1.31-.43-3.56-.97-4.27-1.29-.31-.14-.48.12-.37-.56Z"/>
        <path class="cls-1" d="M140.14,26.59l12.63,2.49v10.21c0,1.99-1.61,3.6-3.6,3.6h-3.43l-18.82-9.59c-2.36-1.54-4.65-3.3-7.17-4.55-.28-.14-.5.13-.37-.56.89.04,1.76-.19,2.6-.46,2.45-.78,6.3-2.8,8.71-2.75,2.66.05,5.43.65,7.97,1.09.53.1,1.48.52,1.48.52Z"/>
      </g>
      <g>
        <path class="cls-1" d="M30.44,86.45l-1.65-7.07c-.08-.36-.47-.54-.81-.41-2.59,1.01-5.28,1.28-7.56,1.28-6.14,0-9.56-2.63-9.56-9.35,0-6.3,3.41-9.24,9.56-9.24,2.3,0,4.99.48,7.59,1.34.34.11.69-.08.77-.43l1.66-7.08c.06-.26-.05-.53-.28-.66-2.6-1.44-6.54-2.57-10.77-2.57C7.44,52.25,0,59.63,0,71.05s7.44,18.6,19.37,18.6c4.25,0,8.25-.95,10.81-2.56.22-.13.31-.4.25-.64Z"/>
        <path class="cls-1" d="M68.67,88.23l-13.06-35.51c-.1-.27-.38-.43-.66-.38l-10.53,1.77c-.21.04-.38.18-.46.38l-12.5,33.73c-.14.4.14.81.56.81h9.24c.26,0,.48-.17.57-.41l1.8-5.53c.08-.25.31-.41.57-.41h10.96c.26,0,.48.16.57.41l1.84,5.54c.08.25.31.41.57.41h9.97c.42,0,.71-.41.56-.8ZM46.35,74.67l3.2-9.97,3.35,9.97h-6.56Z"/>
        <path class="cls-1" d="M114.59,53.4c-.03-.31-.29-.53-.59-.53h-9.74c-.25,0-.48.16-.56.4l-8.9,25.07-9.36-25.08c-.09-.23-.31-.39-.56-.39h-9.48c-.31,0-.56.23-.6.53l-3.69,34.97c-.04.35.24.66.59.66h8.74c.32,0,.58-.25.6-.56l1.1-19.32,6.58,19.48c.08.25.31.41.56.41h9.74c.26,0,.48-.16.57-.4l6.73-19.33,1.56,19.18c.02.31.28.55.59.55h9.27c.36,0,.63-.31.6-.66l-3.75-34.96Z"/>
        <path class="cls-1" d="M146.36,70.48v-.16c2.58-.83,5.47-3.62,5.47-8.26,0-6.05-5.42-9.77-16.84-9.77-2.62,0-6.61.19-10.61.52-.31.02-.55.29-.55.6v35.06c0,.31.24.57.55.6,4,.33,7.98.52,10.4.52,11.73,0,17.98-4.08,17.98-10.59,0-4.23-2.38-7.18-6.41-8.52ZM134.69,60.05h2.58c2.59,0,3.98,1.19,3.98,3.41,0,2.79-1.6,4.29-4.65,4.29h-1.91v-7.7ZM137.37,81.85h-2.69v-7.7h1.96c3.25,0,5.01,1.35,5.01,3.83s-1.5,3.87-4.29,3.87Z"/>
      </g>
    </g>
  </g>
</svg>