<svg width="35" height="35" viewBox="0 0 35 35" fill="none" xmlns="http://www.w3.org/2000/svg">
<circle cx="17.5" cy="17.5" r="17.5" transform="rotate(-180 17.5 17.5)" fill="#5F6C37"/>
<path d="M18.3252 22.7246L13.7252 18.1246C13.6252 18.0246 13.5545 17.9163 13.5132 17.7996C13.4712 17.6829 13.4502 17.5579 13.4502 17.4246C13.4502 17.2913 13.4712 17.1663 13.5132 17.0496C13.5545 16.9329 13.6252 16.8246 13.7252 16.7246L18.3252 12.1246C18.5085 11.9413 18.7419 11.8496 19.0252 11.8496C19.3085 11.8496 19.5419 11.9413 19.7252 12.1246C19.9085 12.3079 20.0002 12.5413 20.0002 12.8246C20.0002 13.1079 19.9085 13.3413 19.7252 13.5246L15.8252 17.4246L19.7252 21.3246C19.9085 21.5079 20.0002 21.7413 20.0002 22.0246C20.0002 22.3079 19.9085 22.5413 19.7252 22.7246C19.5419 22.9079 19.3085 22.9996 19.0252 22.9996C18.7419 22.9996 18.5085 22.9079 18.3252 22.7246Z" fill="white"/>
</svg>
