<svg width="35" height="35" viewBox="0 0 35 35" fill="none" xmlns="http://www.w3.org/2000/svg">
<circle cx="17.5" cy="17.5" r="17.5" fill="#DF6D26"/>
<path d="M16.6748 12.2754L21.2748 16.8754C21.3748 16.9754 21.4455 17.0837 21.4868 17.2004C21.5288 17.3171 21.5498 17.4421 21.5498 17.5754C21.5498 17.7087 21.5288 17.8337 21.4868 17.9504C21.4455 18.0671 21.3748 18.1754 21.2748 18.2754L16.6748 22.8754C16.4915 23.0587 16.2581 23.1504 15.9748 23.1504C15.6915 23.1504 15.4581 23.0587 15.2748 22.8754C15.0915 22.6921 14.9998 22.4587 14.9998 22.1754C14.9998 21.8921 15.0915 21.6587 15.2748 21.4754L19.1748 17.5754L15.2748 13.6754C15.0915 13.4921 14.9998 13.2587 14.9998 12.9754C14.9998 12.6921 15.0915 12.4587 15.2748 12.2754C15.4581 12.0921 15.6915 12.0004 15.9748 12.0004C16.2581 12.0004 16.4915 12.0921 16.6748 12.2754Z" fill="white"/>
</svg>
