<?xml version="1.0" encoding="UTF-8"?>
<svg id="Camada_2" data-name="Camada 2" xmlns="http://www.w3.org/2000/svg" viewBox="0 0 126.46 126.46">
  <defs>
    <style>
      .cls-1 {
        fill: #5c6634;
      }
    </style>
  </defs>
  <g id="Camada_1-2" data-name="Camada 1">
    <path class="cls-1" d="M124.7,59.22l-21.1-.46c-.52-.01-.73-.69-.3-.99,7.44-5.18,15.47-8.5,18.76-9.75.87-.33,1.34-1.27,1.09-2.17-.35-1.25-.84-2.99-1.2-4.27-.27-.96-1.27-1.52-2.22-1.24-3.58,1.03-12.03,3.79-20.22,9.14-.46.3-1.04-.19-.79-.68,4.66-9.12,12.44-15.22,15.54-17.4.75-.53.98-1.52.54-2.33l-2.05-3.79c-.49-.9-1.62-1.22-2.5-.7-5.15,3.08-20.74,13.77-23.65,32.45-.15.94-.97,1.63-1.92,1.55l-14.04-1.09c-.89-.07-1.59-.77-1.66-1.66l-1.1-14.04c-.07-.95.61-1.77,1.55-1.92,18.69-2.91,29.38-18.51,32.46-23.66.53-.88.2-2.01-.7-2.5l-3.77-2.05c-.8-.44-1.8-.21-2.33.54-2.18,3.09-8.29,10.88-17.41,15.54-.49.25-.98-.33-.68-.79,5.35-8.2,8.11-16.65,9.14-20.22.27-.95-.29-1.95-1.24-2.22l-4.27-1.2c-.9-.25-1.84.21-2.17,1.09-1.24,3.29-4.56,11.33-9.76,18.78-.3.43-.98.22-.99-.3l-.47-21.12c-.02-.98-.82-1.76-1.8-1.76h-4.41c-.98,0-1.78.78-1.8,1.76l-.46,21.1c-.01.52-.69.73-.99.3-5.18-7.44-8.5-15.47-9.75-18.76-.33-.87-1.27-1.34-2.17-1.09-1.25.35-2.99.84-4.27,1.2-.95.27-1.52,1.27-1.24,2.22,1.03,3.57,3.79,12.03,9.14,20.22.3.46-.19,1.04-.68.79-9.12-4.66-15.22-12.44-17.4-15.54-.53-.75-1.52-.98-2.33-.54-1.11.6-2.64,1.43-3.79,2.06-.9.49-1.22,1.62-.69,2.49,3.08,5.15,13.77,20.74,32.45,23.65.94.15,1.63.97,1.55,1.92l-1.09,14.04c-.07.89-.77,1.59-1.66,1.66l-14.04,1.1c-.95.07-1.77-.61-1.92-1.55-2.91-18.69-18.51-29.38-23.66-32.46-.88-.52-2.01-.2-2.5.7l-2.05,3.78c-.44.8-.21,1.8.54,2.33,3.09,2.18,10.88,8.29,15.54,17.41.25.49-.33.98-.79.68-8.2-5.35-16.65-8.11-20.22-9.14-.95-.27-1.95.29-2.22,1.24l-1.2,4.27c-.25.9.21,1.84,1.09,2.17,3.29,1.24,11.33,4.56,18.78,9.76.43.3.22.98-.3.99l-21.12.47c-.98.02-1.76.82-1.76,1.8v4.41c0,.98.78,1.78,1.76,1.8l21.1.46c.52.01.73.69.3.99-7.44,5.18-15.47,8.51-18.76,9.76-.87.33-1.34,1.26-1.08,2.16.35,1.26.85,3,1.21,4.28.27.95,1.26,1.51,2.22,1.24,3.57-1.03,12.03-3.79,20.22-9.14.46-.3,1.04.19.79.68-4.66,9.12-12.44,15.22-15.54,17.4-.75.53-.98,1.52-.54,2.33l2.05,3.79c.49.9,1.62,1.22,2.5.7,5.15-3.08,20.74-13.77,23.65-32.45.15-.94.97-1.63,1.92-1.55l14.04,1.09c.89.07,1.59.77,1.66,1.66l1.1,14.04c.07.95-.61,1.77-1.55,1.92-18.69,2.91-29.38,18.51-32.46,23.66-.53.88-.2,2.01.7,2.5l3.77,2.05c.8.44,1.8.21,2.33-.54,2.18-3.09,8.29-10.88,17.41-15.54.49-.25.98.33.68.79-5.35,8.2-8.11,16.65-9.14,20.22-.27.95.29,1.95,1.24,2.22l4.27,1.2c.9.25,1.84-.21,2.17-1.09,1.24-3.29,4.56-11.33,9.76-18.78.3-.43.98-.22.99.3l.47,21.12c.02.98.82,1.76,1.8,1.76h4.41c.98,0,1.78-.78,1.8-1.76l.46-21.1c.01-.52.69-.73.99-.3,5.18,7.44,8.5,15.47,9.75,18.76.33.87,1.27,1.34,2.17,1.09,1.25-.35,2.99-.84,4.27-1.2.95-.27,1.52-1.27,1.24-2.22-1.03-3.57-3.79-12.03-9.14-20.22-.3-.46.19-1.04.68-.79,9.12,4.66,15.22,12.44,17.4,15.54.53.75,1.52.98,2.33.54l3.79-2.05c.9-.49,1.22-1.62.7-2.5-3.08-5.15-13.77-20.74-32.45-23.65-.94-.15-1.63-.97-1.55-1.92l1.09-14.04c.07-.89.77-1.59,1.66-1.66l14.04-1.1c.95-.07,1.77.61,1.92,1.55,2.91,18.69,18.51,29.38,23.66,32.46.88.53,2.01.2,2.5-.7l2.05-3.77c.44-.8.21-1.8-.54-2.33-3.09-2.18-10.88-8.29-15.54-17.41-.25-.49.33-.98.79-.68,8.2,5.35,16.65,8.11,20.22,9.14.95.27,1.95-.29,2.22-1.24l1.2-4.27c.25-.9-.21-1.84-1.09-2.17-3.29-1.24-11.33-4.56-18.78-9.76-.43-.3-.22-.98.3-.99l21.12-.47c.98-.02,1.76-.82,1.76-1.8v-4.41c0-.98-.78-1.78-1.76-1.8Z"/>
  </g>
</svg>