<?xml version="1.0" encoding="UTF-8"?>
<svg id="Camada_2" data-name="Camada 2" xmlns="http://www.w3.org/2000/svg" viewBox="0 0 391.72 111.07">
  <defs>
    <style>
      .cls-1 {
        fill: #fbf9ed;
      }
    </style>
  </defs>
  <g id="Camada_1-2" data-name="Camada 1">
    <g>
      <path class="cls-1" d="M109.52,52.02l-18.53-.41c-.46-.01-.64-.61-.27-.87,6.53-4.55,13.59-7.47,16.48-8.57.77-.29,1.18-1.12.95-1.9-.31-1.1-.74-2.63-1.06-3.75-.24-.84-1.11-1.33-1.95-1.09-3.14.9-10.56,3.33-17.76,8.02-.41.26-.92-.17-.69-.6,4.09-8.01,10.93-13.37,13.65-15.28.66-.46.86-1.34.47-2.04l-1.8-3.33c-.43-.79-1.42-1.07-2.19-.61-4.52,2.71-18.21,12.09-20.77,28.5-.13.83-.85,1.43-1.68,1.36l-12.34-.96c-.78-.06-1.4-.68-1.46-1.45l-.97-12.33c-.07-.83.54-1.56,1.37-1.68,16.42-2.55,25.81-16.26,28.51-20.78.46-.77.18-1.76-.61-2.19l-3.32-1.8c-.71-.38-1.58-.18-2.05.47-1.91,2.72-7.28,9.56-15.29,13.65-.43.22-.86-.29-.6-.69,4.7-7.2,7.13-14.62,8.03-17.76.24-.84-.25-1.71-1.09-1.95l-3.75-1.06c-.79-.22-1.61.19-1.9.95-1.09,2.89-4,9.95-8.57,16.49-.26.38-.86.19-.87-.27l-.41-18.55c-.02-.86-.72-1.55-1.58-1.55h-3.87c-.86,0-1.56.69-1.58,1.55l-.41,18.53c-.01.46-.61.64-.87.27-4.55-6.53-7.47-13.59-8.57-16.48-.29-.77-1.12-1.18-1.9-.95-1.1.31-2.63.74-3.75,1.06-.84.24-1.33,1.11-1.09,1.95.9,3.14,3.32,10.57,8.02,17.76.26.41-.17.91-.6.69-8.01-4.09-13.37-10.93-15.28-13.65-.46-.66-1.34-.86-2.04-.48-.97.53-2.32,1.26-3.33,1.81-.79.43-1.07,1.42-.61,2.19,2.71,4.52,12.09,18.21,28.5,20.77.83.13,1.43.85,1.36,1.68l-.96,12.34c-.06.78-.68,1.4-1.45,1.46l-12.33.97c-.83.07-1.56-.54-1.68-1.37-2.55-16.42-16.26-25.81-20.78-28.51-.77-.46-1.76-.18-2.19.61l-1.8,3.32c-.38.71-.18,1.58.47,2.05,2.72,1.91,9.56,7.28,13.65,15.29.22.43-.29.86-.69.6-7.2-4.7-14.63-7.13-17.76-8.03-.84-.24-1.71.25-1.95,1.09l-1.06,3.75c-.22.79.19,1.61.95,1.9,2.89,1.09,9.95,4,16.49,8.57.38.26.19.86-.27.87l-18.55.41c-.86.02-1.55.72-1.55,1.58v3.87c0,.86.69,1.56,1.55,1.58l18.53.41c.46.01.64.61.27.87-6.54,4.55-13.59,7.47-16.48,8.57-.77.29-1.17,1.11-.95,1.9.31,1.1.74,2.64,1.06,3.76.24.84,1.11,1.33,1.95,1.09,3.14-.9,10.57-3.32,17.76-8.02.41-.26.91.17.69.6-4.09,8.01-10.93,13.37-13.65,15.28-.66.46-.86,1.34-.47,2.04l1.8,3.33c.43.79,1.42,1.07,2.19.61,4.52-2.71,18.21-12.09,20.77-28.5.13-.83.85-1.43,1.68-1.36l12.34.96c.78.06,1.4.68,1.46,1.45l.97,12.33c.07.83-.54,1.56-1.37,1.68-16.42,2.55-25.81,16.26-28.51,20.78-.46.77-.18,1.76.61,2.19l3.32,1.8c.71.38,1.58.18,2.05-.47,1.91-2.72,7.28-9.56,15.29-13.65.43-.22.86.29.6.69-4.7,7.2-7.13,14.62-8.03,17.76-.24.84.25,1.71,1.09,1.95l3.75,1.06c.79.22,1.61-.19,1.9-.95,1.09-2.89,4-9.95,8.57-16.49.26-.38.86-.19.87.27l.41,18.55c.02.86.72,1.55,1.58,1.55h3.87c.86,0,1.56-.69,1.58-1.55l.41-18.53c.01-.46.61-.64.87-.27,4.55,6.53,7.47,13.59,8.57,16.48.29.77,1.12,1.18,1.9.95,1.1-.31,2.63-.74,3.75-1.06.84-.24,1.33-1.11,1.09-1.95-.9-3.14-3.33-10.57-8.02-17.76-.26-.41.17-.91.6-.69,8.01,4.09,13.37,10.93,15.28,13.65.46.66,1.34.86,2.04.47l3.33-1.8c.79-.43,1.07-1.42.61-2.19-2.71-4.52-12.09-18.21-28.5-20.77-.83-.13-1.43-.85-1.36-1.68l.96-12.34c.06-.78.68-1.4,1.45-1.46l12.33-.97c.84-.07,1.56.54,1.68,1.37,2.55,16.42,16.26,25.81,20.78,28.51.77.46,1.76.18,2.19-.61l1.8-3.32c.38-.71.18-1.58-.47-2.05-2.72-1.91-9.56-7.28-13.65-15.29-.22-.43.29-.86.69-.6,7.2,4.7,14.62,7.13,17.76,8.03.84.24,1.71-.25,1.95-1.09l1.06-3.75c.22-.79-.19-1.61-.95-1.9-2.89-1.09-9.95-4-16.49-8.57-.38-.26-.19-.86.27-.87l18.55-.41c.86-.02,1.55-.72,1.55-1.58v-3.87c0-.86-.69-1.56-1.55-1.58Z"/>
      <g>
        <g>
          <path class="cls-1" d="M289.32,33.75v-.08c-.02-2.41-.68-10.73-10.41-10.73-3.37,0-6.15.6-9.89,1.74-.37.11-.6.49-.53.86l.79,4.36c.08.44.53.72.96.6,2.28-.63,4.32-.99,5.97-1.04.15-.05.31-.05.4-.05,3.59,0,4.45,2.86,4.64,4.58.08.75.05,1.28.05,1.28h-.05l-2.54.09c-7.9.31-12.08,2.8-12.23,7.79,0,.36,0,.72.05,1.07.36,4.03,3.57,6.53,7.95,6.53.41,0,4.17-.09,7.08-2.52v1.46c0,.42.34.76.76.76h6.23c.42,0,.76-.34.76-.76v-7.33c0-.11,0-.22,0-.35v-7.71c0-.05,0-.25,0-.56ZM281.48,44.71c-.97.37-2.43.66-3.49.76-.35.05-.71.05-1.02.05-1.78-.15-2.8-1.07-2.8-2.75s1.07-2.85,3.77-3c.5-.05,1.12-.05,1.73-.05h1.81v5Z"/>
          <path class="cls-1" d="M140.89,14.04c3.73,0,7.42.94,10.13,2.36.31.16.46.52.37.86l-1.27,5.02c-.11.44-.58.68-1,.53-2.53-.89-5.25-1.39-7.51-1.39-6.06,0-10.75,3.26-10.75,11.01s4.69,11.11,10.75,11.11c2.25,0,4.96-.33,7.48-1.33.44-.17.93.06,1.04.51l1.27,5c.08.33-.05.68-.34.85-2.68,1.54-6.42,2.36-10.16,2.36-10.9,0-18.5-6.88-18.5-18.39s7.59-18.5,18.5-18.5Z"/>
          <path class="cls-1" d="M182.97,50.92c-8.36,0-13.76-5.45-13.76-13.86s5.76-13.91,13.35-13.91c9.13,0,12.16,7.14,10.84,14.57-.05.29-.28.52-.57.59-3.06.74-9.83.86-14.46.72-.5-.02-.88.46-.75.95.96,3.65,3.68,4.78,6.88,4.78,2.1,0,4.6-.43,6.56-.99.43-.12.86.15.95.58l.78,3.83c.07.36-.12.71-.45.86-2.34,1.01-5.98,1.88-9.36,1.88ZM181.4,17.48l-.19.32c-1.39,2.34-4.06,3.8-6.97,3.8h0c-.59,0-.96-.6-.66-1.06l2.75-4.21c.99-1.52,2.78-2.45,4.7-2.45h.98c1.89,0,3.65.9,4.65,2.37l2.91,4.28c.32.47-.05,1.07-.65,1.07h-.39c-2.96,0-5.67-1.51-7.04-3.91l-.12-.2ZM177.32,34.31s8.71-.1,8.71-.1c.41-2.75-.66-5.45-3.67-5.45-2.09,0-4.43,1.32-5.04,5.55h0Z"/>
          <path class="cls-1" d="M206.82,35.06v13.58c0,1.33-.34,1.67-.76,1.67h-6.73c-.42,0-.76-.34-.76-.76v-24.19c0-.36.26-.68.61-.75l6.32-1.27c.47-.1.91.27.91.75v.94c0,.62.7.97,1.21.62,2.33-1.61,4.98-2.49,7.71-2.49,4.79,0,8.3,2.75,8.3,8.51v17.88c0,.42-.34.76-.76.76h-6.67c-.42,0-.76-.34-.76-.76v-14.57c0-3.77-.76-5.25-3.46-5.25-.02,0-.03,0-.05,0-2.85.02-5.1,2.48-5.1,5.33Z"/>
          <path class="cls-1" d="M248.8,29.63c-.08.48-.57.76-1.02.59-1.67-.64-3.47-.9-4.94-.9-4.59,0-6.27,3.16-6.27,7.64s2.09,7.8,6.98,7.8c1.33,0,2.89-.15,4.41-.62.44-.14.9.16.97.62l.59,4.03c.05.35-.14.7-.48.83-2.23.83-4.85,1.31-7.38,1.31-8.97,0-13.71-5.5-13.71-13.65s4.99-14.11,13.76-14.11c2.76,0,5.34.6,7.33,1.49.31.14.48.48.43.81l-.67,4.17Z"/>
          <path class="cls-1" d="M301.31,45.27c2.19,0,3.62-.92,3.62-2.24,0-3.72-11.26-3.52-11.26-11.41,0-4.89,4.03-8.46,11.26-8.46,2.37,0,4.73.46,6.91,1.2.36.12.57.51.49.88l-.81,3.81c-.09.44-.55.7-.98.57-1.76-.54-3.32-.81-4.69-.81-2.34,0-3.57,1.02-3.57,2.29,0,3.46,11.26,3.62,11.26,11.31,0,4.79-4.18,8.51-11.26,8.51-3.04,0-6.29-.81-8.42-1.85-.32-.16-.5-.51-.42-.86l.85-3.76c.1-.45.57-.71,1.01-.55,2,.74,4.22,1.37,6.02,1.37Z"/>
          <g>
            <path class="cls-1" d="M155.82,49.55v-24.18c0-.37.26-.68.62-.75l6.73-1.29c.47-.09.91.27.91.75v25.47c0,.42-.34.76-.76.76h-6.73c-.42,0-.76-.34-.76-.76Z"/>
            <path class="cls-1" d="M163.79,14.75v5c0,.34-.24.63-.58.7l-6.27,1.2c-.44.08-.85-.25-.85-.7v-6.2c0-.39.32-.71.71-.71h6.27c.39,0,.71.32.71.71Z"/>
          </g>
          <g>
            <path class="cls-1" d="M253.79,49.39v-24.18c0-.37.26-.68.62-.75l6.73-1.29c.47-.09.91.27.91.75v25.47c0,.42-.34.76-.76.76h-6.73c-.42,0-.76-.34-.76-.76Z"/>
            <path class="cls-1" d="M261.76,14.59v5c0,.34-.24.63-.58.7l-6.27,1.2c-.44.08-.85-.25-.85-.7v-6.2c0-.39.32-.71.71-.71h6.27c.39,0,.71.32.71.71Z"/>
          </g>
        </g>
        <g>
          <path class="cls-1" d="M145.21,88.56h-11.6c-.33,0-.62.21-.72.52l-2.4,6.97c-.11.31-.4.52-.72.52h-6.61c-.53,0-.9-.53-.72-1.03l12.45-33.21c.09-.25.31-.43.58-.48l7.71-1.43c.37-.07.73.14.86.48l12.89,34.64c.19.5-.18,1.03-.72,1.03h-7.12c-.32,0-.61-.21-.72-.51l-2.44-6.98c-.11-.31-.4-.51-.72-.51ZM143.56,82.19l-4.28-12.02-4.13,12.02h8.41Z"/>
          <path class="cls-1" d="M168.78,79.42c0,4.11,0,13.62,0,16.37,0,.42-.34.76-.76.76h-6.73c-.42,0-.76-.34-.76-.76v-24.19c0-.36.26-.68.61-.75l6.32-1.27c.47-.1.91.27.91.75v.83c0,.63.71.98,1.22.61,1.83-1.32,3.84-2.06,5.91-2.27.61-.05,1.17-.1,1.73-.05,2.63.09,4.77,1.07,6.11,3.03.26.38.79.47,1.14.17,2.5-2.15,5.36-3.26,8.35-3.26,4.23,0,7.29,2.29,7.85,7.08.1.61.1,1.27.1,1.94v17.37c0,.42-.34.76-.76.76h-6.68c-.42,0-.76-.34-.76-.76v-14.57c0-3.77-.56-5.25-3.11-5.25-.15,0-.36,0-.51.05-.75.06-1.46.23-2.22.53-1.19.47-1.96,1.64-1.96,2.92,0,0,0,.01,0,.02v16.3c0,.42-.34.76-.76.76h-6.67c-.42,0-.76-.34-.76-.76v-14.57c0-3.77-.61-5.25-3.16-5.25-.88,0-1.74.18-2.62.52-1.21.47-2.02,1.63-2.02,2.93Z"/>
          <path class="cls-1" d="M220.59,97.17c-2.51,0-4.55-.73-6.24-1.76-.18-.11-.41-.15-.61-.08l-5.27,1.55c-.49.14-.98-.22-.98-.73v-36.2c0-.37.26-.68.62-.75l6.73-1.29c.47-.09.91.27.91.75v12.01c0,.6.65.96,1.17.64,1.86-1.12,4.12-1.91,6.63-1.91,6.06,0,9.78,5.15,9.78,13.55,0,11.16-7.29,14.22-12.74,14.22ZM215.75,77.14v12.18c1.02.76,2.65,1.27,4.23,1.27,3.06,0,4.94-1.94,4.94-7.49,0-5.04-1.73-7.13-4.74-7.13-1.53,0-3.26.51-4.43,1.17,0,0,0,0,0,0Z"/>
          <path class="cls-1" d="M265.73,97.17c-8.36,0-13.76-5.45-13.76-13.86s5.76-13.91,13.35-13.91c9.13,0,12.15,7.13,10.84,14.56-.05.3-.28.54-.58.61-3.06.74-9.82.86-14.44.72-.51-.02-.89.47-.76.96.97,3.64,3.68,4.77,6.87,4.77,2.1,0,4.6-.43,6.56-.99.43-.12.86.15.95.58l.78,3.83c.07.36-.12.71-.45.86-2.34,1.01-5.98,1.88-9.36,1.88ZM260.08,80.56l8.71-.1c.41-2.75-.66-5.45-3.67-5.45-2.09,0-4.43,1.32-5.04,5.55h0Z"/>
          <path class="cls-1" d="M289.58,81.31v14.48c0,.42-.34.76-.76.76h-6.73c-.42,0-.76-.34-.76-.76v-24.19c0-.36.26-.68.61-.75l6.32-1.27c.47-.1.91.27.91.75v.94c0,.62.7.97,1.21.62,2.33-1.61,4.98-2.49,7.71-2.49,4.79,0,8.31,2.75,8.31,8.51v17.88c0,.42-.34.76-.76.76h-6.67c-.42,0-.76-.34-.76-.76v-14.57c0-3.77-.76-5.25-3.46-5.25-.02,0-.03,0-.05,0-2.85.02-5.1,2.48-5.1,5.34Z"/>
          <path class="cls-1" d="M322.44,97.17c-5.2,0-8.87-2.55-8.87-10.5v-10.09c0-.42-.34-.76-.76-.76h-2.14c-.42,0-.76-.34-.76-.76v-3.65c0-.41.32-.75.73-.76l2.5-.1c.37-.01.68-.29.73-.66l.76-5.65c.04-.32.29-.58.61-.65l5.68-1.14c.47-.09.91.27.91.75v6.22c0,.43.36.78.79.76l5.4-.2c.43-.02.79.33.79.76v4.3c0,.42-.34.76-.76.76h-5.45c-.42,0-.76.34-.76.76v9.63c0,2.8.71,4.33,3.82,4.33.62,0,1.37-.06,2.19-.16.42-.05.81.26.85.68l.42,4.2c.04.36-.19.7-.53.81-1.58.49-3.7,1.09-6.13,1.09Z"/>
          <path class="cls-1" d="M379.49,91.51c2.19,0,3.62-.92,3.62-2.24,0-3.72-11.26-3.52-11.26-11.41,0-4.89,4.03-8.46,11.26-8.46,2.37,0,4.73.46,6.91,1.2.36.12.57.51.49.88l-.81,3.81c-.09.44-.55.7-.98.57-1.76-.54-3.32-.81-4.69-.81-2.34,0-3.57,1.02-3.57,2.29,0,3.46,11.26,3.62,11.26,11.31,0,4.79-4.18,8.51-11.26,8.51-3.04,0-6.29-.81-8.42-1.85-.32-.16-.5-.51-.42-.86l.85-3.76c.1-.45.57-.71,1.01-.55,2,.74,4.22,1.37,6.02,1.37Z"/>
          <g>
            <path class="cls-1" d="M238.58,95.79v-24.18c0-.37.26-.68.62-.75l6.73-1.29c.47-.09.91.27.91.75v25.47c0,.42-.34.76-.76.76h-6.73c-.42,0-.76-.34-.76-.76Z"/>
            <path class="cls-1" d="M246.55,60.99v5c0,.34-.24.63-.58.7l-6.27,1.2c-.44.08-.85-.25-.85-.7v-6.2c0-.39.32-.71.71-.71h6.27c.39,0,.71.32.71.71Z"/>
          </g>
          <g>
            <path class="cls-1" d="M359.3,95.79v-24.18c0-.37.26-.68.62-.75l6.73-1.29c.47-.09.91.27.91.75v25.47c0,.42-.34.76-.76.76h-6.73c-.42,0-.76-.34-.76-.76Z"/>
            <path class="cls-1" d="M367.27,60.99v5c0,.34-.24.63-.58.7l-6.27,1.2c-.44.08-.85-.25-.85-.7v-6.2c0-.39.32-.71.71-.71h6.27c.39,0,.71.32.71.71Z"/>
          </g>
          <path class="cls-1" d="M354.24,80.18v-.08c-.02-2.41-.68-10.73-10.41-10.73-3.37,0-6.15.6-9.89,1.74-.37.11-.6.49-.53.86l.79,4.36c.08.44.53.72.96.6,2.28-.63,4.32-.99,5.97-1.04.15-.05.31-.05.4-.05,3.59,0,4.45,2.86,4.64,4.58.08.75.05,1.28.05,1.28h-.05l-2.54.09c-7.9.31-12.08,2.8-12.23,7.79,0,.36,0,.72.05,1.07.36,4.03,3.57,6.53,7.95,6.53.41,0,4.17-.09,7.08-2.52v1.46c0,.42.34.76.76.76h6.23c.42,0,.76-.34.76-.76v-7.33c0-.11,0-.22,0-.35v-7.71c0-.05,0-.25,0-.56ZM346.41,91.14c-.97.37-2.43.66-3.49.76-.35.05-.71.05-1.02.05-1.78-.15-2.8-1.07-2.8-2.75s1.07-2.85,3.77-3c.5-.05,1.12-.05,1.73-.05h1.81v5Z"/>
        </g>
      </g>
    </g>
  </g>
</svg>